<?xml version="1.0" encoding="UTF-8"?>
<svg xmlns="http://www.w3.org/2000/svg" id="a" width="865.76" height="682.89" viewBox="0 0 865.76 682.89">
  <path d="M381.72,111.26c.15-2.52-.13-5.05-.83-7.47-.28-.88-.64-1.73-1.09-2.54-1-1.94-3.12-7.68,.73-18.17l9.35,29.88c-1.11,.7-2.17,1.47-3.17,2.33-1.77-1.21-3.44-2.56-4.99-4.03Z" fill="#f1b2c0" stroke="#002346" stroke-miterlimit="10"></path>
  <path d="M380.53,77.5c.29-2.49,.35-5,.19-7.5-.06-.37,.2-.71,.56-.76,.11-.02,.22,0,.33,.03,1.44,.56,3.93,2.11,5.05,6.3l-6.13,1.93Z" fill="#f1b2c0" stroke="#002346" stroke-miterlimit="10"></path>
  <path d="M473.58,118.43l38.9,27.79c.59,.43,1.43,.3,1.86-.29,0,0,0-.01,.01-.02h0c.39-.57,.29-1.35-.25-1.8l-36.62-29.93-3.9,4.25Z" fill="#fff" stroke="#002346" stroke-miterlimit="10"></path>
  <polygon points="471.8 120.35 479.19 112.35 465.17 100.45 458.41 109.17 471.8 120.35" fill="#0a063e" stroke="#002346" stroke-miterlimit="10"></polygon>
  <path d="M453.08,140.99l.83-8.94c.17-1.87-.5-3.73-1.83-5.06-5.1-5.16-15.19-18.45-12.47-25.66,0,0,3-9.15,10.14-10.26l12.97-.54c1.11-.05,2.21,.43,2.83,1.35,.76,1.13,.58,2.49-5.05,2.23-.75-.04-1.48,.36-2.06,.84s-.98,1.06-.45,1.65c0,0,6.33,.9,7.77,5,.41,1.18-.07,2.49-1.15,3.12-1.62,.94-3.83,2.69-2,4.41,0,0,10.14,5.94,9.09,12.91l-2,10.54-16.62,8.42Z" fill="#f1b2c0" stroke="#002346" stroke-miterlimit="10"></path>
  <ellipse cx="577.49" cy="48.69" rx="13.56" ry="13.33" transform="translate(485.46 620.88) rotate(-85.68)" fill="#002346" stroke="#002346" stroke-miterlimit="10"></ellipse>
  <ellipse cx="569.06" cy="56.38" rx="10.43" ry="10.25" transform="translate(470 619.57) rotate(-85.68)" fill="#5b07b0" stroke="#002346" stroke-miterlimit="10"></ellipse>
  <path d="M530.18,607.61h-33.48c-.91,0-1.65,.75-1.64,1.66,0,.06,0,.13,.01,.19,.83,6.29,6,26.34,38.09,22.57,2.52-.32,4.98-1,7.32-2,8.66-3.64,32.87-9.24,50.41-9.49,0,0,28,5,24.55-15.68l-61.05,4.75-24.21-2Z" fill="#5b07b0" stroke="#002346" stroke-miterlimit="10"></path>
  <path d="M530.18,607.61l11.3-1.16,17.15,4.52s-21.34,5.56-28.45-3.36Z" fill="#f1b2c0" stroke="#002346" stroke-miterlimit="10"></path>
  <path d="M623.85,341.61l-60.31-71.82-19.55-1-58.1,76.75-14.98,46.31c-7.94,31.23,13.24,72,13.24,72l40.93,93c1.18,2.68,3.83,4.4,6.76,4.4h2.06l-9,31.77c2.36,2.53,4.88,4.91,7.54,7.12h0c41.21,34,91.4,0,91.4,0l-8.36-108.18c-2.69-41.73,8.37-150.35,8.37-150.35Zm-69.3,113c0,.26-.05,.49-.07,.68s0,.29,0,.47c0,.08,0,.17,0,.25l-33-43.23c-1.19-1.57-1.46-3.65-.69-5.47l20.12-47.8c3.74-7,6.92-9.5,9.26-10.11,1.5-.43,3.12-.02,4.24,1.06,9.75,11.72,1.42,92.39,.14,104.09v.06Z" fill="#0a063e" stroke="#002346" stroke-miterlimit="10"></path>
  <path d="M552.22,139.05h6.35l21.79,18.12-9.71,73.6-7.11,39-19.55-1,2-73.38s-3.51-37.78,6.23-56.34Z" fill="#e6e7e8" stroke="#002346" stroke-miterlimit="10"></path>
  <rect x="369.06" y="288.49" width="92.13" height="4.36" fill="#fff" stroke="#002346" stroke-miterlimit="10"></rect>
  <path d="M273.84,598.32l-3.9,32.52,119.77,1s-33.64-25.38-53.05-30.94l-62.82-2.58Z" fill="#5b07b0" stroke="#002346" stroke-linecap="round" stroke-linejoin="round"></path>
  <polygon points="270.35 640.31 269.94 630.84 389.71 631.82 389.98 638.23 270.35 640.31" fill="#fff" stroke="#002346" stroke-miterlimit="10"></polygon>
  <path d="M183.81,600.08l-5.33,32.33,119.61,6.13s-32.52-26.8-51.67-33.2l-62.61-5.26Z" fill="#5b07b0" stroke="#002346" stroke-linecap="round" stroke-linejoin="round"></path>
  <path d="M186.25,578.27l9.23-214.25,54.09-87.63s30.17,3.27,43.53-1.69l22.38-.09,18.88,311.6h-59.35l-1.86-201.8-26.94,199.7-59.96-5.84Z" fill="#0a063e" stroke="#002346" stroke-miterlimit="10"></path>
  <path d="M410.64,119.55l-27.45,60c-.93,2.33-2.09,4.57-3.44,6.69-4.15,6.46-12,14.8-23.88,11.24-.51-.15-9.4-1.74-9.98-1.94l-24.9-5.44s-.73,53.64,7.15,108.59c.08,.59,.17,1.2,.26,1.81,8.15,55.56,7.79,67.79,7.79,67.79,0,0-40.14,7-43-45.56v-48l-2.75-53v-86.33l4.93-13.33s7.91,.08,20.2,5.21c5.38,2.26,10.55,4.98,15.47,8.12l21.5,11,27.78-36.68c14.57,3.82,20.57,6.82,30.32,9.83Z" fill="#fff" stroke="#002346" stroke-miterlimit="10"></path>
  <path d="M240.48,118.2s-2.59,.34-5.89,1.34c0,0,12.58,22.36,12.82,47l2.18,109.81s26.12,3.38,43.53-1.7l-5.3-102.04s-5.56-44.5-7.49-50.55h-5.47l-17.17,.69-17.21-4.55Z" fill="#e6e7e8" stroke="#002346" stroke-miterlimit="10"></path>
  <path d="M274.86,122.11c-3.17,11.73-8.93,13.32-11.95,13.29-1.04-.01-2.05-.33-2.91-.92l-3.27-2.19h0l-15.94-10.68c-.23-.15-.34-.43-.27-.69l4.73-21.82,9.2-4.35,15,16.21c-.05,4.08,1.88,7.94,5.17,10.36,.24,.19,.33,.5,.24,.79Z" fill="#f1b2c0" stroke="#002346" stroke-miterlimit="10"></path>
  <path d="M234.61,119.54s-13.06,3-16.45,4.95c0,0,22.57,38.93,29.79,68.2l-.47-26.08c-.41-16.5-4.83-32.66-12.87-47.07Z" fill="#0a063e" stroke="#002346" stroke-miterlimit="10"></path>
  <path d="M280.33,122.07h15s6.57,64.35-4.94,99.66l-2.57-49.12s-4.34-34.33-7.49-50.54Z" fill="#0a063e" stroke="#002346" stroke-miterlimit="10"></path>
  <path d="M218.16,124.49s-32.58,7.06-37.07,25.31c0,0-14.73,52.53-11.53,94.8,0,0,3,33.95,24.08,21.78l-5.5,107s42.57,11.59,58.32-54.47c1.46-6.26,2.29-12.65,2.45-19.08l.7-23.41-1.66-83.7s-6.17-26.93-29.79-68.23Z" fill="#fff" stroke="#002346" stroke-miterlimit="10"></path>
  <path d="M423.83,132.04c0,12.34-10.01,22.35-22.35,22.35s-22.35-10.01-22.35-22.35c0-1.18,.1-2.36,.29-3.53,1.04-6.47,4.86-12.15,10.46-15.55l-9.35-29.88-.28,.09c-1,.31-2.07-.25-2.38-1.25h0s-.46-1.45-.46-1.45c-.31-1,.25-2.07,1.25-2.39l12.49-3.91c1-.31,2.06,.24,2.38,1.24l.46,1.47c.31,1-.25,2.06-1.25,2.38l-.34,.11,9.5,30.35c4.72,.08,9.3,1.66,13.06,4.51h0c5.59,4.21,8.88,10.81,8.87,17.81Z" fill="#fff" stroke="#002346" stroke-miterlimit="10"></path>
  <path d="M423.83,132.04c0,12.34-10.01,22.35-22.35,22.35s-22.35-10.01-22.35-22.35c0-1.18,.1-2.36,.29-3.53,0,0,9.1,3.6,23.64-8.16,0,0,6.3-6.84,11.9-6.12h0c5.59,4.21,8.88,10.81,8.87,17.81Z" fill="#0a063e" stroke="#002346" stroke-miterlimit="10"></path>
  <path d="M379.42,128.51s.2-8.5,8.95-7.9c0,0,10.24,.82,14.69-.26,0,0-12.58,11.26-23.64,8.16Z" fill="#0a063e" stroke="#002346" stroke-miterlimit="10"></path>
  <path d="M223.68,230.32c3.55,11.82,16,18.53,27.83,14.99,11.82-3.55,18.53-16,14.99-27.83-.05-.18-.11-.35-.17-.53-.35-1.13-.8-2.23-1.33-3.29-2.92-5.86-8.27-10.14-14.63-11.71v-31.34h.29c1.05-.01,1.89-.86,1.9-1.91v-1.52c0-1.05-.85-1.9-1.9-1.9h-13.1c-1.05,0-1.89,.85-1.9,1.9v1.54c0,1.05,.85,1.89,1.9,1.9h.36v31.79c-4.48,1.5-8.37,4.37-11.11,8.22h0c-4.09,5.7-5.25,13-3.13,19.69Z" fill="#fff" stroke="#002346" stroke-miterlimit="10"></path>
  <path d="M223.68,230.32c3.55,11.82,16,18.53,27.83,14.99,11.82-3.55,18.53-16,14.99-27.83-.05-.18-.11-.35-.17-.53-.35-1.13-.8-2.23-1.33-3.29,0,0-7.6,6.16-25-.71,0,0-8.06-4.64-13.18-2.28h0c-4.08,5.69-5.24,12.97-3.14,19.65Z" fill="#5b07b0" stroke="#002346" stroke-linecap="round" stroke-linejoin="round"></path>
  <path d="M265,213.66s-2.72-8-10.9-4.86c0,0-9.53,3.85-14.1,4.15,0,0,15.34,6.96,25,.71Z" fill="#5b07b0" stroke="#002346" stroke-linecap="round" stroke-linejoin="round"></path>
  <path d="M281.09,307.76c4.18,12.42,17.63,19.11,30.06,14.93,12.05-4.05,18.76-16.87,15.23-29.08-.37-1.2-.84-2.37-1.41-3.49-3.08-6.24-8.74-10.82-15.49-12.51v-33.2h.31c1.1,0,2-.9,2-2v-1.62c0-1.1-.9-2-2-2h-13.9c-1.1,0-2,.9-2,2v1.63c0,1.1,.9,2,2,2h.39v33.76c-4.76,1.58-8.89,4.64-11.8,8.72h0c-4.35,6.03-5.6,13.76-3.39,20.86Z" fill="#fff" stroke="#002346" stroke-miterlimit="10"></path>
  <path d="M281.09,307.76c4.18,12.42,17.63,19.11,30.06,14.93,12.05-4.05,18.76-16.87,15.23-29.08-.37-1.2-.84-2.37-1.41-3.49,0,0-8.08,6.54-26.55-.75,0,0-8.55-4.93-14-2.43h0c-4.31,6.03-5.55,13.74-3.33,20.82Z" fill="#e6e7e8" stroke="#002346" stroke-miterlimit="10"></path>
  <path d="M324.97,290.08s-2.9-8.54-11.58-5.16c0,0-10.11,4.08-15,4.41,.03,0,16.32,7.38,26.58,.75Z" fill="#e6e7e8" stroke="#002346" stroke-miterlimit="10"></path>
  <path d="M193.1,274.61l25.06,2.86-5.68,35.14s-2.17,13.09-21.86,12.28l2.48-50.28Z" fill="#0a063e" stroke="#002346" stroke-miterlimit="10"></path>
  <rect x="254.25" y="258.42" width="71.96" height="6.31" fill="#fff" stroke="#002346" stroke-miterlimit="10"></rect>
  <rect x="266.84" y="238.65" width="6.31" height="129.94" fill="#fff" stroke="#002346" stroke-miterlimit="10"></rect>
  <circle cx="270.46" cy="262.42" r="6.58" fill="#e6e7e8" stroke="#002346" stroke-miterlimit="10"></circle>
  <circle cx="270.46" cy="262.39" r="2.34" fill="#fff" stroke="#002346" stroke-miterlimit="10"></circle>
  <rect x="259.62" y="360.99" width="83.41" height="10.28" fill="#e6e7e8" stroke="#002346" stroke-miterlimit="10"></rect>
  <rect x="259.62" y="364.02" width="83.41" height="2.1" fill="#e6e7e8" stroke="#002346" stroke-miterlimit="10"></rect>
  <polygon points="320.14 360.99 284.86 360.99 284.86 356.2 289.01 351.41 315.98 351.41 320.14 356.2 320.14 360.99" fill="#e6e7e8" stroke="#002346" stroke-miterlimit="10"></polygon>
  <rect x="288.66" y="345.26" width="27.32" height="6.15" fill="#fff" stroke="#002346" stroke-miterlimit="10"></rect>
  <path d="M302.48,345.26c-2.69-.22-4.7-2.57-4.48-5.27,.02-.27,.07-.54,.13-.8,.21-1.2,.66-2.34,1.33-3.35,1-1.66,2.84-4.88,3-7.5,.95,2.42,2.09,4.77,3.43,7,.7,.92,1.22,1.97,1.53,3.08,.75,2.74,.85,6.84-4.94,6.84Z" fill="#5b07b0" stroke="#002346" stroke-linecap="round" stroke-linejoin="round"></path>
  <rect x="273.79" y="578.23" width="64.14" height="22.37" fill="#fff" stroke="#002346" stroke-miterlimit="10"></rect>
  <rect x="204.41" y="560" width="22.37" height="64.14" transform="translate(-394.61 749.18) rotate(-84.43)" fill="#fff" stroke="#002346" stroke-miterlimit="10"></rect>
  <polygon points="177.51 641.89 178.51 632.41 298.12 638.54 298.12 644.96 177.51 641.89" fill="#fff" stroke="#002346" stroke-miterlimit="10"></polygon>
  <rect x="363.92" y="277.49" width="5.14" height="86.53" fill="#fff" stroke="#002346" stroke-miterlimit="10"></rect>
  <rect x="458.62" y="277.49" width="5.14" height="86.53" fill="#fff" stroke="#002346" stroke-miterlimit="10"></rect>
  <path d="M396.98,281.46c0-1.48-1.2-2.68-2.68-2.68h-13.64c-1.47,.03-2.64,1.26-2.61,2.73,.03,1.36,1.09,2.48,2.45,2.6v62.18c0,3.87,3.13,7,7,7s7-3.13,7-7v-62.18c1.39-.09,2.48-1.25,2.48-2.65Z" fill="#fff" stroke="#002346" stroke-miterlimit="10"></path>
  <path d="M394.48,308.24v38.05c0,3.87-3.13,7-7,7s-7-3.13-7-7v-41c2.49,.16,4.9,.95,7,2.3,2.18,1.05,4.66,1.28,7,.65Z" fill="#0a063e" stroke="#002346" stroke-miterlimit="10"></path>
  <path d="M423.34,281.46c0-1.48-1.2-2.68-2.68-2.68h-13.64c-1.47,.03-2.64,1.26-2.61,2.73,.03,1.36,1.09,2.48,2.45,2.6v62.18c-.33,3.85,2.53,7.24,6.38,7.57,3.85,.33,7.24-2.53,7.57-6.38,.03-.39,.03-.79,0-1.18v-62.18c1.41-.07,2.53-1.23,2.53-2.65Z" fill="#fff" stroke="#002346" stroke-miterlimit="10"></path>
  <path d="M420.81,308.24v38.05c.33,3.85-2.53,7.24-6.38,7.57-3.85,.33-7.24-2.53-7.57-6.38-.03-.39-.03-.79,0-1.18v-41c2.49,.16,4.9,.95,7,2.3,2.17,1.03,4.63,1.26,6.95,.65Z" fill="#5b07b0" stroke="#002346" stroke-linecap="round" stroke-linejoin="round"></path>
  <path d="M450.03,281.46c0-1.48-1.19-2.67-2.67-2.68h-13.65c-1.47,.04-2.64,1.27-2.6,2.74,.04,1.36,1.09,2.48,2.45,2.59v62.18c-.36,3.85,2.47,7.26,6.32,7.62,3.85,.36,7.26-2.47,7.62-6.32,.04-.43,.04-.86,0-1.29v-62.18c1.41-.07,2.53-1.23,2.53-2.65Z" fill="#fff" stroke="#002346" stroke-miterlimit="10"></path>
  <path d="M447.48,308.24v38.05c.36,3.85-2.47,7.26-6.32,7.62-3.85,.36-7.26-2.47-7.62-6.32-.04-.43-.04-.86,0-1.29v-41c2.49,.16,4.9,.95,7,2.3,2.16,1.04,4.62,1.27,6.94,.65Z" fill="#0a063e" stroke="#002346" stroke-miterlimit="10"></path>
  <path d="M557.04,124.89l2.71,12.72s-13.8,15.2-4.04,21.71c1.36,.91,2.95,1.41,4.58,1.59,4.41,.49,15.37,1.14,20.11-3.77l6.24-22s-9.76-15.46-8.81-28.75l-9.9-3.52-10.89,22.02Z" fill="#f1b2c0" stroke="#002346" stroke-miterlimit="10"></path>
  <path d="M586.6,135.2s46.22-2.44,48.33,32.27c0,0,.48,23.32-11.72,57.22l-8.68,23s17.36,42.31,16,91.66c0,0-46.91,19.51-62.91-22,0,0-4.34-13.92-4.07-36l2.17-52.16,4.41-33.58c1.22-9.19,3.35-18.23,6.35-27l3.89-11.43,6.23-21.98Z" fill="#5b07b0" stroke="#002346" stroke-miterlimit="10"></path>
  <path d="M570.65,192.16l34.93-55.05s-15.18-2.72-19-1.91l-13.86,46.41-2.07,10.55Z" fill="#fff" stroke="#002346" stroke-miterlimit="10"></path>
  <path d="M545.95,195.36l-2,73.38-1.36,24.1c-5.61,53.25-36.51,58.45-52.21,57.55-3.98-.23-6.27-4.57-4.31-8.04,12.53-22.12,20.81-73.81,20.81-73.81l9.98-64.14-23.7,9.56c-8.75,3.26-14.4,2.18-18-.2l-.07-.05c-3.12-2.23-5.3-5.55-6.1-9.31l-21.15-60.79,27.27-13.75,4.07,7.89,16.56,32.1,8.67-8.6c4.01-5,8.51-9.6,13.42-13.72h0c11.32-9.25,17.91-8.47,17.91-8.47l6.11,7.64,4.09,48.66Z" fill="#5b07b0" stroke="#002346" stroke-linecap="round" stroke-linejoin="round"></path>
  <path d="M520.72,158.41h10.7v45.78c0,2.13-1.73,3.86-3.86,3.86h-3c-2.13,0-3.86-1.73-3.86-3.86v-45.78h.02Z" fill="#fff" stroke="#002346" stroke-miterlimit="10"></path>
  <path d="M520.72,187.5h10.7v16.7c0,2.13-1.73,3.86-3.86,3.86h-3c-2.13,0-3.86-1.73-3.86-3.86v-16.7h.02Z" fill="#0a063e" stroke="#002346" stroke-miterlimit="10"></path>
  <rect x="518.58" y="154.39" width="14.99" height="5.3" fill="#fff" stroke="#002346" stroke-miterlimit="10"></rect>
  <path d="M554.39,455.95c0-.08,0-.17,0-.25,0,.09,0,.17,0,.26h0Z" fill="none" stroke="#ed1c24" stroke-miterlimit="10"></path>
  <path d="M527.16,559.51c.53,6.81-2.7,13.37-8.43,17.1l11.45-2.27,3.72-13.16s-4.67,1.05-6.74-1.67Z" fill="#f1b2c0" stroke="#002346" stroke-miterlimit="10"></path>
  <path d="M518.73,576.61c-10.58,6.76-22.33,11.48-34.65,13.92,0,0-8.35,2.47,0,8,0,0,19.82,18.63,42.24-4.14l-1.42-1.48,5.28-18.61-11.45,2.31Z" fill="#5b07b0" stroke="#002346" stroke-miterlimit="10"></path>
  <rect x="249.39" y="47.05" width="48" height="67" rx="24" ry="24" fill="#f1b2c0" stroke="#002346" stroke-miterlimit="10"></rect>
  <path d="M298.48,61.85h0c3.58-.32,6.13,3.36,4.61,6.62-1.22,2.62-3.2,5.47-6.43,7.63l-.74-4.19s-12-.57-18.51-7.09c0,0-.88,3.86,4.16,5.94,0,0-7.81,3.52-14.34-3.87-1.16-1.38-3.04-1.91-4.75-1.35-1.86,.63-4,2.16-5.17,5.69-.42,1.38-.62,2.81-.59,4.25,0,3.48-.39,12.26-4.24,12.89l-12.59,6.17s-27.32-46.04,5.08-45.51c0,0,3.59-23.1,24.91-12.7l14.6,8.6s4.94,3.64,11.88,5.26c5.46,1.27,6.93,8.46,2.26,11.57-.05,.03-.1,.06-.14,.09Z" fill="#002346" stroke="#002346" stroke-miterlimit="10"></path>
  <ellipse cx="246.45" cy="91.02" rx="7.06" ry="8.98" fill="#f1b2c0" stroke="#002346" stroke-miterlimit="10"></ellipse>
  <path d="M252.83,204.05c-7.65,3.48-15,7.57-22,12.22-10.67-2.19-15.69-19.41-15.69-19.41,0,0,6.1-6.75,9.16-14.39,.81-3.29,3.16-5.97,6.31-7.21,1.81-.63,3.75-.83,5.65-.6,.69,.07,1.2,.67,1.15,1.36-.15,1.83,.21,5.13,5,4.49,0,0,6.05-3.71,10-2.27h0c.77,.27,1.44,.75,1.94,1.39,0,0,2.39,2.41,0,6.32,0,0-1.31,3.05-.23,5.45,0,.01,5.71,9.66-1.29,12.65Z" fill="#f1b2c0" stroke="#002346" stroke-miterlimit="10"></path>
  <path d="M389.88,92.28h-.16c-2.09-.72-3.2-2.99-2.48-5.08,.28-.83,.83-1.54,1.56-2.03l9.12-6c1.08-.75,2.49-.84,3.66-.23,1.19,.68,2.19,2.2,1.48,5.59,0,0,6.75-1,6.58,6.62,0,0,6.79,4.87,3.31,10.26,0,0,4.48,3.69,1.86,8.31-.99,1.74-2.73,2.91-4.68,3.36l-6.65,1.53c-1.93,.47-3.93-.43-4.86-2.18-.94-1.79-1.55-4.06,.1-5.7,0,0-6.31-2.36-4-7.54-.05,0-4.24,.57-4.84-6.91Z" fill="#f1b2c0" stroke="#002346" stroke-miterlimit="10"></path>
  <rect x="361.35" y="360.99" width="106.69" height="10.28" fill="#bcbec0"></rect>
  <rect x="374.42" y="286.5" width="78.84" height="8.33" fill="#e6e7e8" stroke="#002346" stroke-miterlimit="10"></rect>
  <path d="M535.76,139.05h16.46s-8.57,11-6.27,56.31c0,0-8.66-15.03-10.19-56.31Z" fill="#fff" stroke="#002346" stroke-miterlimit="10"></path>
  <path d="M553.04,192.16l-4.22,19.68-14.85-9.86s-5.78,1.6-11,.16h0c-3.45-.82-6.22-3.39-7.3-6.77,0,0-6.62-8.41,0-15.29,0,0-5.59-8.41-1.52-9.42l2.49,.68,11.53,3.13-.17-.14c-.86-.78-4.79-4.6-3.27-8.93,.28-.84,1.19-1.3,2.04-1.02,.36,.12,.66,.36,.86,.69,.42,.74,.88,1.45,1.38,2.14h0c1.77,2.53,4.25,5.2,6.8,5.2,0,0,5.5,.27,8.23,10.2,2.5,3.62,5.54,6.84,9,9.55Z" fill="#f1b2c0" stroke="#002346" stroke-miterlimit="10"></path>
  <rect x="527.86" y="66.07" width="47" height="63" rx="23.5" ry="23.5" fill="#f1b2c0" stroke="#002346" stroke-miterlimit="10"></rect>
  <path d="M661.62,371.26h-117.2c0-4.77,1.89-9.35,5.27-12.71,.53-.53,1.09-1.02,1.68-1.48,3.14-2.46,7.01-3.8,11-3.8h81.22c9.94,0,18,8.06,18,18h.03Z" fill="#fff" stroke="#002346" stroke-miterlimit="10"></path>
  <path d="M587.65,276.97l6.28,6.28h0l-6.82,6.82c-.23,.23-.61,.23-.85,0l-5.43-5.43c-.23-.23-.23-.61,0-.85l6.82-6.82h0Z" fill="#e6e7e8" stroke="#002346" stroke-miterlimit="10"></path>
  <path d="M569,102.01c-3.26,1.83-4.65,6.37-2.97,9.71,.75,1.49,1.99,2.69,2.88,4.1s1.4,3.29,.57,4.74c-1.08,1.88-3.78,2.11-5.26,3.7-1.5,1.63-1.24,4.39,.21,6.06,1.44,1.68,3.77,2.38,5.98,2.37,2.36-.01,5.12-1.22,5.4-3.56" fill="none" stroke="#002346" stroke-linecap="round" stroke-linejoin="round"></path>
  <path d="M557.89,128.55l1,7c-13.53,2.18-18.17-5.07-18.17-5.07-14.84,4.8-17.02-10.04-17.02-10.04-5.67,3.49-13.1-6.55-13.1-6.55,3.49-2.62,2.18-9.6,2.18-9.6-1.31-7.86,5.24-6.98,5.24-6.98,0,0,6.98,1.31,4.37-9.6-2.62-10.91,6.11-13.97,6.11-13.97,3.16-1.84,4.57-3.84,5.19-5.14,1.06-2.2,2.25-4.35,3.78-6.25,9.5-11.84,18.96-6.94,18.96-6.94,9.6-9.6,16.59-2.18,16.59-2.18,1.75,2.62,6.11,2.62,6.11,2.62,7.86-.87,12.66,7.86,12.66,7.86,3.06,6.98,10.48,6.11,10.48,6.11,6.55,.44,8.29,3.06,10.04,13.53,1.75,10.48,8.73,10.48,8.73,10.48,6.55,.44,6.11,6.98,6.11,6.98,1.31,6.55,5.24,8.73,5.24,8.73-4.37,17.9-16.15,16.15-16.15,16.15-2.18,10.48-17.9,6.55-17.9,6.55-3.06,6.98-13.53,1.31-13.53,1.31-4.8,5.24-15.71,3.06-15.71,3.06,4.8-3.93,1.75-9.6,1.75-9.6-.31-.53-.57-1.06-.8-1.58-1.55-3.6-1.24-7.73,.56-11.21,1.94-3.75,4.28-7.64,4.28-7.64v-12l-3.17,1.88c-.16,1.3-1.18,2-2.39,2.36-3.59,1.07-7.5-.82-8.69-4.38-.55-1.64-.49-3-.49-3,0-4.8-5.67-6.98-5.67-6.98-7.42-2.62-7.42-10.91-7.42-10.91,0-5.67-8.16-3.96-8.16-3.96,0,0-11.07,6.05-11.03,20.03v16s-1.11,14.83,14.96,21.9c0,0,8.07,3.07,15.07,1.07Z" fill="#002346" stroke="#002346" stroke-miterlimit="10"></path>
  <ellipse cx="573.79" cy="100.72" rx="6.18" ry="7.32" fill="#f1b2c0" stroke="#002346" stroke-miterlimit="10"></ellipse>
  <path d="M609.14,163.61c-14.08,14-16.3,47-16.3,47l-39.36-20.63-6.23,29,48,30.64s9.22,7.59,19.25-1.9" fill="#5b07b0" stroke="#002346" stroke-linecap="round" stroke-linejoin="round"></path>
  <path d="M659.76,217.35l-16.84,16.84-5.16-5.17-2.83-2.81,16.84-16.85c.33-.32,.85-.32,1.18,0l6.81,6.81c.32,.33,.32,.85,0,1.18Z" fill="#e6e7e8" stroke="#002346" stroke-miterlimit="10"></path>
  <path d="M556.14,324.49v3.37c0,1.33,.5,2.62,1.4,3.6l20.15,21.81h49.26s45.49-37.34,3.08-98.57l18.08-17.44-15.35-16.08-51.65,52,14.37,15.31,20.18-19.76s11.36,11,12.19,32.67c.6,12.31-3.13,24.43-10.55,34.27-6,7.8-14.61,14.12-23.88,5.58l-18.47-16.76h-18.81Z" fill="#fff" stroke="#002346" stroke-miterlimit="10"></path>
  <line x1="533.9" y1="561.18" x2="553.89" y2="465.55" fill="none" stroke="#002346" stroke-linecap="round" stroke-linejoin="round"></line>
  <path d="M464.5,100.34c.39,.21-7.61-3.79-12.61-.79" fill="none" stroke="#002346" stroke-linecap="round" stroke-linejoin="round"></path>
  <path d="M463.5,105.34c.39,.21-7.61-3.79-12.61-.79" fill="none" stroke="#002346" stroke-linecap="round" stroke-linejoin="round"></path>
  <line x1="527.45" y1="174.26" x2="536.39" y2="177.05" fill="none" stroke="#002346" stroke-linecap="round" stroke-linejoin="round"></line>
  <line x1="515.67" y1="180.08" x2="530.89" y2="182.55" fill="none" stroke="#002346" stroke-linecap="round" stroke-linejoin="round"></line>
  <line x1="512.68" y1="186.95" x2="528.89" y2="189.55" fill="none" stroke="#002346" stroke-linecap="round" stroke-linejoin="round"></line>
  <line x1="515.67" y1="195.37" x2="528.89" y2="197.55" fill="none" stroke="#002346" stroke-linecap="round" stroke-linejoin="round"></line>
  <rect x="538.69" y="322.43" width="47.55" height="4.1" fill="#e6e7e8" stroke="#002346" stroke-miterlimit="10"></rect>
  <polygon points="253.49 381.93 234.92 649.13 244.2 649.25 273.14 381.93 253.49 381.93" fill="#fff" stroke="#002346" stroke-miterlimit="10"></polygon>
  <polygon points="644.57 381.93 663.14 649.13 653.86 649.25 624.92 381.93 644.57 381.93" fill="#fff" stroke="#002346" stroke-miterlimit="10"></polygon>
  <rect x="215.47" y="371.27" width="481.18" height="15.65" rx="7.82" ry="7.82" fill="#e6e7e8" stroke="#002346" stroke-miterlimit="10"></rect>
  <line x1="389.72" y1="92.28" x2="403.06" y2="84.53" fill="#5b07b0" stroke="#002346" stroke-linecap="round" stroke-linejoin="round"></line>
  <line x1="394.72" y1="99.19" x2="409.64" y2="91.15" fill="#5b07b0" stroke="#002346" stroke-linecap="round" stroke-linejoin="round"></line>
  <line x1="398.72" y1="106.73" x2="412.95" y2="101.41" fill="#5b07b0" stroke="#002346" stroke-linecap="round" stroke-linejoin="round"></line>
  <line x1="196.89" y1="179.55" x2="196.3" y2="211.11" fill="none" stroke="#002346" stroke-linecap="round" stroke-linejoin="round"></line>
  <path d="M186.89,220.55l27-27s11,16,19.17,23.22c0,0-24.05,40.19-39.42,49.62,0,0-15.14,10.79-21.93-11.4" fill="#fff" stroke="#002346" stroke-linecap="round" stroke-linejoin="round"></path>
</svg>
