<?xml version="1.0" encoding="UTF-8"?>
<svg xmlns="http://www.w3.org/2000/svg" id="a" width="865.76" height="682.89" viewBox="0 0 865.76 682.89">
  <path d="M786.97,543.23H78.79c-.28,0-.5-.22-.5-.5s.22-.5,.5-.5H786.97c.28,0,.5,.22,.5,.5s-.22,.5-.5,.5Z" fill="#002346"></path>
  <g>
    <path d="M218.81,45.63l-20.24-2.09c-1.31-.14-2.48,.81-2.62,2.1-.14,1.3,.81,2.46,2.12,2.59l1.57,.16-3.07,29.22-5.65,53.75c-.46,4.4,2.76,8.34,7.2,8.8s8.41-2.74,8.87-7.14l5.2-49.5,3.52-33.47,2.6,.27c1.31,.14,2.48-.81,2.62-2.1,.14-1.3-.81-2.46-2.12-2.59Z" fill="#fff"></path>
    <path d="M198.96,140.71c-.3,0-.6-.02-.9-.05-2.29-.24-4.35-1.35-5.79-3.13-1.43-1.76-2.08-3.97-1.85-6.22l8.67-82.47-1.07-.11c-.77-.08-1.46-.45-1.95-1.05-.48-.59-.7-1.34-.62-2.09,.16-1.57,1.59-2.71,3.16-2.55l20.24,2.09c.77,.08,1.46,.45,1.95,1.05,.48,.59,.7,1.34,.62,2.09-.16,1.57-1.57,2.71-3.16,2.55l-2.1-.22-8.67,82.47c-.46,4.37-4.19,7.63-8.52,7.63Zm-.65-96.69c-.95,0-1.77,.71-1.87,1.67-.05,.49,.09,.97,.4,1.36,.32,.39,.77,.63,1.27,.69l2.07,.21-8.77,83.47c-.21,1.98,.37,3.93,1.63,5.48,1.28,1.57,3.1,2.56,5.12,2.77,4.17,.43,7.89-2.57,8.32-6.69l8.77-83.46,3.1,.32c1.02,.1,1.96-.64,2.07-1.66,.05-.49-.09-.97-.4-1.36-.32-.39-.77-.63-1.27-.69h0l-20.24-2.09c-.07,0-.13,0-.2,0Z" fill="#002346"></path>
  </g>
  <g>
    <path d="M212.2,83.53l-5.2,49.5c-.46,4.4-4.43,7.6-8.87,7.14-4.44-.46-7.66-4.4-7.2-8.8l5.65-53.75c2.09-.58,5.55-.83,8.84,2.16,0,0,2.17,2.47,6.79,3.74Z" fill="#5b07b0"></path>
    <path d="M198.96,140.71c-.3,0-.6-.02-.9-.05-2.29-.24-4.35-1.35-5.79-3.13-1.43-1.76-2.08-3.97-1.85-6.22l5.68-54.08,.33-.09c1.94-.54,5.74-.97,9.31,2.28,.06,.06,2.19,2.41,6.59,3.63l.41,.11-.04,.42-5.21,49.5c-.46,4.37-4.19,7.63-8.52,7.63Zm-1.94-62.69l-5.61,53.4c-.21,1.98,.37,3.93,1.63,5.49,1.28,1.57,3.09,2.55,5.12,2.76,4.15,.43,7.89-2.57,8.32-6.69l5.16-49.08c-4.43-1.33-6.53-3.67-6.62-3.77-2.86-2.6-5.87-2.62-8-2.1Z" fill="#002346"></path>
  </g>
  <g>
    <path d="M151.71,188.01s.2-6.09,7.36-6.01c0,0,42.87,8.59,37.24,22.33,0,0-27.71,7.73-44.6-16.32Z" fill="#5b07b0"></path>
    <path d="M186.02,205.97c-9.75,0-24.33-2.87-34.72-17.67l-.1-.14v-.17c0-.07,.33-6.55,7.87-6.5,1.38,.27,31.71,6.45,37.34,16.95,1.07,2,1.19,4.04,.36,6.08l-.09,.23-.24,.07c-.11,.03-4.32,1.16-10.42,1.16Zm-33.8-18.1c15.67,22.13,40.99,16.7,43.72,16.04,.62-1.69,.49-3.32-.4-4.99-5.4-10.08-36.25-16.37-36.56-16.43h-.11c-5.83,0-6.56,4.45-6.64,5.38Z" fill="#002346"></path>
  </g>
  <g>
    <path d="M311.93,276.91l6.93-5.58,3.76,7.3s10.5,11.81,21.78,20.51c0,0,11.7,8.27,11.7,19.22v14.81c0,1.18,.96,2.13,2.14,2.14h0c1.2,0,2.18-.96,2.17-2.15l-.12-17.64s.13-7.68,3.59-10.68l30.1-37.79,9.65,11.07s-5.54,7.82-5.1,21.14c0,0-2.17,53.25,5.1,88.56,0,0,10.49,56.6,26.07,97.82l20.2,57.12h-154.87l-28.42-191.75,45.31-74.08Z" fill="#0a063e"></path>
    <path d="M450.62,543.24h-156.01l-.06-.43-28.45-191.93,.09-.15,45.36-74.15,7.47-6.02,4.01,7.79c.74,.82,10.92,12.1,21.67,20.4,.47,.33,11.9,8.53,11.9,19.61v14.81c0,.9,.74,1.63,1.65,1.64h.01c.45,0,.86-.17,1.18-.49,.31-.31,.48-.73,.48-1.17l-.12-17.64c0-.33,.17-7.95,3.77-11.07l30.41-38.19,10.3,11.82-.23,.32c-.05,.08-5.43,7.86-5.01,20.83-.02,.57-2.08,53.63,5.09,88.47,.11,.58,10.66,57.03,26.05,97.75l20.44,57.79Zm-155.14-1h153.73l-19.96-56.45c-15.42-40.79-25.99-97.33-26.09-97.9-7.2-34.95-5.13-88.14-5.11-88.67-.39-11.94,3.93-19.44,4.98-21.07l-9-10.33-29.72,37.32c-3.32,2.89-3.48,10.31-3.49,10.38l.12,17.62c0,.71-.27,1.38-.77,1.88-.51,.51-1.23,.8-1.91,.78-1.45-.01-2.64-1.2-2.64-2.64v-14.81c0-10.57-11.38-18.73-11.49-18.81-11.2-8.64-21.76-20.46-21.86-20.58l-.07-.1-3.48-6.75-6.38,5.14-45.17,73.85,28.33,191.14Z" fill="#002346"></path>
  </g>
  <g>
    <path d="M363.89,304.82c-3.9,3.87-3.59,10.68-3.59,10.68v17.69c0,.58-.23,1.1-.61,1.47-.38,.38-.91,.61-1.49,.61-1.16,0-2.1-.93-2.1-2.08v-15.49c-.3-8.77-7.48-15.42-11.7-18.57-3.51-2.63-6.84-5.51-9.99-8.56-6.33-6.15-11.79-11.95-11.79-11.95v-31.79l9.47-7.64,44.08-35.6,7.24-1.97,3.16,9.32c-.29,6.18,1.15,10.13,1.15,10.13l2.6,50.8-26.41,32.94Z" fill="#f2b3c1"></path>
    <path d="M358.2,335.78c-1.43,0-2.6-1.16-2.6-2.58v-15.49c-.29-8.55-7.33-15.06-11.5-18.17-3.41-2.56-6.79-5.45-10.03-8.6-6.27-6.08-11.75-11.91-11.8-11.96l-.14-.14v-32.23l9.65-7.79,44.16-35.66,7.79-2.12,3.34,9.85v.09c-.29,6,1.1,9.9,1.12,9.94l.03,.15,2.61,50.99-26.57,33.13c-3.69,3.66-3.45,10.24-3.45,10.31v17.71c0,.69-.27,1.34-.76,1.83s-1.14,.76-1.84,.76Zm-35.08-57.35c.88,.93,5.93,6.25,11.64,11.79,3.22,3.12,6.56,5.99,9.94,8.52,4.31,3.23,11.59,9.98,11.9,18.96v15.51c0,.87,.72,1.58,1.6,1.58,.43,0,.83-.17,1.13-.46,.3-.3,.47-.7,.47-1.12v-17.69c-.01-.26-.26-7.04,3.72-11.02l26.28-32.77-2.58-50.54c-.2-.59-1.42-4.39-1.16-10.16l-2.97-8.78-6.68,1.82-53.28,43.03v31.35Z" fill="#002346"></path>
  </g>
  <path d="M377.95,224.44s-12.26,34.38-55.33,39.63v-17.23l9.47-7.64,45.86-14.76Z" fill="#002346"></path>
  <g>
    <path d="M151.71,188.01s12.99,21.9,44.6,16.32l-35.51,85.03,60.87-8.23c3.31-.45,6.54-1.38,9.59-2.74,7.56-3.36,26.11-9.09,52.52-.29l28.15-1.2,3.03,14.17s-8.66,94.91-13.86,118.1c0,0-8.23,85.03-6.06,133.56h-61.71l13.21-112.09s3.9-50.67,2.6-69.14c0,0-11.26-8.16-38.11-10.31,0,0-115.18-9.02-115.18-39.08,0,0-2.17-15.89,11.69-39.51l44.17-84.6Z" fill="#5b07b0"></path>
    <path d="M295.56,543.24h-62.79l.07-.56,13.21-112.09c.04-.48,3.84-50.39,2.61-68.81-1.58-1.04-13.14-8.12-37.66-10.09-4.72-.37-115.64-9.4-115.64-39.58-.02-.09-2.02-16.27,11.76-39.76l44.57-85.38,.46,.77c.13,.22,13.2,21.53,44.08,16.08l.9-.16-35.52,85.07,60.01-8.12c3.22-.44,6.4-1.34,9.45-2.7,6.92-3.08,25.89-9.27,52.79-.33l28.48-1.21,3.14,14.66v.08c-.09,.95-8.73,95.21-13.87,118.16-.07,.79-8.19,85.49-6.05,133.43l.02,.52Zm-61.67-1h60.62c-2.06-48.1,6-132.26,6.09-133.11,5.08-22.68,13.56-114.87,13.85-118.02l-2.93-13.68-27.82,1.18-.09-.03c-26.62-8.87-45.34-2.77-52.16,.27-3.13,1.4-6.41,2.33-9.72,2.78l-61.74,8.35,.34-.8,35.16-84.19c-27.67,4.48-41.11-12.24-43.74-15.98l-43.78,83.85c-13.6,23.19-11.66,39.05-11.64,39.21,0,29.33,113.58,38.56,114.73,38.65,26.68,2.13,37.9,10.06,38.36,10.4l.19,.14,.02,.23c1.29,18.29-2.56,68.71-2.6,69.21l-13.14,111.55Z" fill="#002346"></path>
  </g>
  <path d="M148.25,307.03c-.13,0-.26-.05-.35-.15-.2-.19-.2-.51,0-.7,.05-.05,4.82-4.84,12.49-17.09,.15-.23,.45-.3,.69-.16,.23,.14,.31,.45,.16,.68-7.74,12.36-12.43,17.07-12.63,17.27-.1,.1-.23,.15-.35,.15Z" fill="#002346"></path>
  <path d="M249.14,362c-.28,0-.5-.22-.5-.5v-10.52c0-.27,.22-.5,.5-.5s.5,.22,.5,.5v10.52c0,.27-.22,.5-.5,.5Z" fill="#002346"></path>
  <path d="M307.15,367.54c-.22,0-.42-.15-.48-.37l-23.36-88.94c-.07-.26,.09-.54,.36-.6,.27-.07,.54,.09,.61,.35l23.36,88.94c.07,.26-.09,.54-.36,.6-.04,.01-.08,.02-.13,.02Z" fill="#002346"></path>
  <path d="M295.39,493.22c-.27,0-.49-.21-.5-.48-1.17-52.46-14.89-119.68-19.06-139.03-.32-1.49,.03-3.05,.96-4.27,.93-1.22,2.35-1.97,3.89-2.06l21.08-1.23c.28-.02,.51,.19,.53,.47s-.19,.51-.47,.52l-21.08,1.23c-1.25,.07-2.4,.68-3.16,1.67-.76,.99-1.04,2.25-.78,3.46,4.18,19.37,17.91,86.67,19.09,139.22,0,.27-.21,.5-.49,.51,0,0,0,0-.01,0Z" fill="#002346"></path>
  <path d="M331.73,322.17c-.08,0-.16-.02-.24-.06-7.13-3.8-16.6-29.76-17-30.87-.09-.26,.04-.54,.3-.63,.26-.09,.55,.04,.64,.3,.09,.26,9.3,25.5,16.06,30.04,1.09-2.52,5.93-12.77,13.14-14.86,2.94-.85,5.89-.23,8.79,1.84,.22,.16,.27,.47,.11,.69-.16,.22-.47,.27-.7,.11-2.63-1.88-5.29-2.45-7.92-1.69-7.6,2.2-12.67,14.69-12.72,14.81-.05,.13-.16,.23-.29,.28-.06,.02-.11,.03-.17,.03Z" fill="#002346"></path>
  <path d="M389.01,324.64c-.08,0-.15-.02-.22-.05-6.92-3.43-15.36-11.76-15.72-12.12-3.99-4.89-6.71-6.05-8.3-6.17-1.21-.09-1.78,.41-1.8,.43-.2,.18-.52,.17-.7-.03-.19-.2-.18-.51,.02-.69,.03-.03,.87-.81,2.49-.71,2.6,.16,5.64,2.35,9.03,6.5,.05,.05,8.17,8.06,14.85,11.6,.78-3.53,4.76-20.86,9.62-30.24,.13-.24,.43-.34,.67-.21,.25,.13,.34,.42,.22,.67-5.34,10.3-9.63,30.42-9.67,30.62-.03,.15-.13,.28-.27,.34-.07,.03-.14,.05-.22,.05Z" fill="#002346"></path>
  <path d="M349.39,543.23h0c-.28,0-.5-.22-.5-.5,.22-114.23,3.71-144.23,3.74-144.52,3.91-34.96,5.09-62.66,5.11-62.94,.01-.27,.27-.48,.52-.48,.28,.01,.49,.24,.48,.52-.01,.28-1.19,28.02-5.11,63.01-.04,.29-3.52,30.27-3.74,144.41,0,.27-.22,.49-.5,.49Z" fill="#002346"></path>
  <g>
    <path d="M402.86,279.38s14.72,6.11,54.13,18.14c0,0,28.15,1.72,38.97,46.81l19.92,76.01,25.12,1.72s-22.08,19.33-5.2,51.53l-52.4-1.72s-15.04,2.56-25-52.59c-.01-.08-.13-.08-.13,0l-.62,27.84c-.15,6.74,.59,13.47,2.22,20.01l18.74,75.6h-28.7c-37.58-44.06-59.87-98.95-63.56-156.54l-3.4-53.03-2.27-39.77,22.19-14.02Z" fill="#5b07b0"></path>
    <path d="M479.25,543.24h-29.57l-.15-.18c-37.39-43.84-60-99.54-63.68-156.84l-3.4-53.03-2.29-40.06,22.65-14.31,.24,.1c.15,.06,15.15,6.24,54.03,18.11,1.53,.14,28.83,3.3,39.36,47.19l19.83,75.66,25.96,1.78-.9,.79c-.22,.19-21.58,19.46-5.08,50.92l.4,.76-53.21-1.75c-1.17,.14-15.04,.85-24.75-48.93l-.53,23.68c-.15,6.69,.59,13.38,2.2,19.88l18.9,76.22Zm-29.11-1h27.83l-18.59-74.98c-1.63-6.59-2.38-13.36-2.23-20.14l.63-28.29,.5-.1c.3-.01,.56,.18,.61,.47,9.71,53.77,24.28,52.22,24.43,52.19l51.64,1.68c-14.31-28.14,1.06-46.62,4.89-50.58l-24.36-1.67-.09-.35-19.92-76.01c-10.61-44.18-38.24-46.42-38.52-46.44l-.11-.02c-36.32-11.08-51.86-17.22-53.93-18.06l-21.72,13.72,2.25,39.47,3.4,53.02c3.66,57.01,26.13,112.43,63.29,156.08Zm8.64-122.94h0s0,0,0,0Z" fill="#002346"></path>
  </g>
  <path d="M401.75,377.34s-.03,0-.05,0c-.27-.02-.48-.27-.45-.54,.02-.26,2.57-26.45,15.03-51.16,.11-.23,11.39-24.43,13.23-36.73,.04-.27,.29-.46,.57-.42,.27,.04,.46,.29,.42,.56-1.86,12.44-13.21,36.77-13.32,37.01-12.37,24.55-14.91,50.56-14.93,50.82-.02,.26-.24,.45-.5,.45Z" fill="#002346"></path>
  <path d="M429.71,486.12c-.22,0-.42-.15-.48-.37-14.71-53.89-1.28-117.52,.16-124.03-3.3-.42-19.6-2.89-22.76-10.85-.1-.25,.03-.54,.28-.64,.26-.1,.55,.02,.65,.28,3.22,8.12,22.3,10.28,22.49,10.3,.14,.02,.27,.09,.35,.21,.08,.12,.11,.26,.08,.4-.16,.67-15.67,67.75-.29,124.08,.07,.26-.09,.54-.35,.61-.04,.01-.09,.02-.13,.02Z" fill="#002346"></path>
  <path d="M458.29,419.12s-.03,0-.04,0c-.27-.02-.48-.26-.46-.54,3.43-39.54,13.78-71.51,13.88-71.83,.08-.26,.37-.4,.63-.32,.26,.08,.41,.36,.32,.62-.1,.32-10.42,32.19-13.83,71.61-.02,.26-.24,.45-.5,.45Z" fill="#002346"></path>
  <path d="M492.07,449.61c-.08,0-.17-.02-.25-.07-.24-.14-.32-.44-.19-.68,.28-.49,.56-2.11,.89-4,1.09-6.31,3.12-18.06,10.64-23.1,3.49-2.34,7.81-2.99,12.83-1.91,.27,.06,.44,.32,.38,.59s-.33,.44-.59,.38c-4.74-1.01-8.8-.42-12.06,1.76-7.16,4.8-9.15,16.28-10.21,22.45-.38,2.22-.64,3.69-1,4.32-.09,.16-.26,.25-.43,.25Z" fill="#002346"></path>
  <g>
    <path d="M155.83,192.64l5.2-20.92c.97-3.88,.41-7.98-1.54-11.48l-18.6-33.21s-5.63-8.59,2.6-15.46l6.06-6.01s-1.3-17.21,12.99-13.76c0,0-.43-10.29,14.72-6.85l20.79-24.91-1.73,18.47-6.5,9.88,10.11,1.94c1.96,.38,3.06,2.49,2.2,4.28-1.36,2.85-4.29,6.2-10.51,5.41,0,0,1.67,4.69-1.8,6.41l3.46,3.01-2.14,21.17c-.15,1.51-.02,3.05,.5,4.48,1.15,3.18,3.56,4.67,6.95,4.86h0c4.06,.23,7.59-2.73,8.03-6.75l4.41-37.94s1.73-3.85,5.18-5.06c2.54-.89,5.19,1.07,5.08,3.74l-1.41,35.48c-.03,.87-.23,1.72-.57,2.52l-31.33,73.16s-19.8,1.63-32.15-12.45Z" fill="#f2b3c1"></path>
    <path d="M186.23,205.63c-5.21,0-20.58-1.05-30.77-12.67l-.17-.2,5.27-21.17c.94-3.77,.41-7.72-1.5-11.12l-18.6-33.21c-.04-.06-5.76-9.01,2.71-16.09l5.87-5.82c-.07-1.44-.22-8.85,4.1-12.52,2.21-1.88,5.22-2.44,8.93-1.67,.1-1.14,.56-3.56,2.7-5.35,2.6-2.17,6.74-2.66,12.31-1.44l21.62-25.91-1.89,20.19-6.15,9.36,9.37,1.8c1.1,.21,2.02,.9,2.52,1.9,.49,.98,.51,2.11,.04,3.09-1.4,2.93-4.31,6.24-10.27,5.77,.41,1.76,.42,4.45-1.64,5.91l3.14,2.72-2.17,21.43c-.15,1.53,0,2.96,.47,4.26,1.04,2.86,3.17,4.34,6.51,4.53,3.81,.23,7.09-2.55,7.51-6.3l4.45-38.08c.07-.17,1.85-4.06,5.47-5.33,1.35-.47,2.85-.25,4,.61,1.15,.85,1.8,2.21,1.75,3.62l-1.41,35.48c-.04,.93-.24,1.84-.61,2.69l-31.45,73.44-.3,.02s-.68,.05-1.8,.05Zm-29.85-13.13c11.23,12.59,28.78,12.22,31.26,12.1l31.21-72.88c.32-.74,.5-1.53,.53-2.34l1.41-35.48c.04-1.1-.44-2.12-1.34-2.78-.9-.67-2.02-.84-3.07-.47-2.96,1.04-4.61,4.23-4.86,4.73l-4.4,37.85c-.47,4.27-4.21,7.44-8.56,7.19-3.74-.21-6.23-1.96-7.39-5.19-.52-1.44-.7-3.02-.53-4.7l2.12-20.91-3.84-3.33,.67-.33c3.02-1.5,1.61-5.62,1.55-5.79l-.27-.76,.8,.1c5.89,.75,8.68-2.38,10-5.13,.34-.71,.33-1.51-.03-2.21-.36-.71-1.02-1.21-1.82-1.36l-10.84-2.08,6.84-10.4,1.57-16.74-19.95,23.91-.3-.07c-5.4-1.22-9.35-.83-11.75,1.17-2.47,2.06-2.37,5.15-2.37,5.18l.03,.66-.64-.16c-3.66-.89-6.57-.44-8.64,1.32-4.3,3.65-3.74,11.83-3.74,11.92l.02,.23-6.23,6.17c-7.81,6.53-2.75,14.5-2.53,14.83l18.62,33.24c2.03,3.62,2.59,7.83,1.59,11.85l-5.14,20.66Z" fill="#002346"></path>
  </g>
  <path d="M157.77,127.1c-.16,0-.32-.08-.42-.23-1.97-3.01-2.63-6.51-1.92-10.12,.6-3.02,3.57-5.04,6.64-4.51l5.74,.99c4.88,0,8.74-.62,11.39-1.84,2.58-1.18,3.09-3.64,2.74-5.39-.36-1.79-1.81-3.94-4.73-4.07l-19.4-.86c-1.82-.08-3.59,.63-4.83,1.96l-3.08,3.29c-.19,.2-.5,.21-.71,.03-.2-.19-.21-.5-.03-.7l3.08-3.29c1.45-1.54,3.5-2.37,5.61-2.28l19.4,.86c3.27,.15,5.2,2.55,5.66,4.87,.55,2.76-.75,5.3-3.3,6.48-2.78,1.28-6.78,1.92-11.89,1.92l-5.83-1c-2.54-.44-4.99,1.23-5.49,3.73-.67,3.4-.07,6.56,1.77,9.39,.15,.23,.08,.54-.15,.69-.08,.05-.18,.08-.27,.08Z" fill="#002346"></path>
  <path d="M184.64,108.44c-1.3,0-2.14-.2-2.21-.21-.27-.07-.43-.33-.37-.6,.07-.27,.34-.43,.6-.36,.03,0,3.27,.76,6.95-.87,.25-.11,.55,0,.66,.25,.11,.25,0,.54-.25,.65-2.07,.91-3.99,1.14-5.38,1.14Z" fill="#002346"></path>
  <path d="M191.62,100.94s-.09,0-.14-.02l-29.08-8.21c-.27-.08-.42-.35-.34-.61,.08-.26,.35-.41,.62-.34l29.08,8.21c.27,.08,.42,.35,.34,.61-.06,.22-.26,.36-.48,.36Z" fill="#002346"></path>
  <path d="M189.82,89.3s-.09,0-.13-.02l-12.56-3.44c-.27-.07-.42-.35-.35-.61s.35-.42,.61-.35l12.56,3.44c.27,.07,.42,.35,.35,.61-.06,.22-.26,.36-.48,.36Z" fill="#002346"></path>
  <path d="M182.55,152.43c-.07,0-.15-.02-.22-.05-.25-.12-.35-.42-.23-.66,.23-.48,5.78-11.74,12.41-13.11,.27-.06,.54,.12,.59,.38,.06,.27-.12,.53-.39,.59-6.15,1.27-11.66,12.46-11.72,12.57-.09,.18-.26,.28-.45,.28Z" fill="#002346"></path>
  <g>
    <path d="M530.62,459.93s5.39,3.36,13.03,4.66c4.22,.72,8.55,.28,12.58-1.15l2.6-.93,1.65-5.66,.43-40.58s-12.12,1.5-19.92,5.79c0,0-16,13.04-10.38,37.87Z" fill="#f2b3c1"></path>
    <path d="M547.69,465.43c-1.39,0-2.77-.11-4.12-.34-7.66-1.3-12.99-4.59-13.21-4.73l-.18-.11-.05-.2c-5.62-24.84,10.39-38.23,10.55-38.37,7.86-4.34,20.05-5.89,20.17-5.9l.57-.07-.46,41.28-1.73,5.91-2.84,1.01c-2.83,1.01-5.78,1.52-8.7,1.52Zm-16.63-5.81c.98,.58,5.98,3.35,12.68,4.48,4.06,.69,8.32,.3,12.32-1.13l2.36-.84,1.56-5.35,.43-39.93c-2.48,.36-12.5,1.98-19.17,5.66-.08,.08-15.53,13.03-10.18,37.11Z" fill="#002346"></path>
  </g>
  <g>
    <path d="M607.08,533.72h-72.95c-8.63,0-13.98-9.32-9.59-16.68l21.98-36.81,13.97-23.38,.86-69.15h-1.82c-2.38,0-4.3-1.92-4.3-4.29,0-1.19,.48-2.26,1.26-3.03,.77-.78,1.85-1.26,3.04-1.26h22.15c2.37,0,4.3,1.92,4.3,4.29,0,1.19-.48,2.26-1.26,3.03-.78,.78-1.86,1.26-3.04,1.26h-1.11v69.58l11.86,19.63,24.21,40.08c4.44,7.37-.9,16.73-9.56,16.73Z" fill="#fff"></path>
    <path d="M607.08,534.22h-72.95c-4.26,0-8.05-2.2-10.14-5.88-2.07-3.64-2.02-7.96,.12-11.55l35.88-60.08,.85-68.51h-1.31c-2.65,0-4.8-2.15-4.8-4.79,0-1.29,.5-2.49,1.41-3.38,.89-.9,2.1-1.4,3.39-1.4h22.15c2.65,0,4.8,2.15,4.8,4.79,0,1.29-.5,2.49-1.41,3.39-.91,.91-2.11,1.41-3.39,1.41h-.61v68.94l36,59.59c2.17,3.6,2.23,7.93,.17,11.59-2.09,3.69-5.88,5.9-10.15,5.9Zm-47.55-154.6c-1.02,0-1.98,.39-2.68,1.11-.72,.71-1.12,1.66-1.12,2.68,0,2.09,1.7,3.79,3.8,3.79h2.33v.51s-.87,69.28-.87,69.28l-.07,.12-35.95,60.19c-1.96,3.28-2,7.22-.11,10.55,1.91,3.37,5.38,5.38,9.27,5.38h72.95c3.9,0,7.38-2.02,9.28-5.39,1.89-3.34,1.83-7.29-.15-10.58l-36.14-59.83v-70.22h1.61c1.01,0,1.97-.4,2.69-1.11,.72-.71,1.11-1.66,1.11-2.68,0-2.09-1.71-3.79-3.8-3.79h-22.15Z" fill="#002346"></path>
  </g>
  <g>
    <path d="M549.29,419.85s4.65,5.51,23.4,6.04c1.86,.05,3.22,1.8,2.74,3.59-.99,3.64-4.93,8.58-19.27,7.19l-7.79-.86s-.87,6.87-8.23,8.59" fill="#f2b3c1"></path>
    <path d="M540.13,444.89c-.23,0-.43-.16-.49-.39-.06-.27,.1-.54,.37-.6,6.92-1.61,7.81-7.9,7.84-8.17,.03-.27,.27-.47,.55-.43l7.79,.86c14.3,1.39,17.87-3.68,18.73-6.82,.19-.68,.05-1.4-.38-1.97-.45-.6-1.14-.96-1.89-.98-18.76-.53-23.57-5.98-23.77-6.22-.18-.21-.15-.53,.06-.7,.21-.18,.52-.15,.7,.06,.06,.07,4.84,5.35,23.03,5.86,1.06,.03,2.04,.54,2.67,1.39,.61,.82,.81,1.86,.54,2.83-.94,3.45-4.76,9.02-19.8,7.56l-7.34-.81c-.37,1.65-2.07,7.02-8.52,8.53-.04,0-.08,.01-.11,.01Z" fill="#002346"></path>
  </g>
  <g>
    <path d="M580.57,412.3v17.79s-5.16,6.72-5.04,10.52c0,0-38.85,5.51-20.23,14.53,0,0-5.2,6.87,11.26,9.02,0,0-1.58,4.4,9.87,5.13,5.44,.35,10.88-1.25,15.08-4.7,3.52-2.9,6.01-6.87,1.89-11.17,0,0,2.6-7.3-.87-10.74,0,0,7.36-9.88,4.33-15.03,0,0,12.02-16.09-16.29-15.35Z" fill="#f2b3c1"></path>
    <path d="M577.92,469.83c-.51,0-1.02-.02-1.53-.05-5.29-.34-8.62-1.49-9.89-3.43-.45-.69-.54-1.33-.52-1.77-6.6-.93-10.52-2.75-11.65-5.44-.68-1.61-.14-3.07,.25-3.8-3.53-1.79-5.1-3.58-4.81-5.45,.91-5.84,21.32-9.14,25.26-9.72,.22-3.69,4.31-9.28,5.04-10.25v-18.11h.49c10.23-.28,16.51,1.62,18.59,5.64,2.14,4.14-.88,9.03-1.7,10.23,2.5,4.93-3,13.16-4.27,14.96,2.88,3.33,1.23,9.25,.79,10.65,1.47,1.61,2.16,3.31,2.06,5.04-.13,2.21-1.54,4.44-4.2,6.63-3.84,3.17-8.73,4.87-13.9,4.87Zm3.15-57.04v17.47l-.1,.13c-.05,.07-5.05,6.62-4.94,10.2v.45s-.43,.06-.43,.06c-6.67,.95-24.12,4.4-24.83,8.94-.22,1.42,1.42,3.03,4.75,4.64l.54,.26-.36,.49c-.05,.06-1.17,1.6-.43,3.33,.7,1.65,3.23,3.83,11.35,4.89l.62,.08-.21,.58s-.22,.7,.33,1.52c.76,1.13,2.96,2.55,9.1,2.95,5.47,.35,10.71-1.28,14.73-4.59,2.44-2.01,3.73-4,3.84-5.92,.09-1.52-.58-3.04-1.99-4.51l-.21-.22,.1-.29c.02-.07,2.45-7.04-.75-10.21l-.31-.31,.26-.35c.07-.1,7.13-9.67,4.3-14.48l-.17-.29,.2-.27c.04-.05,3.92-5.34,1.8-9.44-1.86-3.59-7.64-5.3-17.19-5.12Z" fill="#002346"></path>
  </g>
  <path d="M578.67,447.46c-1.56-.13-2.68-.71-3.35-1.72-1.37-2.07-.32-5.17-.27-5.3,.09-.26,.37-.4,.63-.31,.26,.09,.4,.37,.31,.63,0,.03-.93,2.78,.17,4.44,.49,.75,1.35,1.17,2.55,1.27,.01,0,5.37-.12,9.49-7.06l8.25-12.05c.16-.23,.47-.29,.69-.13,.23,.15,.29,.46,.13,.69l-8.23,12.02c-4.41,7.43-10.13,7.52-10.37,7.52Z" fill="#002346"></path>
  <path d="M580.57,430.58c-.11,0-.22-.03-.31-.1-.22-.17-.26-.48-.09-.7l8.03-10.24c.17-.22,.48-.25,.7-.09,.22,.17,.26,.48,.09,.7l-8.03,10.24c-.1,.13-.25,.19-.4,.19Z" fill="#002346"></path>
  <path d="M555.29,455.62c-.23,0-.44-.16-.49-.4-.05-.27,.12-.53,.39-.58l28.87-5.65c1.11-.22,2.11-.75,2.91-1.54l5.21-5.13c.2-.19,.51-.19,.71,0,.19,.19,.19,.51,0,.7l-5.21,5.13c-.94,.93-2.12,1.55-3.42,1.8l-28.87,5.65s-.06,0-.1,0Z" fill="#002346"></path>
  <path d="M566.55,464.64c-.26,0-.48-.2-.5-.46-.02-.27,.19-.51,.46-.53l15.32-1.13c1.63-.12,3.13-.84,4.24-2.02l6.96-7.43c.19-.2,.51-.21,.71-.03,.2,.19,.21,.5,.03,.7l-6.96,7.43c-1.28,1.37-3.02,2.2-4.9,2.34l-15.32,1.13s-.03,0-.04,0Z" fill="#002346"></path>
  <g>
    <path d="M607.08,533.72h-72.95c-8.63,0-13.99-9.31-9.59-16.68l21.98-36.8c8.24,1.35,25.05,2.68,45.91-3.32l24.21,40.08c4.45,7.37-.9,16.73-9.56,16.73Z" fill="#5b07b0"></path>
    <path d="M607.08,534.22h-72.95c-4.26,0-8.05-2.2-10.15-5.89-2.07-3.64-2.02-7.96,.13-11.55l22.15-37.1,.34,.06c8.13,1.33,24.89,2.67,45.69-3.31l.37-.11,.2,.33,24.21,40.08c2.17,3.59,2.24,7.92,.17,11.58-2.09,3.7-5.88,5.91-10.16,5.91Zm-60.3-53.44l-21.8,36.51c-1.96,3.28-2,7.22-.12,10.54,1.91,3.37,5.38,5.38,9.28,5.38h72.95c3.91,0,7.38-2.02,9.29-5.4,1.88-3.34,1.82-7.29-.16-10.57l-24.01-39.75c-20.53,5.83-37.13,4.6-45.42,3.28Z" fill="#002346"></path>
  </g>
  <g>
    <path d="M535.8,473.59s11.12,6.28,14.44-8.67c0,0-9.22,1.09-19.62-5,0,0,1.72,8.08,5.19,13.66Z" fill="#5b07b0"></path>
    <path d="M540.94,475.41c-2.9,0-5.25-1.3-5.39-1.38l-.11-.06-.07-.11c-3.47-5.59-5.18-13.49-5.25-13.82l-.24-1.11,.98,.57c10.12,5.93,19.22,4.94,19.31,4.93l.7-.08-.15,.69c-1.12,5.04-3.24,8.29-6.31,9.66-1.18,.52-2.37,.71-3.48,.71Zm-4.79-2.19c.68,.35,4.42,2.1,7.86,.56,2.63-1.17,4.5-3.96,5.58-8.3-2.28,.13-9.73,.1-18.22-4.55,.59,2.37,2.2,8.06,4.79,12.29Z" fill="#002346"></path>
  </g>
  <g>
    <path d="M692.99,515.99v-99.51h-24.68v99.59c-28.66,5.77-50.23,30.9-50.23,61.02,0,34.39,28.11,62.27,62.79,62.27s62.79-27.88,62.79-62.27c0-30.28-21.79-55.5-50.66-61.11Z" fill="#fff"></path>
    <path d="M680.87,639.86c-34.9,0-63.29-28.16-63.29-62.77,0-29.6,21.1-55.37,50.23-61.43v-99.68h25.68v99.6c29.38,5.9,50.66,31.71,50.66,61.52,0,34.61-28.39,62.77-63.29,62.77Zm-12.06-222.88v99.5l-.4,.08c-28.87,5.81-49.83,31.27-49.83,60.53,0,34.06,27.94,61.77,62.29,61.77s62.29-27.71,62.29-61.77c0-29.47-21.14-54.96-50.26-60.61l-.4-.08v-99.42h-23.68Z" fill="#002346"></path>
  </g>
  <g>
    <rect x="662.25" y="408.75" width="37.67" height="12.88" rx="6.44" ry="6.44" fill="#fff"></rect>
    <path d="M693.48,422.13h-24.79c-3.83,0-6.94-3.11-6.94-6.94s3.11-6.94,6.94-6.94h24.79c3.83,0,6.94,3.11,6.94,6.94s-3.11,6.94-6.94,6.94Zm-24.79-12.88c-3.28,0-5.94,2.67-5.94,5.94s2.67,5.94,5.94,5.94h24.79c3.28,0,5.94-2.67,5.94-5.94s-2.67-5.94-5.94-5.94h-24.79Z" fill="#002346"></path>
  </g>
  <g>
    <path d="M648.43,428.28l-.29,.38-11.28,14.68-.86,1.11c-1.16,1.51-3.34,1.8-4.86,.65l-3.7-2.8c-1.52-1.16-1.82-3.32-.66-4.83l12.42-16.17c1.16-1.51,3.34-1.8,4.87-.65l3.7,2.8c1.52,1.15,1.82,3.31,.65,4.82Z" fill="#fff"></path>
    <path d="M633.24,446.31c-.84,0-1.68-.26-2.4-.8l-3.7-2.8c-.85-.64-1.39-1.57-1.53-2.62-.14-1.04,.14-2.08,.78-2.91l12.42-16.17c1.33-1.72,3.82-2.06,5.56-.75l3.7,2.8c.85,.64,1.39,1.57,1.53,2.61,.14,1.04-.14,2.08-.78,2.91l-12.42,16.17c-.78,1.01-1.96,1.55-3.16,1.55Zm8.73-25.85c-.9,0-1.79,.4-2.37,1.16l-12.42,16.17c-.48,.62-.68,1.39-.58,2.17,.11,.78,.51,1.48,1.14,1.96l3.7,2.79c1.3,.99,3.17,.73,4.16-.56l12.42-16.17c.48-.62,.69-1.39,.58-2.17-.1-.78-.51-1.47-1.14-1.95l-3.7-2.8c-.54-.4-1.17-.6-1.8-.6Z" fill="#002346"></path>
  </g>
  <g>
    <path d="M665.72,464.86l-28.85-21.52,11.28-14.68,18.54,12.7c3.69,2.53,6.41,6.28,7.45,10.6,1.44,5.97-.78,10.01-2.88,12.35-1.42,1.58-3.83,1.81-5.54,.54Z" fill="#fff"></path>
    <path d="M668.19,466.17c-.97,0-1.95-.3-2.77-.91h0s-29.26-21.82-29.26-21.82l11.87-15.46,18.93,12.97c3.88,2.66,6.6,6.53,7.65,10.9,1.49,6.17-.81,10.37-2.99,12.8-.9,1-2.16,1.51-3.44,1.51Zm-2.17-1.71c1.49,1.11,3.63,.9,4.87-.47,2.03-2.25,4.15-6.15,2.76-11.9-.99-4.13-3.57-7.79-7.25-10.31l-18.15-12.44-10.68,13.9,28.45,21.21Z" fill="#002346"></path>
  </g>
  <g>
    <path d="M445.26,498.31v12.28s-17.71,6.81-16.85,27.86v64.73c0,4.3,2.92,8.06,7.12,9.15,5.97,1.55,13.37,2.85,21.89,3,9.87,.17,18.37-1.25,25-2.96,4.26-1.1,7.22-4.93,7.16-9.3-.33-21.82-.66-43.65-.98-65.47,0,0,2.17-20.61-15.59-27.48v-12.14s-12.64,3.16-27.75,.35Z" fill="#fff"></path>
    <path d="M459.04,615.83c-.54,0-1.08,0-1.62-.01-7.42-.13-14.82-1.14-22.01-3.01-4.41-1.15-7.49-5.11-7.49-9.63v-64.73c-.81-19.56,14.43-27.11,16.85-28.18v-12.55l.59,.11c14.84,2.76,27.42-.31,27.54-.34l.62-.16v12.44c17.56,7.05,15.61,27.67,15.59,27.88l.99,65.41c.07,4.6-3.03,8.62-7.53,9.79-7.69,1.99-15.59,2.99-23.51,2.99Zm-13.28-116.92v12.02l-.32,.12c-.17,.07-17.37,6.94-16.53,27.37v64.75c0,4.07,2.77,7.63,6.75,8.66,7.11,1.85,14.44,2.85,21.78,2.98,8.37,.15,16.74-.84,24.87-2.95,4.06-1.05,6.84-4.67,6.78-8.8l-.98-65.47c.02-.26,1.91-20.38-15.27-27.03l-.32-.12v-11.86c-2.7,.57-13.84,2.61-26.75,.33Z" fill="#002346"></path>
  </g>
  <g opacity=".2">
    <path d="M458.81,513.1c-7.85,0-13.54-2.28-13.63-2.31-.11-.05-.16-.17-.12-.28,.05-.11,.18-.16,.28-.12,.13,.06,13.55,5.42,27.59-.49,.11-.05,.24,0,.28,.11,.05,.11,0,.24-.11,.28-5.03,2.12-9.99,2.8-14.29,2.8Z" fill="#fff"></path>
  </g>
  <g>
    <path d="M428.39,537.33s28.61,8.41,60.22,.25l.63,41.94s-24.88,8.44-60.82,0l-.03-42.19Z" fill="#5b07b0"></path>
    <path d="M460.04,583.74c-9.05,0-19.81-.93-31.75-3.74l-.39-.09-.03-43.25,.64,.19c.29,.08,28.85,8.28,59.95,.25l.62-.16,.64,42.93-.35,.12c-.17,.06-11.37,3.75-29.35,3.75Zm-31.13-4.62c32.91,7.63,56.7,.98,59.81,.03l-.61-40.93c-28.55,7.19-54.83,.92-59.23-.24l.03,41.14Z" fill="#002346"></path>
  </g>
  <g>
    <path d="M369.52,526.85l-6.06,97.48c6.59,1.55,15.13,2.93,25.12,3.01,10.78,.08,19.93-1.38,26.85-3.01-2.31-32.5-4.62-64.99-6.93-97.48h-38.97Z" fill="#5b07b0"></path>
    <path d="M389.44,627.84c-.29,0-.58,0-.87,0-8.48-.06-16.97-1.08-25.23-3.02l-.41-.1,6.12-98.38h39.91l6.99,98.38-.42,.1c-8.55,2.01-17.33,3.02-26.1,3.02Zm-25.45-3.9c8.06,1.86,16.33,2.83,24.59,2.9,8.81,.06,17.69-.91,26.31-2.9l-6.87-96.59h-38.04l-6.01,96.59Z" fill="#002346"></path>
  </g>
  <g>
    <rect x="112.31" y="602" width="172.78" height="6.87" rx="3.44" ry="3.44" fill="#002346"></rect>
    <path d="M281.65,609.37H115.74c-2.17,0-3.94-1.77-3.94-3.94s1.77-3.94,3.94-3.94h165.91c2.17,0,3.94,1.77,3.94,3.94s-1.77,3.94-3.94,3.94Zm-165.91-6.87c-1.62,0-2.94,1.32-2.94,2.94s1.32,2.94,2.94,2.94h165.91c1.62,0,2.94-1.32,2.94-2.94s-1.32-2.94-2.94-2.94H115.74Z" fill="#002346"></path>
  </g>
  <g>
    <path d="M123.56,602.99c-.55,0-1-.44-1-.99v-126.69c0-.55,.45-.99,1-.99s1,.44,1,.99v126.69c0,.55-.45,.99-1,.99Z" fill="#002346"></path>
    <path d="M123.56,603.49c-.83,0-1.5-.67-1.5-1.49v-126.69c0-.82,.67-1.49,1.5-1.49s1.5,.67,1.5,1.49v126.69c0,.82-.67,1.49-1.5,1.49Zm0-128.67c-.28,0-.5,.22-.5,.49v126.69c0,.27,.22,.49,.5,.49s.5-.22,.5-.49v-126.69c0-.27-.22-.49-.5-.49Z" fill="#002346"></path>
  </g>
  <g>
    <path d="M275.09,602.99c-.55,0-1-.44-1-.99v-126.69c0-.55,.45-.99,1-.99s1,.44,1,.99v126.69c0,.55-.45,.99-1,.99Z" fill="#002346"></path>
    <path d="M275.09,603.49c-.83,0-1.5-.67-1.5-1.49v-126.69c0-.82,.67-1.49,1.5-1.49s1.5,.67,1.5,1.49v126.69c0,.82-.67,1.49-1.5,1.49Zm0-128.67c-.28,0-.5,.22-.5,.49v126.69c0,.27,.22,.49,.5,.49s.5-.22,.5-.49v-126.69c0-.27-.22-.49-.5-.49Z" fill="#002346"></path>
  </g>
  <g>
    <rect x="129.63" y="470.59" width="38.97" height="8.59" rx="4.29" ry="4.29" fill="#fff"></rect>
    <path d="M164.31,479.68h-30.38c-2.64,0-4.79-2.15-4.79-4.79s2.15-4.79,4.79-4.79h30.38c2.64,0,4.79,2.15,4.79,4.79s-2.15,4.79-4.79,4.79Zm-30.38-8.59c-2.09,0-3.79,1.7-3.79,3.79s1.7,3.79,3.79,3.79h30.38c2.09,0,3.79-1.7,3.79-3.79s-1.7-3.79-3.79-3.79h-30.38Z" fill="#002346"></path>
  </g>
  <g>
    <path d="M162.75,479.18v99.85c0,7.47-6.11,13.53-13.64,13.53s-13.64-6.06-13.64-13.53v-99.85h27.28Z" fill="#fff"></path>
    <path d="M149.11,593.05c-7.8,0-14.14-6.29-14.14-14.03v-100.35h28.28v100.35c0,7.74-6.34,14.03-14.14,14.03Zm-13.14-113.38v99.35c0,7.18,5.89,13.03,13.14,13.03s13.14-5.84,13.14-13.03v-99.35h-26.28Z" fill="#002346"></path>
  </g>
  <g>
    <path d="M162.75,532.86v46.17c0,7.47-6.11,13.53-13.64,13.53s-13.64-6.06-13.64-13.53v-46.17h27.28Z" fill="#7cd295"></path>
    <path d="M149.11,593.05c-7.8,0-14.14-6.29-14.14-14.03v-46.67h28.28v46.67c0,7.74-6.34,14.03-14.14,14.03Zm-13.14-59.69v45.67c0,7.18,5.89,13.03,13.14,13.03s13.14-5.84,13.14-13.03v-45.67h-26.28Z" fill="#002346"></path>
  </g>
  <g>
    <rect x="179.86" y="470.59" width="38.97" height="8.59" rx="4.29" ry="4.29" fill="#fff"></rect>
    <path d="M214.54,479.68h-30.38c-2.64,0-4.79-2.15-4.79-4.79s2.15-4.79,4.79-4.79h30.38c2.64,0,4.79,2.15,4.79,4.79s-2.15,4.79-4.79,4.79Zm-30.38-8.59c-2.09,0-3.79,1.7-3.79,3.79s1.7,3.79,3.79,3.79h30.38c2.09,0,3.79-1.7,3.79-3.79s-1.7-3.79-3.79-3.79h-30.38Z" fill="#002346"></path>
  </g>
  <g>
    <path d="M212.98,479.18v99.85c0,7.47-6.11,13.53-13.64,13.53s-13.64-6.06-13.64-13.53v-99.85h27.28Z" fill="#fff"></path>
    <path d="M199.34,593.05c-7.8,0-14.14-6.29-14.14-14.03v-100.35h28.28v100.35c0,7.74-6.34,14.03-14.14,14.03Zm-13.14-113.38v99.35c0,7.18,5.89,13.03,13.14,13.03s13.14-5.84,13.14-13.03v-99.35h-26.28Z" fill="#002346"></path>
  </g>
  <g>
    <path d="M212.98,514.82v64.2c0,7.47-6.11,13.53-13.64,13.53s-13.64-6.06-13.64-13.53v-64.2h27.28Z" fill="#5b07b0"></path>
    <path d="M199.34,593.05c-7.8,0-14.14-6.29-14.14-14.03v-64.7h28.28v64.7c0,7.74-6.34,14.03-14.14,14.03Zm-13.14-77.73v63.7c0,7.18,5.89,13.03,13.14,13.03s13.14-5.84,13.14-13.03v-63.7h-26.28Z" fill="#002346"></path>
  </g>
  <g>
    <rect x="230.52" y="470.59" width="38.97" height="8.59" rx="4.29" ry="4.29" fill="#fff"></rect>
    <path d="M265.2,479.68h-30.38c-2.64,0-4.79-2.15-4.79-4.79s2.15-4.79,4.79-4.79h30.38c2.64,0,4.79,2.15,4.79,4.79s-2.15,4.79-4.79,4.79Zm-30.38-8.59c-2.09,0-3.79,1.7-3.79,3.79s1.7,3.79,3.79,3.79h30.38c2.09,0,3.79-1.7,3.79-3.79s-1.7-3.79-3.79-3.79h-30.38Z" fill="#002346"></path>
  </g>
  <g>
    <path d="M263.65,479.18v99.85c0,7.47-6.11,13.53-13.64,13.53s-13.64-6.06-13.64-13.53v-99.85h27.28Z" fill="#fff"></path>
    <path d="M250.01,593.05c-7.8,0-14.14-6.29-14.14-14.03v-100.35h28.28v100.35c0,7.74-6.34,14.03-14.14,14.03Zm-13.14-113.38v99.35c0,7.18,5.89,13.03,13.14,13.03s13.14-5.84,13.14-13.03v-99.35h-26.28Z" fill="#002346"></path>
  </g>
  <g>
    <path d="M263.65,539.73v39.29c0,7.47-6.11,13.53-13.64,13.53s-13.64-6.06-13.64-13.53v-39.29h27.28Z" fill="#0a063e"></path>
    <path d="M250.01,593.05c-7.8,0-14.14-6.29-14.14-14.03v-39.79h28.28v39.79c0,7.74-6.34,14.03-14.14,14.03Zm-13.14-52.82v38.79c0,7.18,5.89,13.03,13.14,13.03s13.14-5.84,13.14-13.03v-38.79h-26.28Z" fill="#002346"></path>
  </g>
  <g>
    <path d="M333.01,248.79h0c-25.73-1.91-45.02-24.15-43.09-49.66l3.76-49.66c1.93-25.51,24.35-44.65,50.08-42.73h0c25.73,1.91,45.02,24.15,43.09,49.66l-3.76,49.66c-1.93,25.51-24.35,44.65-50.08,42.73Z" fill="#f2b3c1"></path>
    <path d="M336.54,249.42c-1.18,0-2.37-.04-3.56-.13-12.65-.94-24.15-6.73-32.38-16.3-8.14-9.46-12.11-21.5-11.17-33.9l3.76-49.66c1.95-25.75,24.64-45.12,50.61-43.2,12.65,.94,24.15,6.73,32.38,16.3,8.14,9.46,12.11,21.5,11.17,33.9l-3.75,49.66c-1.86,24.56-22.61,43.33-47.05,43.33Zm-3.49-1.13c25.39,1.9,47.64-17.07,49.54-42.27l3.75-49.66c.92-12.13-2.96-23.92-10.93-33.17-8.06-9.37-19.32-15.03-31.7-15.95-25.4-1.89-47.64,17.07-49.54,42.27l-3.76,49.66c-.92,12.13,2.96,23.92,10.93,33.17,8.06,9.37,19.32,15.03,31.7,15.95Z" fill="#002346"></path>
  </g>
  <g>
    <path d="M299.69,231.14s5.74,31.59-28.04,35.89c0,0,16.89-15.46,5.2-26.2,0,0,3.46,16.32-11.69,22.76,0,0,10.83-12.45,3.03-21.9,0,0-9.96-11.6-10.83-17.61,0,0-8.23,7.73,2.6,17.61,0,0,7.79,6.87,7.79,13.74,0,0-6.51-6.44-15.38-9.88,0,0-27.06-19.33-7.14-53.25,0,0,21.26-32.23,21.7-49.19,.05-1.85,.17-3.69,.45-5.52,2.31-14.8,13.58-68.97,51.9-43.63,0,0,6.5-.43,9.09,2.58,0,0,55.86-19.75,81.41,20.18,0,0,20.4,21.15,14.75,61.04,0,0-1.32,26.57-36.83,43.32,0,0-1.44-3.52-1.15-10.13l-3.15-9.32,1.26-16.45s-29.87-8.77-32.9-31.1c0,0-3.9-37.36-21.65-25.77,0,0-9.09-19.33-19.49-2.58,0,0-9.66,22.7-17.6,32.61l-3.13,40.72s-2.01,18.52,9.8,32.08Z" fill="#002346"></path>
    <path d="M270.16,267.72l1.16-1.06c.09-.08,9.15-8.48,9.16-16.94,0-2.78-.98-5.28-2.92-7.46,.42,4.28,.41,16.44-12.2,21.8l-1.99,.85,1.42-1.63c.11-.12,10.46-12.25,3.02-21.26-.38-.45-9.06-10.6-10.72-16.85-.84,1.08-2.23,3.29-2.21,6.21,.03,3.34,1.86,6.68,5.43,9.94,.32,.28,7.96,7.09,7.96,14.11v1.2l-.85-.84c-.06-.06-6.54-6.41-15.21-9.77l-.11-.06c-.27-.2-27.2-19.98-7.28-53.91,.23-.34,21.2-32.32,21.63-48.95,.06-2.17,.2-3.94,.46-5.58,1.91-12.19,8.19-41.37,25.32-48.93,7.87-3.47,17.02-1.83,27.21,4.86,1.05-.05,6.48-.15,9.1,2.51,2.16-.72,15.18-4.81,30.7-4.81,.09,0,.18,0,.27,0,15.78,.05,37.39,4.48,50.7,25.3,.14,.14,20.45,21.71,14.82,61.38,0,.22-1.74,27.02-37.11,43.7l-.48,.22-.2-.49c-.06-.15-1.47-3.66-1.2-10.25l-3.16-9.33,1.24-16.15c-3.54-1.14-30.01-10.39-32.86-31.39-.03-.24-2.45-22.51-11.55-26.84-2.74-1.31-5.88-.82-9.33,1.43l-.48,.31-.25-.52c-.04-.09-4.2-8.79-9.85-9.11-3-.15-5.94,2.04-8.75,6.58-.06,.16-9.66,22.62-17.54,32.53l-3.12,40.57c-.02,.2-1.84,18.48,9.67,31.71l.09,.1,.02,.13c.02,.14,2.4,13.83-5.37,24.43-4.88,6.67-12.65,10.72-23.1,12.05l-1.56,.2Zm5.88-28.31l1.15,1.06c2.85,2.61,4.29,5.73,4.29,9.25,0,7.16-5.89,14.01-8.39,16.6,9.41-1.47,16.44-5.31,20.92-11.43,7.11-9.7,5.43-22.12,5.21-23.53-11.71-13.56-9.84-32.16-9.82-32.35l3.14-40.86,.1-.12c7.81-9.74,17.44-32.26,17.53-32.49,3.06-4.95,6.3-7.33,9.7-7.12,5.47,.32,9.43,7.21,10.45,9.18,3.58-2.19,6.88-2.6,9.83-1.19,9.61,4.57,12.02,26.69,12.12,27.63,2.95,21.74,32.25,30.58,32.54,30.67l.39,.11-1.29,16.75,3.15,9.31v.09c-.22,5.02,.58,8.24,.94,9.42,34.34-16.44,36.03-42.39,36.04-42.65,5.56-39.21-14.41-60.46-14.61-60.67-25.11-39.23-80.33-20.25-80.88-20.06l-.32,.11-.22-.26c-2.41-2.78-8.62-2.41-8.68-2.41h-.17s-.14-.08-.14-.08c-9.95-6.58-18.83-8.21-26.4-4.88-17.14,7.57-23.26,38.78-24.73,48.17-.25,1.6-.39,3.33-.45,5.45-.44,16.92-20.91,48.14-21.78,49.46-19.05,32.45,5.7,51.59,6.96,52.53,6.9,2.69,12.43,7.22,14.55,9.1-.82-6.15-7.47-12.09-7.54-12.15-3.8-3.46-5.73-7.06-5.76-10.7-.03-4.61,3.02-7.53,3.15-7.65l.7-.66,.14,.95c.83,5.8,10.61,17.24,10.71,17.35,6.27,7.6,.88,17.11-1.77,20.89,12.49-6.66,9.69-20.7,9.56-21.32l-.32-1.53Z" fill="#002346"></path>
  </g>
  <g opacity=".2">
    <path d="M288.1,155.8s44.17-8.59,79.24,1.29c0,0-4.33,36.07-32.48,31.35,0,0-4.76-1.29-9.09-6.44,0,0-8.39-9.83-17.3-2.53-.89,.73-1.67,1.6-2.36,2.53-1.91,2.56-8.07,9.46-14.37,1.92-2.42-2.9-3.65-6.59-3.65-10.34v-17.78Z" fill="#fff"></path>
  </g>
  <g>
    <path d="M372.96,151.94s21.01,19.43,51.23,28.39c0,0-1.38,6.29-3.12,9.56l-18.29-8.25c-3.31-1.49-6.85-2.44-10.47-2.75-7.51-.65-20.49-.57-31.74,5.5,0,0,7.86-11.06,12.4-32.46Z" fill="#5b07b0"></path>
    <path d="M421.28,190.54l-18.72-8.44c-3.31-1.49-6.78-2.4-10.31-2.71-6.89-.59-20.12-.68-31.46,5.44l-1.89,1.02,1.24-1.75c.08-.11,7.86-11.24,12.31-32.27l.18-.86,.65,.6c.21,.19,21.28,19.45,51.03,28.28l.45,.13-.1,.45c-.06,.26-1.41,6.39-3.17,9.69l-.22,.41Zm-35.13-12.41c2.37,0,4.47,.12,6.18,.26,3.64,.31,7.22,1.25,10.64,2.79l17.86,8.05c1.33-2.73,2.42-7.15,2.76-8.56-26.83-8.08-46.57-24.51-50.33-27.8-3.56,16.25-9.06,26.52-11.3,30.24,8.3-4.01,17.35-4.98,24.19-4.98Z" fill="#002346"></path>
  </g>
  <g>
    <ellipse cx="408.39" cy="131.15" rx="9.2" ry="13.23" transform="translate(-18.93 168.28) rotate(-22.77)" fill="#5b07b0"></ellipse>
    <path d="M410.94,144.35c-4.38,0-9.16-3.77-11.54-9.55-1.7-4.12-1.89-8.58-.49-11.92,.89-2.14,2.36-3.67,4.23-4.43,4.95-2.02,11.34,2.04,14.23,9.03h0c1.7,4.12,1.89,8.58,.49,11.92-.89,2.14-2.36,3.67-4.23,4.43-.86,.35-1.77,.52-2.69,.52Zm-5.08-25.42c-.8,0-1.59,.15-2.34,.45-1.62,.66-2.9,2.01-3.69,3.89-1.3,3.1-1.11,7.27,.49,11.15,2.68,6.49,8.49,10.29,12.93,8.49,1.62-.66,2.9-2.01,3.69-3.89,1.3-3.1,1.11-7.27-.49-11.15-2.23-5.4-6.62-8.94-10.59-8.94Z" fill="#002346"></path>
  </g>
  <g>
    <path d="M407.2,132.18s-5.63-12.88,14.72-22.33c0,0,28.66-10.57,50.42,4.25,15.94,10.86,22.11,31.27,15.43,49.27-1.44,3.89-3.42,8.24-6.11,13-1.2,2.13-2.56,4.16-4.06,6.1-3.45,4.46-11.16,16.74-2.86,28.73,0,0,11.69,12.88,4.33,27.91,0,0-3.9,14.17,6.5,19.33,0,0,25.12,12.88,6.93,34.36,0,0,.87-15.03-12.56-18.47,0,0-5.06-2.31-7.08-5.88,0,0-2.88,8.45,4.91,16.61,0,0,8.66,9.02,3.03,17.61,0,0-4.33-13.31-16.89-13.31,0,0-26.41-9.02-20.79-35.64,0,0-18.62,9.88-8.23,21.9,0,0-22.52-10.31-12.12-24.48,0,0,12.12-12.88,5.63-25.77,0,0-9.53-14.6,3.9-31.78,0,0,23.01-23.19,5.47-45.03-3.67-4.57-8.6-8.05-14.27-9.63-1.18-.33-2.44-.59-3.76-.74,0,0-9.53,0-12.56-6.01Z" fill="#002346"></path>
    <path d="M480.66,303.82l-.32-.99c-.04-.13-4.37-12.97-16.41-12.97l-.16-.03c-.26-.09-26.05-9.21-21.33-35.13-2.45,1.51-8.94,5.98-10.02,11.77-.56,2.99,.41,5.96,2.88,8.81l1.5,1.74-2.09-.96c-.51-.23-12.51-5.82-14.79-14.58-.93-3.56-.1-7.15,2.47-10.65,.16-.17,11.84-12.83,5.59-25.25-.07-.1-9.54-15.05,3.95-32.31,.27-.27,22.53-23.17,5.47-44.41-3.76-4.68-8.61-7.96-14.01-9.46-1.24-.34-2.47-.59-3.68-.73h-.02c-.59,0-9.84-.16-12.93-6.28v-.03c-.07-.13-5.6-13.44,14.96-22.99,.33-.12,29.19-10.5,50.91,4.29,16.03,10.92,22.46,31.42,15.62,49.86-1.58,4.25-3.64,8.65-6.14,13.07-1.19,2.11-2.57,4.19-4.1,6.16-3.54,4.58-10.9,16.49-2.84,28.14,.08,.08,11.79,13.26,4.37,28.42,0,.05-3.63,13.75,6.27,18.66,.47,.24,11.43,5.97,13.49,16.29,1.21,6.06-.94,12.4-6.4,18.84l-.96,1.14,.08-1.49c.03-.6,.68-14.66-12.18-17.95-.27-.11-4.42-2.03-6.73-5.12-.45,2.49-.83,8.87,5.05,15.02,.09,.09,8.87,9.41,3.09,18.23l-.57,.87Zm-16.65-14.96c10.67,.05,15.57,9.56,16.9,12.68,4.27-7.9-3.4-16.04-3.49-16.13-7.91-8.29-5.06-17.04-5.03-17.12l.36-1.06,.55,.97c1.91,3.39,6.8,5.65,6.85,5.67,11.13,2.84,12.65,13.64,12.84,17.54,4.61-5.83,6.4-11.52,5.32-16.93-1.96-9.84-12.85-15.54-12.96-15.6-10.63-5.27-6.79-19.76-6.75-19.9,7.16-14.63-4.1-27.32-4.22-27.45-8.47-12.25-.84-24.62,2.83-29.38,1.49-1.93,2.85-3.97,4.02-6.04,2.47-4.38,4.52-8.72,6.07-12.92,6.68-18,.41-38.02-15.25-48.68-21.29-14.5-49.68-4.3-49.96-4.2-19.47,9.04-14.72,20.99-14.44,21.65,2.87,5.66,12.01,5.72,12.1,5.72,1.32,.15,2.6,.41,3.89,.76,5.61,1.56,10.63,4.95,14.53,9.79,17.62,21.94-5.27,45.46-5.5,45.69-13,16.63-3.93,31.01-3.83,31.15,6.6,13.09-5.56,26.25-5.68,26.38-2.34,3.2-3.12,6.49-2.27,9.75,1.62,6.25,8.79,10.94,12.29,12.91-1.66-2.55-2.24-5.18-1.74-7.86,1.42-7.61,11.06-12.8,11.47-13.02l.94-.5-.22,1.05c-5.32,25.18,18.85,34.48,20.38,35.04Z" fill="#002346"></path>
  </g>
  <g>
    <path d="M319.29,93.96s-4.48,1.04-6.8,7.25c0,0,3.2,1.17,5.85,3.47,0,0,3.13-7.85,10.04-8.14,0,0-2.15-2.71-9.09-2.58Z" fill="#5b07b0"></path>
    <path d="M318.55,105.52l-.53-.46c-2.55-2.21-5.67-3.37-5.7-3.38l-.47-.17,.18-.47c2.38-6.38,6.96-7.51,7.15-7.56h.1c7.11-.16,9.4,2.64,9.5,2.75l.61,.77-.98,.04c-6.5,.27-9.56,7.75-9.59,7.83l-.26,.65Zm-5.41-4.59c.92,.39,3.04,1.36,5.02,2.95,.86-1.79,3.71-6.82,8.99-7.71-1.13-.73-3.51-1.81-7.79-1.71-.48,.13-4.1,1.27-6.22,6.47Z" fill="#002346"></path>
  </g>
  <path d="M273.59,177.97c-.12,0-.21-.09-.22-.21-1.09-39.93,22.13-69.05,22.37-69.34,3.35-5.05,7.22-7.8,11.51-8.16,6.73-.57,12.15,5.09,12.2,5.14,.08,.09,.08,.22-.01,.3-.09,.08-.22,.08-.31,0-.05-.06-5.35-5.57-11.85-5.01-4.14,.35-7.91,3.04-11.19,7.99-.25,.3-23.37,29.3-22.29,69.07,0,.12-.09,.22-.21,.22,0,0,0,0,0,0Z" fill="#fff"></path>
  <g>
    <ellipse cx="388.79" cy="196.6" rx="15.93" ry="11.01" transform="translate(6.63 405.79) rotate(-55.52)" fill="#f2b3c1"></ellipse>
    <path d="M384.51,211.63c-1.79,0-3.47-.46-4.92-1.42-1.99-1.32-3.31-3.44-3.84-6.12-.84-4.25,.46-9.43,3.46-13.88,5.07-7.5,13.5-10.75,18.79-7.23,1.99,1.32,3.31,3.44,3.84,6.12,.84,4.25-.46,9.43-3.46,13.87-3.68,5.45-9.14,8.65-13.87,8.65Zm8.54-29.07c-4.39,0-9.52,3.06-13.01,8.22-2.86,4.23-4.1,9.13-3.31,13.12,.48,2.41,1.66,4.31,3.42,5.48,4.82,3.21,12.63,.09,17.4-6.96h0c2.86-4.23,4.1-9.13,3.31-13.12-.48-2.41-1.66-4.31-3.42-5.48-1.29-.86-2.79-1.26-4.39-1.26Z" fill="#002346"></path>
  </g>
  <g>
    <ellipse cx="459.04" cy="476.39" rx="17.32" ry="3.22" fill="#0a063e"></ellipse>
    <path d="M459.04,480.11c-6.16,0-17.82-.78-17.82-3.72s11.66-3.72,17.82-3.72,17.82,.78,17.82,3.72-11.66,3.72-17.82,3.72Zm0-6.44c-11.04,0-16.82,1.77-16.82,2.72s5.78,2.72,16.82,2.72,16.82-1.77,16.82-2.72-5.78-2.72-16.82-2.72Z" fill="#002346"></path>
  </g>
  <g>
    <path d="M476.36,476.39l-.43,21.26c-4.33,1.09-10.08,2.1-16.89,2.15-7.21,.04-13.28-1.02-17.75-2.15l.43-21.26c0,1.78,7.76,3.22,17.32,3.22s17.32-1.44,17.32-3.22Z" fill="#0a063e"></path>
    <path d="M458.61,500.29c-5.89,0-11.76-.73-17.45-2.16l-.39-.1,.44-21.66h1c0,.96,5.78,2.73,16.82,2.73s16.77-1.75,16.82-2.71v-.02h1s0,.04,0,.05l-.44,21.61-.37,.09c-5.54,1.4-11.27,2.13-17.01,2.16-.14,0-.28,0-.43,0Zm-16.82-3.04c5.63,1.38,11.43,2.05,17.24,2.04,5.53-.04,11.05-.72,16.4-2.04l.4-19.48c-2.98,1.81-11.74,2.34-16.79,2.34s-13.92-.53-16.85-2.37l-.4,19.52Z" fill="#002346"></path>
  </g>
  <g>
    <rect x="112.31" y="495.5" width="172.78" height="6.87" rx="3.44" ry="3.44" fill="#002346"></rect>
    <path d="M281.65,502.87H115.74c-2.17,0-3.94-1.77-3.94-3.94s1.77-3.94,3.94-3.94h165.91c2.17,0,3.94,1.77,3.94,3.94s-1.77,3.94-3.94,3.94Zm-165.91-6.87c-1.62,0-2.94,1.32-2.94,2.94s1.32,2.94,2.94,2.94h165.91c1.62,0,2.94-1.32,2.94-2.94s-1.32-2.94-2.94-2.94H115.74Z" fill="#002346"></path>
  </g>
  <g>
    <ellipse cx="389.01" cy="526.85" rx="19.49" ry="3.87" fill="#002346"></ellipse>
    <path d="M389.01,531.21c-8.03,0-19.99-1.16-19.99-4.37s11.95-4.37,19.99-4.37,19.99,1.16,19.99,4.37-11.95,4.37-19.99,4.37Zm0-7.73c-11.76,0-18.99,1.96-18.99,3.37s7.22,3.37,18.99,3.37,18.99-1.96,18.99-3.37-7.22-3.37-18.99-3.37Z" fill="#002346"></path>
  </g>
  <g>
    <path d="M378.18,493.99l.43,7.52,3.46,2.15v19.91c0,2.05,1.68,3.71,3.74,3.71h7.33c2.07,0,3.74-1.66,3.74-3.71v-20.11l2.5-2.6v-6.86h-21.22Z" fill="#5b07b0"></path>
    <path d="M393.15,527.78h-7.33c-2.34,0-4.24-1.89-4.24-4.21v-19.63l-3.45-2.14-.48-8.3h22.25v7.56l-2.5,2.6v19.9c0,2.32-1.9,4.21-4.24,4.21Zm-14.05-26.56l3.48,2.16v20.19c0,1.77,1.46,3.21,3.24,3.21h7.33c1.79,0,3.24-1.44,3.24-3.21v-20.31l2.5-2.6v-6.16h-20.19l.39,6.73Z" fill="#002346"></path>
  </g>
  <g>
    <ellipse cx="389.01" cy="493.99" rx="10.39" ry="1.5" fill="#002346"></ellipse>
    <path d="M389.01,496c-2.56,0-10.89-.14-10.89-2s8.34-2,10.89-2,10.89,.14,10.89,2-8.34,2-10.89,2Zm-9.73-2c.94,.45,4.52,1,9.73,1s8.79-.55,9.73-1c-.94-.45-4.52-1-9.73-1s-8.79,.55-9.73,1Z" fill="#002346"></path>
  </g>
  <g>
    <path d="M283.78,151.94v25.85c0,2.56,.56,5.1,1.72,7.39,9.09,17.89,24.69-.18,24.69-.18,5.63-7.73,11.26-1.72,11.26-1.72l4.1,4.65c7.7,8.73,21.18,9.8,29.93,2.1,13.53-11.9,17.47-38.1,17.47-38.1-50.69-9.45-89.17,0-89.17,0Zm51.1,36.5s-4.76-1.29-9.09-6.44c0,0-9.53-11.17-19.05-.86,0,0-7.39,11.86-14.97,2.78-2.42-2.9-3.65-6.59-3.65-10.34v-17.78s44.17-8.59,79.24,1.29c0,0-4.33,36.07-32.48,31.35Z" fill="#5b07b0"></path>
    <path d="M341.67,195.72c-6.07,0-12.14-2.52-16.49-7.45l-4.1-4.65s-2.14-2.24-4.94-2.05c-1.97,.12-3.83,1.38-5.54,3.73-.35,.41-8.04,9.17-15.95,8.21-3.87-.47-7.1-3.2-9.59-8.1-1.16-2.29-1.78-4.92-1.78-7.62v-26.25l.38-.09c.39-.1,39.17-9.37,89.38,0l.47,.09-.07,.48c-.04,.26-4.12,26.52-17.63,38.4-4.05,3.56-9.1,5.31-14.15,5.31Zm-25.2-15.16c3.08,0,5.25,2.28,5.35,2.39l4.11,4.66c7.6,8.62,20.72,9.54,29.23,2.05,12.24-10.76,16.61-33.72,17.22-37.32-47.1-8.68-83.98-.94-88.1,0v25.46c0,2.54,.58,5.01,1.67,7.17,2.33,4.59,5.3,7.13,8.82,7.56,7.38,.91,14.97-7.75,15.05-7.84,1.87-2.57,3.99-3.97,6.27-4.11,.13,0,.26-.01,.38-.01Zm23.32,8.81c-1.61,0-3.28-.14-5-.43h-.05c-.2-.06-4.96-1.4-9.35-6.61-.04-.05-4.29-4.94-9.76-5.05-.06,0-.12,0-.18,0-2.97,0-5.78,1.42-8.36,4.21-.1,.17-3.78,6-8.78,6.35-2.46,.18-4.81-1.03-6.94-3.58-2.43-2.91-3.77-6.7-3.77-10.67v-18.19l.4-.08c.44-.08,44.69-8.5,79.47,1.3l.41,.12-.05,.42c-.02,.19-2.39,18.91-14.11,27.68-4.03,3.02-8.71,4.54-13.95,4.54Zm-4.8-1.41c7,1.17,13.11-.15,18.15-3.92,10.4-7.78,13.23-23.77,13.66-26.58-32.72-9.06-73.68-2.05-78.19-1.24v17.36c0,3.73,1.26,7.29,3.54,10.02,1.91,2.29,3.98,3.37,6.1,3.23,4.49-.31,8.02-5.9,8.05-5.96,2.9-3.15,6.06-4.64,9.36-4.6,5.93,.12,10.32,5.18,10.5,5.4,4.03,4.79,8.48,6.18,8.82,6.28Z" fill="#002346"></path>
  </g>
  <path d="M680.66,520.22c-5.95,0-10.45-2.33-12.62-3.73l.54-.84c2.12,1.37,6.54,3.68,12.39,3.57,5.27-.08,9.29-1.98,11.75-3.57l.54,.84c-2.56,1.66-6.77,3.65-12.28,3.73-.11,0-.22,0-.33,0Z" fill="#002346"></path>
</svg>
