<?xml version="1.0" encoding="UTF-8"?>
<svg xmlns="http://www.w3.org/2000/svg" id="a" width="865.76" height="682.89" viewBox="0 0 865.76 682.89">
  <g>
    <g>
      <g>
        <polygon points="214.43 56.43 214.43 56.5 138.85 56.5 128.27 56.5 124.85 56.5 124.85 625.5 138.85 625.5 138.85 70.5 214.43 70.5 214.43 137.58 228.43 137.58 228.43 70.5 228.43 56.5 228.43 56.43 214.43 56.43" fill="#fff"></polygon>
        <path d="M139.32,625.98h-14.95V56.03h89.58l.48-.08h14.48v82.1h-14.95V70.98h-74.63V625.98Zm-14-.95h13.05V70.03h76.53v67.08h13.05V56.9h-13.05v.08H125.32V625.03Z" fill="#002346"></path>
      </g>
      <g>
        <g>
          <path d="M256.11,206.47c-36.75,13.64-56.16,5.58-64.67-.74-3.64-2.72-6.44-6.41-8.08-10.65h0c-7.1-18.11,5.45-34,18.65-44.94,13.81-11.28,30.25-18.89,47.78-22.13,28.56-5.42,41.89,3.71,47.76,10.85,.9,1.11,1.69,2.31,2.35,3.58,1.53,2.95,2.37,6.2,2.46,9.52,1.14,34.76-46.25,54.51-46.25,54.51Z" fill="#fff"></path>
          <path d="M219.86,214.41c-14.57,0-23.68-4.53-28.72-8.27-3.72-2.78-6.57-6.54-8.25-10.87-5.79-14.78,.71-30.51,18.8-45.51,13.84-11.3,30.44-18.99,48.01-22.24,28.01-5.32,41.69,3.06,48.24,11.02,.92,1.14,1.73,2.37,2.41,3.67,1.55,3,2.42,6.36,2.52,9.74,1.14,34.7-46.08,54.79-46.56,54.99h-.02c-14.79,5.5-26.79,7.47-36.42,7.47Zm46.23-87.56c-4.77,0-10.15,.5-16.21,1.65-17.4,3.22-33.85,10.83-47.56,22.03-12.36,10.24-25.6,26.26-18.5,44.37,1.61,4.16,4.35,7.76,7.91,10.43,8.21,6.1,27.47,14.3,64.19,.67,.86-.37,47.04-20.16,45.93-54.03-.09-3.23-.92-6.44-2.4-9.31-.64-1.23-1.42-2.41-2.29-3.5-4.97-6.04-14.2-12.33-31.07-12.33Z" fill="#002346"></path>
        </g>
        <g>
          <ellipse cx="211.81" cy="162.16" rx="19.54" ry="11.29" transform="translate(-48.62 104.39) rotate(-24.93)" fill="#e6e7e8"></ellipse>
          <path d="M204.44,175.8c-.62,0-1.24-.03-1.84-.08-4.43-.39-7.61-2.21-8.96-5.11s-.69-6.51,1.87-10.15c2.5-3.56,6.52-6.75,11.33-8.99,4.81-2.24,9.85-3.25,14.18-2.87,4.43,.39,7.61,2.21,8.96,5.11s.69,6.51-1.87,10.15c-2.5,3.56-6.52,6.75-11.33,8.99-4.14,1.93-8.46,2.95-12.34,2.95Zm14.74-26.28c-3.74,0-7.9,.99-11.91,2.86-4.65,2.16-8.54,5.24-10.94,8.66-2.34,3.34-2.97,6.59-1.78,9.15,1.19,2.57,4.08,4.18,8.15,4.54,4.16,.37,9.01-.62,13.67-2.78,4.65-2.16,8.54-5.24,10.94-8.66,2.34-3.34,2.97-6.59,1.78-9.15-1.19-2.57-4.08-4.18-8.15-4.54-.57-.05-1.16-.08-1.75-.08Z" fill="#002346"></path>
        </g>
        <g>
          <ellipse cx="256.65" cy="142.38" rx="18.79" ry="10.44" transform="translate(-36.1 121.45) rotate(-24.93)" fill="#e6e7e8"></ellipse>
          <path d="M249.12,155.22c-.49,0-.97-.02-1.44-.05-4.24-.31-7.26-1.96-8.52-4.66-2.54-5.47,3.24-13.57,12.88-18.05h0c4.63-2.15,9.45-3.16,13.58-2.87,4.24,.31,7.26,1.96,8.52,4.66,2.54,5.47-3.24,13.57-12.88,18.05-4.1,1.91-8.35,2.92-12.15,2.92Zm3.34-21.86c-9.15,4.25-14.71,11.75-12.4,16.72,1.1,2.36,3.82,3.81,7.69,4.09,3.97,.29,8.61-.7,13.09-2.78,9.15-4.25,14.71-11.75,12.4-16.72-1.1-2.36-3.82-3.81-7.68-4.09-3.97-.28-8.62,.7-13.09,2.78h0Z" fill="#002346"></path>
        </g>
        <g>
          <ellipse cx="281.94" cy="162.72" rx="18.56" ry="9.94" transform="translate(-42.32 134) rotate(-24.93)" fill="#e6e7e8"></ellipse>
          <path d="M274.09,175.15c-.38,0-.75-.01-1.12-.03-4.16-.24-7.12-1.79-8.32-4.37-1.2-2.58-.48-5.84,2.02-9.18,2.44-3.24,6.29-6.2,10.86-8.32,9.53-4.43,19.26-3.79,21.69,1.43,1.2,2.58,.48,5.84-2.02,9.18-2.44,3.24-6.29,6.2-10.86,8.32-4.15,1.93-8.46,2.97-12.25,2.97Zm15.75-23.89c-3.52,0-7.71,.95-11.88,2.89-4.42,2.06-8.15,4.9-10.49,8.02-2.27,3.03-2.95,5.92-1.91,8.15,1.04,2.23,3.69,3.58,7.47,3.79,3.89,.23,8.47-.79,12.89-2.85,4.42-2.06,8.15-4.9,10.49-8.02,2.27-3.03,2.95-5.92,1.91-8.15-1.18-2.54-4.37-3.84-8.48-3.84Z" fill="#002346"></path>
        </g>
        <g>
          <ellipse cx="254.97" cy="193.46" rx="17.3" ry="9.94" transform="translate(-57.79 125.5) rotate(-24.93)" fill="#e6e7e8"></ellipse>
          <path d="M248.39,205.56c-.54,0-1.07-.02-1.59-.07-3.94-.34-6.77-1.95-7.97-4.53-2.43-5.22,2.84-12.83,11.74-16.97,4.27-1.98,8.73-2.89,12.57-2.56,3.94,.34,6.77,1.95,7.97,4.53s.6,5.78-1.68,9.01c-2.22,3.15-5.8,5.98-10.06,7.96-3.69,1.72-7.53,2.63-10.99,2.63Zm2.61-20.66c-8.4,3.91-13.45,10.92-11.26,15.64,1.04,2.24,3.58,3.64,7.15,3.95,3.67,.31,7.95-.56,12.07-2.47,4.11-1.91,7.55-4.62,9.67-7.63,2.06-2.93,2.63-5.77,1.59-8.01-1.04-2.24-3.58-3.64-7.15-3.95-3.67-.31-7.95,.56-12.07,2.47h0Z" fill="#002346"></path>
        </g>
        <g>
          <ellipse cx="212.59" cy="194.64" rx="18.43" ry="9.94" transform="translate(-62.23 107.74) rotate(-24.93)" fill="#e6e7e8"></ellipse>
          <path d="M204.9,207.01c-4.55,0-8.13-1.5-9.48-4.4-2.43-5.22,3.3-13.05,12.77-17.45h0c4.54-2.11,9.26-3.14,13.29-2.9,4.14,.25,7.08,1.8,8.28,4.39s.5,5.83-1.99,9.16c-2.41,3.24-6.24,6.18-10.78,8.29-4.2,1.95-8.45,2.91-12.08,2.91Zm3.7-20.94c-8.97,4.17-14.47,11.4-12.28,16.12,2.19,4.72,11.27,5.17,20.24,1,4.39-2.04,8.08-4.88,10.4-7.98,2.25-3.02,2.92-5.91,1.88-8.14-1.04-2.23-3.68-3.59-7.43-3.81-3.87-.23-8.41,.77-12.8,2.81h0Z" fill="#002346"></path>
        </g>
        <g>
          <path d="M299.9,142.39c-.66-1.27-1.45-2.47-2.35-3.58-5.87-7.14-19.2-16.27-47.76-10.85-17.54,3.25-33.98,10.88-47.79,22.18-13.2,10.87-25.77,26.87-18.65,44.94-.22-.1-6.64-3.06-9.46-16.08-.3-1.35-.55-2.81-.75-4.4,0,0-1.1-31.87,46.15-53.85,0,0,39.48-16.33,64.78-3.67,4.29,2.14,7.98,5.31,10.75,9.23h0c2.37,3.34,3.97,7.16,4.71,11.19,.31,1.61,.44,3.25,.37,4.89Z" fill="#e6e7e8"></path>
          <path d="M184.26,196.05l-1.12-.51c-.28-.13-6.89-3.25-9.74-16.43-.3-1.36-.56-2.86-.76-4.44-.01-.37-.57-32.5,46.44-54.37,.42-.17,40-16.28,65.21-3.66,4.35,2.17,8.13,5.42,10.94,9.39,2.39,3.38,4.05,7.32,4.79,11.39,.32,1.64,.45,3.33,.38,5l-.08,1.87-.87-1.66c-.64-1.23-1.42-2.41-2.29-3.5-6.37-7.75-19.75-15.9-47.28-10.67-17.41,3.23-33.86,10.86-47.57,22.08-12.39,10.21-25.66,26.19-18.5,44.37l.45,1.15Zm76.54-83.24c-20.66,0-41.04,8.29-41.33,8.41-46.39,21.58-45.85,53.05-45.84,53.37,.19,1.51,.44,2.97,.74,4.31,2.05,9.49,6.02,13.52,8,14.99-6.21-18.16,6.96-33.97,19.3-44.13,13.84-11.32,30.44-19.03,48.02-22.29,28.01-5.32,41.69,3.06,48.24,11.02,.52,.65,1.01,1.32,1.46,2.02-.05-.98-.17-1.96-.35-2.92-.72-3.94-2.32-7.74-4.63-11-2.71-3.84-6.36-6.97-10.56-9.07-6.94-3.47-15.01-4.73-23.04-4.73Z" fill="#002346"></path>
        </g>
        <g>
          <path d="M294.82,126.31c-2.77-3.92-6.46-7.09-10.75-9.23-25.3-12.66-64.78,3.67-64.78,3.67-47.25,22-46.15,53.85-46.15,53.85,.2,1.59,.45,3.05,.75,4.4,0,0-10.79-9.25,0-32.38,0,0,23.63-46.15,85.86-43.49,7.55,.28,14.92,2.38,21.48,6.12,6.1,3.57,12.3,9.07,13.59,17.06Z" fill="#002346"></path>
          <path d="M174.7,180.36l-1.14-.98c-.45-.39-10.95-9.76-.13-32.97,.07-.13,6.12-11.78,19.73-22.92,12.55-10.28,34.3-22.24,66.6-20.86,7.6,.28,15.1,2.42,21.71,6.19,8.08,4.73,12.73,10.59,13.84,17.41l.34,2.13-1.25-1.77c-2.71-3.84-6.36-6.97-10.56-9.07-24.8-12.41-63.97,3.52-64.37,3.68-46.35,21.58-45.85,53.06-45.84,53.37,.19,1.51,.44,2.97,.74,4.31l.33,1.46Zm79.99-76.83c-29.21,0-49.11,11.1-60.86,20.71-13.46,11.01-19.44,22.5-19.5,22.61-8.2,17.58-3.7,27.05-1.31,30.38-.15-.82-.27-1.68-.38-2.56-.01-.37-.57-32.48,46.44-54.37,.42-.17,40-16.28,65.21-3.66,3.67,1.83,6.93,4.42,9.54,7.57-1.62-5.59-5.94-10.47-12.86-14.52-6.46-3.69-13.81-5.78-21.25-6.05-1.71-.07-3.39-.11-5.04-.11Z" fill="#002346"></path>
        </g>
      </g>
    </g>
    <g>
      <g>
        <polygon points="661.8 56.43 661.8 56.5 737.38 56.5 747.96 56.5 751.38 56.5 751.38 625.5 737.38 625.5 737.38 70.5 661.8 70.5 661.8 137.58 647.8 137.58 647.8 70.5 647.8 56.5 647.8 56.43 661.8 56.43" fill="#fff"></polygon>
        <path d="M751.85,625.98h-14.95V70.98h-74.63v67.08h-14.95V56.03l.48-.08h14.48v.08h89.58V625.98Zm-14-.95h13.05V56.98h-89.58v-.08h-13.05v80.2h13.05V70.03h76.53V625.03Z" fill="#002346"></path>
      </g>
      <g>
        <g>
          <path d="M620.12,206.47c36.75,13.64,56.16,5.58,64.67-.74,3.64-2.72,6.44-6.41,8.08-10.65h0c7.1-18.11-5.45-34-18.65-44.94-13.81-11.28-30.25-18.89-47.78-22.13-28.56-5.42-41.89,3.71-47.76,10.85-.9,1.11-1.69,2.31-2.35,3.58-1.53,2.95-2.37,6.2-2.46,9.52-1.14,34.76,46.25,54.51,46.25,54.51Z" fill="#fff"></path>
          <path d="M656.37,214.41c-9.63,0-21.63-1.98-36.42-7.47h-.02c-.48-.21-47.7-20.29-46.56-55,.09-3.37,.96-6.74,2.52-9.73,.68-1.3,1.48-2.53,2.41-3.66,6.55-7.97,20.23-16.34,48.24-11.03,17.56,3.25,34.16,10.93,48,22.23,18.09,15,24.59,30.73,18.8,45.51-1.68,4.33-4.53,8.09-8.25,10.87-5.05,3.75-14.16,8.27-28.72,8.27Zm-36.06-8.4c36.71,13.62,55.97,5.42,64.19-.68,3.56-2.67,6.3-6.28,7.91-10.43,7.1-18.12-6.14-34.13-18.5-44.38-13.71-11.19-30.15-18.81-47.55-22.02-27.53-5.22-40.91,2.92-47.28,10.68-.88,1.08-1.65,2.26-2.29,3.49-1.48,2.86-2.31,6.08-2.4,9.3-1.11,33.87,45.07,53.67,45.93,54.03Z" fill="#002346"></path>
        </g>
        <g>
          <ellipse cx="664.41" cy="162.16" rx="11.29" ry="19.54" transform="translate(237.31 696.31) rotate(-65.07)" fill="#e6e7e8"></ellipse>
          <path d="M671.78,175.8c-3.88,0-8.19-1.02-12.34-2.95-4.81-2.24-8.84-5.43-11.33-8.99-2.55-3.64-3.22-7.25-1.87-10.15,2.74-5.89,13.12-6.9,23.14-2.24,4.81,2.24,8.84,5.43,11.33,8.99,2.55,3.64,3.22,7.25,1.87,10.15s-4.53,4.72-8.96,5.11c-.6,.05-1.21,.08-1.84,.08Zm-14.79-26.29c-4.7,0-8.43,1.58-9.85,4.62-1.19,2.57-.56,5.82,1.78,9.15,2.4,3.42,6.28,6.49,10.94,8.66,4.65,2.16,9.51,3.15,13.67,2.78,4.06-.36,6.95-1.97,8.15-4.54,1.19-2.57,.56-5.82-1.78-9.15-2.4-3.42-6.28-6.49-10.94-8.66-4.14-1.93-8.34-2.86-11.96-2.86Z" fill="#002346"></path>
        </g>
        <g>
          <ellipse cx="619.58" cy="142.38" rx="10.44" ry="18.79" transform="translate(229.31 644.21) rotate(-65.07)" fill="#e6e7e8"></ellipse>
          <path d="M627.11,155.22c-3.79,0-8.05-1.02-12.15-2.92-9.65-4.48-15.42-12.58-12.88-18.05,2.54-5.47,12.46-6.27,22.1-1.79h0c9.65,4.48,15.42,12.58,12.88,18.05-1.26,2.7-4.28,4.36-8.52,4.66-.47,.03-.95,.05-1.44,.05Zm-15.11-24.7c-4.33,0-7.73,1.41-9,4.15-2.31,4.97,3.25,12.47,12.4,16.72,4.48,2.08,9.12,3.06,13.09,2.78,3.86-.28,6.59-1.73,7.69-4.09,2.31-4.97-3.25-12.47-12.4-16.72h0c-4.1-1.91-8.25-2.84-11.77-2.84Z" fill="#002346"></path>
        </g>
        <g>
          <ellipse cx="594.29" cy="162.72" rx="9.94" ry="18.56" transform="translate(196.23 633.04) rotate(-65.07)" fill="#e6e7e8"></ellipse>
          <path d="M602.13,175.15c-3.79,0-8.09-1.04-12.25-2.97-4.57-2.12-8.43-5.08-10.86-8.32-2.5-3.33-3.22-6.59-2.02-9.18,1.2-2.58,4.15-4.13,8.32-4.37,4.05-.23,8.8,.81,13.37,2.94,4.57,2.12,8.43,5.08,10.86,8.32,2.5,3.33,3.22,6.59,2.02,9.18-1.2,2.58-4.15,4.13-8.32,4.37-.37,.02-.74,.03-1.12,.03Zm-15.69-23.87c-.36,0-.72,0-1.07,.03-3.78,.21-6.43,1.56-7.47,3.79-1.04,2.23-.36,5.13,1.91,8.15,2.34,3.12,6.06,5.96,10.48,8.02,4.42,2.05,9,3.08,12.89,2.85,3.78-.21,6.43-1.56,7.47-3.79,1.04-2.23,.36-5.13-1.91-8.15-2.34-3.12-6.06-5.96-10.49-8.02h0c-4.02-1.87-8.18-2.88-11.82-2.88Z" fill="#002346"></path>
        </g>
        <g>
          <ellipse cx="621.26" cy="193.46" rx="9.94" ry="17.3" transform="translate(183.95 675.29) rotate(-65.07)" fill="#e6e7e8"></ellipse>
          <path d="M627.84,205.56c-3.45,0-7.29-.91-10.99-2.63-4.27-1.98-7.84-4.81-10.06-7.96-2.28-3.23-2.88-6.43-1.68-9.01s4.03-4.18,7.97-4.53c3.84-.33,8.31,.58,12.57,2.56h0c8.9,4.14,14.17,11.75,11.74,16.97-1.2,2.58-4.03,4.18-7.97,4.53-.52,.04-1.05,.07-1.59,.07Zm-13.17-23.19c-.51,0-1.02,.02-1.51,.06-3.57,.31-6.11,1.71-7.15,3.95-1.04,2.24-.48,5.08,1.59,8.01,2.12,3.01,5.56,5.72,9.67,7.63,4.11,1.91,8.4,2.78,12.07,2.47,3.57-.31,6.11-1.71,7.15-3.95,2.19-4.72-2.85-11.74-11.26-15.64-3.56-1.66-7.25-2.54-10.56-2.54Z" fill="#002346"></path>
        </g>
        <g>
          <ellipse cx="663.64" cy="194.64" rx="9.94" ry="18.43" transform="translate(207.41 714.4) rotate(-65.07)" fill="#e6e7e8"></ellipse>
          <path d="M671.32,207.01c-3.63,0-7.88-.96-12.08-2.91-9.47-4.4-15.19-12.23-12.77-17.45,2.43-5.22,12.1-5.89,21.57-1.49h0c9.46,4.4,15.19,12.23,12.77,17.45-1.35,2.9-4.94,4.4-9.48,4.4Zm-15.45-23.79c-4.11,0-7.31,1.3-8.49,3.86-2.19,4.72,3.31,11.95,12.28,16.12,8.97,4.17,18.04,3.72,20.24-1s-3.31-11.95-12.28-16.12c-4.12-1.91-8.26-2.85-11.74-2.85Z" fill="#002346"></path>
        </g>
        <g>
          <path d="M576.33,142.39c.66-1.27,1.45-2.47,2.35-3.58,5.87-7.14,19.2-16.27,47.76-10.85,17.54,3.25,33.98,10.88,47.79,22.18,13.2,10.87,25.77,26.87,18.65,44.94,.22-.1,6.64-3.06,9.46-16.08,.3-1.35,.55-2.81,.75-4.4,0,0,1.1-31.87-46.15-53.85,0,0-39.48-16.33-64.78-3.67-4.29,2.14-7.98,5.31-10.75,9.23h0c-2.37,3.34-3.97,7.16-4.71,11.19-.31,1.61-.44,3.25-.37,4.89Z" fill="#e6e7e8"></path>
          <path d="M691.96,196.05l.45-1.15c7.16-18.18-6.11-34.16-18.5-44.37-13.7-11.21-30.15-18.84-47.56-22.07-27.53-5.22-40.91,2.92-47.28,10.68-.88,1.08-1.65,2.26-2.29,3.49l-.87,1.66-.08-1.87c-.07-1.68,.06-3.36,.38-5.01,.74-4.07,2.4-8,4.79-11.38,2.8-3.97,6.58-7.22,10.94-9.39,25.21-12.62,64.8,3.49,65.19,3.66,47.03,21.88,46.47,54.01,46.46,54.33-.2,1.63-.46,3.12-.76,4.49-2.85,13.17-9.46,16.3-9.74,16.43l-1.12,.51Zm-81.83-70.25c4.83,0,10.27,.51,16.4,1.67,17.57,3.26,34.18,10.97,48.01,22.28,12.34,10.16,25.52,25.97,19.31,44.13,1.98-1.48,5.94-5.51,8-14.99,.3-1.34,.55-2.8,.74-4.36,0-.27,.5-31.76-45.86-53.33-.37-.15-39.54-16.09-64.35-3.68-4.2,2.1-7.86,5.23-10.56,9.07-2.31,3.26-3.91,7.06-4.63,10.99-.19,.97-.31,1.94-.35,2.92,.45-.7,.93-1.37,1.45-2.02,5.12-6.22,14.59-12.7,31.84-12.7Z" fill="#002346"></path>
        </g>
        <g>
          <path d="M581.41,126.31c2.77-3.92,6.46-7.09,10.75-9.23,25.3-12.66,64.78,3.67,64.78,3.67,47.25,22,46.15,53.85,46.15,53.85-.2,1.59-.45,3.05-.75,4.4,0,0,10.79-9.25,0-32.38,0,0-23.63-46.15-85.86-43.49-7.55,.28-14.92,2.38-21.48,6.12-6.1,3.57-12.3,9.07-13.59,17.06Z" fill="#002346"></path>
          <path d="M701.53,180.36l.33-1.46c.3-1.34,.55-2.8,.74-4.35,0-.27,.5-31.75-45.86-53.33-.37-.15-39.54-16.09-64.35-3.68-4.2,2.1-7.86,5.23-10.56,9.07l-1.25,1.77,.34-2.13c1.1-6.83,5.76-12.68,13.83-17.41,6.61-3.77,14.12-5.91,21.71-6.19,32.31-1.38,54.05,10.58,66.6,20.86,13.61,11.14,19.66,22.79,19.72,22.9,10.83,23.22,.33,32.6-.12,32.99l-1.14,.98Zm-86.12-68.55c20.89,0,41.44,8.36,41.72,8.48,47.03,21.9,46.47,54.01,46.46,54.33-.11,.91-.24,1.78-.39,2.61,2.39-3.33,6.89-12.81-1.31-30.4-.05-.1-6.03-11.58-19.49-22.6-12.42-10.16-33.93-21.98-65.89-20.61-7.44,.27-14.79,2.37-21.25,6.05-6.91,4.05-11.23,8.92-12.85,14.52,2.61-3.15,5.88-5.74,9.54-7.57,7.08-3.54,15.31-4.82,23.47-4.82Z" fill="#002346"></path>
        </g>
      </g>
    </g>
    <g>
      <rect x="520.56" y="259.78" width="258.26" height="10.44" fill="#fff"></rect>
      <path d="M779.32,270.72h-259.26v-11.44h259.26v11.44Zm-258.26-1h257.26v-9.44h-257.26v9.44Z" fill="#002346"></path>
    </g>
    <g>
      <path d="M515.38,226.81h1.58c2.91,0,5.26,2.35,5.26,5.25h0v392.84h-12.1V232.06c0-2.9,2.35-5.25,5.26-5.25Z" fill="#fff"></path>
      <path d="M522.72,625.4h-13.1V232.06c0-3.17,2.58-5.75,5.76-5.75h1.58c3.18,0,5.76,2.58,5.76,5.75v393.34Zm-12.1-1h11.1V232.06c0-2.62-2.14-4.75-4.76-4.75h-1.58c-2.62,0-4.76,2.13-4.76,4.75v392.34Z" fill="#002346"></path>
    </g>
    <g>
      <rect x="512.87" y="514.74" width="262.1" height="111" fill="#e6e7e8"></rect>
      <path d="M775.47,626.24h-263.1v-112h263.1v112Zm-262.1-1h261.1v-110h-261.1v110Z" fill="#002346"></path>
    </g>
    <rect x="642.96" y="418.53" width="1.65" height="261.85" transform="translate(86.39 1186.38) rotate(-89.29)" fill="#002346"></rect>
    <rect x="642.96" y="461.39" width="1.65" height="261.85" transform="translate(43.54 1228.72) rotate(-89.29)" fill="#002346"></rect>
    <g>
      <rect x="512.87" y="504.3" width="265.95" height="10.44" fill="#fff"></rect>
      <path d="M779.32,515.24h-266.95v-11.44h266.95v11.44Zm-265.95-1h264.95v-9.44h-264.95v9.44Z" fill="#002346"></path>
    </g>
    <g>
      <rect x="587.05" y="302.64" width="80.77" height="39.01" rx="6.38" ry="6.38" fill="#fff"></rect>
      <path d="M661.44,342.15h-68.01c-3.79,0-6.88-3.09-6.88-6.88v-26.25c0-3.79,3.09-6.88,6.88-6.88h68.01c3.79,0,6.88,3.09,6.88,6.88v26.25c0,3.79-3.09,6.88-6.88,6.88Zm-68.01-39.01c-3.24,0-5.88,2.64-5.88,5.88v26.25c0,3.24,2.64,5.88,5.88,5.88h68.01c3.24,0,5.88-2.64,5.88-5.88v-26.25c0-3.24-2.64-5.88-5.88-5.88h-68.01Z" fill="#002346"></path>
    </g>
    <g>
      <path d="M667.82,309.01v26.25c0,3.52-2.84,6.37-6.36,6.38h-7.02c2-1.11,1.31-4.94,1.31-4.94l-.44-26.93c.66-6.6-5.6-7.14-5.6-7.14h11.75c3.52,.01,6.36,2.86,6.36,6.38Z" fill="#e6e7e8"></path>
      <path d="M661.46,342.14h-8.95l1.69-.94c1.38-.76,1.23-3.45,1.06-4.41l-.45-27.01c.19-1.92-.19-3.45-1.13-4.58-1.51-1.83-3.99-2.07-4.01-2.07l.04-1h11.75c3.78,.01,6.86,3.1,6.86,6.88v26.25c0,1.83-.71,3.56-2,4.86-1.3,1.3-3.02,2.02-4.85,2.02Zm-5.8-1h5.78c1.59,0,3.06-.62,4.17-1.73s1.72-2.58,1.71-4.15v-26.25c0-3.23-2.63-5.87-5.86-5.88h-8.71c.59,.34,1.19,.81,1.7,1.42,1.12,1.35,1.58,3.12,1.36,5.27l.44,26.87c.02,.07,.49,2.77-.59,4.45Z" fill="#002346"></path>
    </g>
    <g>
      <path d="M780.23,226.81h1.58c2.91,0,5.26,2.35,5.26,5.26h0v393.67h-12.1V232.07c0-2.91,2.35-5.26,5.26-5.26h0Z" fill="#fff"></path>
      <path d="M787.57,626.24h-13.1V232.07c0-3.18,2.58-5.76,5.76-5.76h1.58c3.18,0,5.76,2.58,5.76,5.76v394.17Zm-12.1-1h11.1V232.07c0-2.62-2.14-4.76-4.76-4.76h-1.58c-2.62,0-4.76,2.14-4.76,4.76v393.17Z" fill="#002346"></path>
    </g>
    <g>
      <rect x="520.56" y="342.2" width="258.26" height="10.44" fill="#fff"></rect>
      <path d="M779.32,353.14h-259.26v-11.44h259.26v11.44Zm-258.26-1h257.26v-9.44h-257.26v9.44Z" fill="#002346"></path>
    </g>
    <g>
      <path d="M222.58,392.01h71.43v13.19h-62.92c-4.7,0-8.51-3.81-8.51-8.51h0v-4.68h0Z" fill="#fff"></path>
      <path d="M294.51,405.7h-63.42c-4.97,0-9.01-4.04-9.01-9.01v-5.18h72.43v14.19Zm-71.43-13.19v4.18c0,4.42,3.59,8.01,8.01,8.01h62.42v-12.19h-70.43Z" fill="#002346"></path>
    </g>
    <g>
      <polyline points="250.06 625.9 250.06 405.18 296.22 405.18 296.22 625.9" fill="#fff"></polyline>
      <polygon points="296.72 625.9 295.72 625.9 295.72 405.68 250.56 405.68 250.56 625.9 249.56 625.9 249.56 404.68 296.72 404.68 296.72 625.9" fill="#002346"></polygon>
    </g>
    <g>
      <rect x="213.79" y="311.22" width="109.35" height="80.77" rx="16.63" ry="16.63" fill="#e6e7e8"></rect>
      <path d="M306.51,392.49h-76.09c-9.45,0-17.13-7.68-17.13-17.13v-47.51c0-9.45,7.68-17.13,17.13-17.13h76.09c9.45,0,17.13,7.68,17.13,17.13v47.51c0,9.45-7.68,17.13-17.13,17.13Zm-76.09-80.77c-8.89,0-16.13,7.24-16.13,16.13v47.51c0,8.89,7.24,16.13,16.13,16.13h76.09c8.89,0,16.13-7.24,16.13-16.13v-47.51c0-8.89-7.24-16.13-16.13-16.13h-76.09Z" fill="#002346"></path>
    </g>
    <g>
      <path d="M139.33,333.2h9.34v10.22c0,2.24-1.82,4.06-4.06,4.06h-1.22c-2.24,0-4.06-1.82-4.06-4.06v-10.22Z" fill="#fff"></path>
      <path d="M144.61,347.98h-1.22c-2.51,0-4.56-2.05-4.56-4.56v-10.72h10.34v10.72c0,2.51-2.05,4.56-4.56,4.56Zm-4.78-14.28v9.72c0,1.96,1.6,3.56,3.56,3.56h1.22c1.96,0,3.56-1.6,3.56-3.56v-9.72h-8.34Z" fill="#002346"></path>
    </g>
    <g>
      <rect x="127.52" y="273.31" width="32.97" height="62.09" rx="7.5" ry="7.5" fill="#fff"></rect>
      <path d="M152.99,335.9h-17.97c-4.41,0-8-3.59-8-8v-47.09c0-4.41,3.59-8,8-8h17.97c4.41,0,8,3.59,8,8v47.09c0,4.41-3.59,8-8,8Zm-17.97-62.09c-3.86,0-7,3.14-7,7v47.09c0,3.86,3.14,7,7,7h17.97c3.86,0,7-3.14,7-7v-47.09c0-3.86-3.14-7-7-7h-17.97Z" fill="#002346"></path>
    </g>
    <g>
      <rect x="142.63" y="261.77" width="2.75" height="7.69" fill="#e6e7e8"></rect>
      <path d="M145.88,269.96h-3.75v-8.69h3.75v8.69Zm-2.75-1h1.75v-6.69h-1.75v6.69Z" fill="#002346"></path>
    </g>
    <path d="M130.23,295.83c-.3-6.3-.3-12.9-.23-19.23v-.24h.23l3.84,.09c1.13,0,2.74,.07,3.85,.14-1.1,.06-2.72,.11-3.85,.15l-3.84,.08,.23-.23c.06,6.34,.06,12.92-.23,19.23h0Z" fill="#fff"></path>
    <g>
      <path d="M130.23,301.33h27.47v17.18c0,6.6-5.35,11.95-11.95,11.95h-3.52c-6.6,.03-11.97-5.3-12-11.9,0-.02,0-.03,0-.05v-17.18h0Z" fill="#5b07b0"></path>
      <path d="M142.18,330.96c-6.84,0-12.42-5.55-12.45-12.4v-17.73h28.47v17.68c0,6.87-5.58,12.45-12.45,12.45h-3.57Zm-11.45-29.13v16.68c.03,6.35,5.16,11.45,11.45,11.45h3.57c6.31,0,11.45-5.14,11.45-11.45v-16.68h-26.47Z" fill="#002346"></path>
    </g>
    <g>
      <rect x="98.4" y="257.37" width="5.49" height="35.72" fill="#fff"></rect>
      <path d="M104.39,293.59h-6.49v-36.72h6.49v36.72Zm-5.49-1h4.49v-34.72h-4.49v34.72Z" fill="#002346"></path>
    </g>
    <g>
      <path d="M100.45,287.59h1.93c3.55,0,6.44,2.87,6.46,6.42v331h-14.84V294.01c.02-3.55,2.9-6.42,6.45-6.42Z" fill="#002346"></path>
      <path d="M109.34,625.51h-15.84V294.01c.02-3.82,3.14-6.92,6.95-6.92h1.94c3.81,0,6.93,3.1,6.95,6.92v331.5Zm-14.84-1h13.84V294.01c-.01-3.27-2.68-5.92-5.95-5.92h-1.94c-3.27,0-5.94,2.66-5.95,5.92v330.5Z" fill="#002346"></path>
    </g>
    <path d="M145.08,618.93h-13.14c-10.33-.01-18.7-8.38-18.71-18.71v-74.15h2.2v74.15c.01,9.11,7.4,16.5,16.51,16.51h13.14c9.11-.01,16.5-7.4,16.51-16.51v-74.15h2.2v74.15c-.01,10.33-8.38,18.7-18.71,18.71Z" fill="#002346"></path>
    <path d="M164.63,591.46h-11c-8.03-.01-14.53-6.52-14.54-14.55v-50.84h2.14v50.84c0,6.81,5.53,12.34,12.34,12.35h11c6.81-.01,12.33-5.54,12.34-12.35v-50.84h2.2v50.84c0,8.01-6.47,14.51-14.48,14.55Z" fill="#002346"></path>
    <g>
      <path d="M131.34,465.07h55.54c8.18,0,14.81,6.63,14.81,14.81v2.22H116.53v-2.22c0-8.18,6.63-14.81,14.81-14.81Z" fill="#fff"></path>
      <path d="M202.19,482.6H116.03v-2.72c0-8.44,6.87-15.31,15.31-15.31h55.54c8.44,0,15.31,6.87,15.31,15.31v2.72Zm-85.16-1h84.16v-1.72c0-7.89-6.42-14.31-14.31-14.31h-55.54c-7.89,0-14.31,6.42-14.31,14.31v1.72Z" fill="#002346"></path>
    </g>
    <g>
      <path d="M120.73,478.81h74c8.39-.01,15.2,6.78,15.21,15.17,0,.01,0,.02,0,.03v7.34H105.54v-7.34c0-8.39,6.79-15.19,15.18-15.2h.01Z" fill="#e6e7e8"></path>
      <path d="M210.44,501.85H105.04v-7.84c0-8.65,7.03-15.69,15.68-15.7h74.03c4.18,0,8.12,1.63,11.08,4.58,2.97,2.96,4.6,6.9,4.61,11.09v7.87Zm-104.4-1h103.4v-6.84c0-3.95-1.54-7.64-4.32-10.41-2.77-2.77-6.46-4.29-10.37-4.29H120.72c-8.1,0-14.69,6.6-14.68,14.7v6.84Z" fill="#002346"></path>
    </g>
    <g>
      <rect x="669.47" y="290" width="93.96" height="52.2" rx="6.38" ry="6.38" fill="#fff"></rect>
      <path d="M757.05,342.7h-81.2c-3.79,0-6.88-3.09-6.88-6.88v-39.44c0-3.79,3.09-6.88,6.88-6.88h81.2c3.79,0,6.88,3.09,6.88,6.88v39.44c0,3.79-3.09,6.88-6.88,6.88Zm-81.2-52.2c-3.24,0-5.88,2.64-5.88,5.88v39.44c0,3.24,2.64,5.88,5.88,5.88h81.2c3.24,0,5.88-2.64,5.88-5.88v-39.44c0-3.24-2.64-5.88-5.88-5.88h-81.2Z" fill="#002346"></path>
    </g>
    <g>
      <path d="M763.43,296.39v39.43c0,3.52-2.86,6.38-6.38,6.38h-19.6c4.31,0,6.6-1.64,7.8-3.29,.89-1.25,1.36-2.75,1.34-4.29v-35.61c.08-4.82-2.26-7.5-4.88-9h15.34c3.52,0,6.37,2.86,6.38,6.38Z" fill="#e6e7e8"></path>
      <path d="M757.05,342.7h-19.6v-1c3.37,0,5.93-1.07,7.4-3.08,.83-1.17,1.26-2.55,1.24-3.99v-35.62c.06-3.89-1.49-6.77-4.63-8.57l-1.63-.93h17.22c3.79,0,6.87,3.09,6.88,6.88v39.43c0,3.79-3.09,6.88-6.88,6.88Zm-14.49-1h14.49c3.24,0,5.88-2.64,5.88-5.88v-39.43c0-3.24-2.64-5.88-5.88-5.88h-13.7c2.54,1.99,3.8,4.85,3.74,8.51v35.6c.02,1.65-.47,3.23-1.43,4.58-.63,.86-1.6,1.81-3.09,2.5Z" fill="#002346"></path>
    </g>
    <g>
      <path d="M234.12,392.01h71.43v13.19h-62.92c-4.7,0-8.51-3.81-8.51-8.51h0v-4.68h0Z" fill="#e6e7e8"></path>
      <path d="M306.05,405.7h-63.42c-4.97,0-9.01-4.04-9.01-9.01v-5.18h72.43v14.19Zm-71.43-13.19v4.18c0,4.42,3.59,8.01,8.01,8.01h62.42v-12.19h-70.43Z" fill="#002346"></path>
    </g>
    <g>
      <rect x="231.37" y="311.22" width="109.35" height="80.77" rx="11.41" ry="11.41" fill="#fff"></rect>
      <path d="M329.31,392.49h-86.53c-6.57,0-11.91-5.34-11.91-11.91v-57.95c0-6.57,5.34-11.91,11.91-11.91h86.53c6.57,0,11.91,5.34,11.91,11.91v57.95c0,6.57-5.34,11.91-11.91,11.91Zm-86.53-80.77c-6.02,0-10.91,4.89-10.91,10.91v57.95c0,6.02,4.89,10.91,10.91,10.91h86.53c6.02,0,10.91-4.89,10.91-10.91v-57.95c0-6.02-4.89-10.91-10.91-10.91h-86.53Z" fill="#002346"></path>
    </g>
    <g>
      <rect x="236.32" y="316.16" width="81.87" height="71.98" rx="7.34" ry="7.34" fill="#5b07b0"></rect>
      <path d="M310.85,388.64h-67.19c-4.32,0-7.84-3.52-7.84-7.84v-57.3c0-4.32,3.52-7.84,7.84-7.84h67.19c4.32,0,7.84,3.52,7.84,7.84v57.3c0,4.32-3.52,7.84-7.84,7.84Zm-67.19-71.98c-3.77,0-6.84,3.07-6.84,6.84v57.3c0,3.77,3.07,6.84,6.84,6.84h67.19c3.77,0,6.84-3.07,6.84-6.84v-57.3c0-3.77-3.07-6.84-6.84-6.84h-67.19Z" fill="#002346"></path>
    </g>
    <g opacity=".21">
      <path d="M243.65,388.15c-4.05,0-7.33-3.29-7.33-7.34v-57.31c0-4.05,3.28-7.33,7.33-7.34,0,0-3.49,1.1-3.49,7.7v59.89s-.16,2.2,3.49,4.4Z" fill="#5b07b0"></path>
    </g>
    <g>
      <rect x="294.01" y="324.41" width="19.78" height="4.4" fill="#fff"></rect>
      <path d="M314.29,329.31h-20.78v-5.4h20.78v5.4Zm-19.78-1h18.78v-3.4h-18.78v3.4Z" fill="#002346"></path>
    </g>
    <g>
      <rect x="294.01" y="331.46" width="19.78" height="4.4" fill="#fff"></rect>
      <path d="M314.29,336.36h-20.78v-5.4h20.78v5.4Zm-19.78-1h18.78v-3.4h-18.78v3.4Z" fill="#002346"></path>
    </g>
    <g>
      <rect x="294.01" y="338.5" width="19.78" height="4.4" fill="#fff"></rect>
      <path d="M314.29,343.4h-20.78v-5.4h20.78v5.4Zm-19.78-1h18.78v-3.4h-18.78v3.4Z" fill="#002346"></path>
    </g>
    <g>
      <rect x="294.01" y="345.54" width="19.78" height="4.4" fill="#fff"></rect>
      <path d="M314.29,350.44h-20.78v-5.4h20.78v5.4Zm-19.78-1h18.78v-3.4h-18.78v3.4Z" fill="#002346"></path>
    </g>
    <path d="M285.77,330.73c-.12,0-.22-.08-.26-.19l-1.32-4-.35,1.74c-.02,.13-.14,.22-.27,.22h-3.84c-.12,0-.22-.07-.26-.18l-1.36-3.63-1.42,4.71c-.04,.11-.15,.19-.27,.2-.12,0-.23-.09-.26-.21l-.87-3.48-.8,2.4c-.04,.11-.14,.19-.26,.19h-4.94c-.15,0-.27-.13-.28-.28v-2.42l-1.67,4.21c-.04,.11-.15,.19-.27,.18-.12-.01-.22-.1-.25-.22l-.88-4-.79,2.36c-.04,.11-.14,.19-.26,.19h-4.94c-.14,0-.26-.1-.28-.24l-.36-2.53-1.3,4.76c-.03,.12-.14,.21-.27,.21-.13,0-.24-.1-.26-.23l-.88-4.38-.79,2.76c-.03,.12-.14,.2-.26,.2h-4.95c-.15,0-.27-.13-.27-.28v-2.68l-1.68,3.35c-.05,.1-.15,.17-.26,.16-.11-.01-.2-.08-.24-.19l-.87-2.59-.82,2.05c-.04,.11-.14,.18-.25,.18h-3.85c-.15,0-.27-.13-.27-.28,0-.15,.12-.27,.27-.27h3.66l1-2.58c.05-.11,.15-.18,.27-.17,.11,0,.21,.08,.25,.19l.89,2.67,1.9-3.81c.06-.11,.19-.17,.31-.14,.12,.03,.21,.14,.21,.27v3.57h4.46l1-3.65c.04-.12,.15-.2,.28-.2,.13,0,.23,.1,.26,.22l.87,4.36,1.34-4.93c.04-.12,.15-.21,.28-.2,.13,.01,.24,.11,.26,.24l.63,3.65h4.51l1-3.11c.03-.12,.15-.2,.27-.19,.13,0,.23,.1,.26,.22l.9,4.07,1.87-4.67c.07-.14,.24-.19,.38-.13,.09,.04,.15,.13,.15,.24v3.57h4.47l1-3.11c.04-.11,.15-.19,.27-.19,.12,0,.23,.09,.26,.21l.85,3.43,1.37-4.54c.03-.11,.13-.19,.25-.2,.12,0,.23,.07,.27,.18l1.58,4.22h3.43l.5-2.53c.03-.12,.13-.21,.26-.22,.12,0,.24,.07,.27,.19l1.37,4.08,1.4-5.17c.04-.12,.15-.2,.27-.2h0c.12,0,.23,.08,.26,.2l1.08,3.65h2c.15,0,.27,.12,.27,.27,0,.15-.12,.27-.27,.28h-2.2c-.12,0-.23-.08-.27-.2l-.82-2.9-1.39,5.09c-.04,.12-.14,.2-.26,.21l-.02-.03Z" fill="#fff"></path>
    <path d="M257.75,350.51h0c-.13-.02-.23-.12-.25-.25l-.89-8-.76,4.2c-.02,.13-.14,.22-.27,.22h-6.35l-.51,3.07c-.03,.13-.14,.23-.28,.23-.14,0-.25-.1-.27-.24l-.86-6.92-.79,4.73c-.02,.13-.14,.23-.27,.23h-2.75c-.15-.03-.25-.18-.22-.33,.02-.11,.11-.2,.22-.22h2.52l1.06-6.36c0-.15,.12-.27,.27-.27,.15,0,.27,.12,.27,.27l.87,6.92,.24-1.44c.02-.13,.14-.23,.27-.23h6.36l1.06-5.82c.02-.13,.14-.23,.28-.22,.13,0,.25,.11,.26,.24l.95,8.51,.71-2.51c.04-.12,.15-.2,.27-.2h5.81l1.06-5.82c.02-.14,.14-.23,.28-.22,.14,0,.25,.1,.26,.24l.88,7.42,.23-1.39c.02-.13,.14-.23,.27-.23h6.34l.53-5.25c.01-.14,.13-.25,.27-.24h0c.14,0,.26,.1,.27,.24l.87,6.92,.24-1.44c.02-.13,.14-.23,.27-.23h6.92l1.05-5.27c.02-.14,.15-.24,.29-.22,.14,0,.25,.12,.26,.26l.39,6.61,.16-1.14c.02-.14,.13-.24,.27-.24h3.85c.15,.03,.25,.18,.22,.33-.02,.11-.11,.2-.22,.22h-3.61l-.52,3.61c-.02,.14-.14,.24-.28,.24-.14,0-.25-.12-.26-.26l-.43-7.21-.68,3.4c-.02,.13-.14,.22-.27,.22h-6.91l-.51,3.07c-.03,.13-.14,.22-.27,.23-.14,0-.25-.1-.27-.24l-.8-6.37-.3,3.06c-.02,.14-.14,.25-.28,.25h-6.36l-.51,3.07c-.02,.14-.14,.24-.28,.23-.13,0-.24-.11-.26-.24l-.89-7.52-.77,4.24c-.02,.13-.14,.22-.27,.22h-5.84l-1,3.65c-.04,.14-.19,.23-.33,.19,0,0,0,0-.01,0Z" fill="#002346"></path>
    <path d="M290.72,364.24h-2.75c-.15,0-.27-.12-.28-.27v-1.96c.07-.91-.61-1.7-1.52-1.77-.91-.07-1.7,.61-1.77,1.52,0,.09,0,.17,0,.26v2c0,.15-.13,.27-.28,.27h-5.49c-.15,0-.27-.12-.28-.27v-2c.07-.91-.61-1.7-1.52-1.77-.91-.07-1.7,.61-1.77,1.52,0,.09,0,.17,0,.26v2c0,.15-.13,.27-.28,.27h-4.94c-.15,0-.27-.11-.28-.26,0,0,0,0,0-.01v-2c0-.91-.74-1.65-1.65-1.65s-1.65,.74-1.65,1.65v2c0,.15-.12,.27-.27,.27h-6c-.15,0-.27-.11-.28-.26,0,0,0,0,0-.01v-2c0-.91-.74-1.65-1.65-1.65s-1.65,.74-1.65,1.65v2c0,.15-.12,.27-.27,.27h-5c-.15,0-.27-.12-.27-.27v-2c0-.91-.74-1.65-1.65-1.65s-1.65,.74-1.65,1.65v2c0,.15-.12,.27-.27,.27h-4.4c-.15,0-.27-.12-.27-.27,0-.15,.12-.27,.27-.28h4.12v-1.72c0-1.22,.98-2.2,2.2-2.2,1.22,0,2.2,.98,2.2,2.2h0v1.65h4.39v-1.64c0-1.22,.98-2.2,2.2-2.2,1.22,0,2.2,.98,2.2,2.2h0v1.65h5.5v-1.64c-.08-1.21,.83-2.26,2.05-2.34,1.21-.08,2.26,.83,2.34,2.05,0,.1,0,.2,0,.3v1.64h4.4v-1.64c-.08-1.21,.83-2.26,2.05-2.34,1.21-.08,2.26,.83,2.34,2.05,0,.1,0,.2,0,.3v1.64h4.95v-1.64c-.08-1.21,.83-2.26,2.05-2.34,1.21-.08,2.26,.83,2.34,2.05,0,.1,0,.2,0,.3v1.64h2.48c.15,0,.27,.13,.27,.28,.02,.15-.08,.28-.23,.31-.01,0-.02,0-.03,0Z" fill="#fff"></path>
    <circle cx="247.03" cy="375.23" r="3.02" fill="#f8f6ee"></circle>
    <circle cx="255.06" cy="375.23" r="3.02" fill="#f8f6ee"></circle>
    <circle cx="263.08" cy="375.23" r="3.02" fill="#f8f6ee"></circle>
    <circle cx="271.1" cy="375.23" r="3.02" fill="#f8f6ee"></circle>
    <circle cx="279.12" cy="375.23" r="3.02" fill="#f8f6ee"></circle>
    <circle cx="287.15" cy="375.23" r="3.02" fill="#f8f6ee"></circle>
    <path d="M227.84,432.24c-5.06,.07-10.05-1.29-14.37-3.93l.21-1.21c6.77,4.03,14.92,5.06,22.48,2.83l.31,1.05c-2.8,.83-5.71,1.25-8.63,1.26Z" fill="#002346"></path>
    <g>
      <path d="M175.87,471.12l14.28,.53,19.79,2.22s1.65,20.88,23.63,22.53h22l-3.85-69.24s-15.93,4.4-33,22.53l-17-3.3-29.67,17,3.82,7.73Z" fill="#f2b3c1"></path>
      <path d="M256.1,496.9h-22.53c-20.46-1.53-23.69-19.6-24.08-22.58l-19.4-2.18-14.54-.54-4.16-8.42,30.24-17.33,16.91,3.28c16.9-17.86,32.88-22.42,33.04-22.47l.6-.17,3.91,70.39Zm-79.91-26.27l13.98,.52,20.24,2.27,.03,.41c.07,.84,1.88,20.47,23.17,22.07h21.43s-3.78-68.07-3.78-68.07c-3.04,1.01-17.25,6.35-32.17,22.2l-.19,.2-17.09-3.32-29.1,16.67,3.48,7.04Z" fill="#002346"></path>
    </g>
    <g>
      <path d="M262.69,496.4v32.41H106.37c-6.72,0-12.75-4.16-15.14-10.44-.71-1.84-1.07-3.8-1.06-5.77-.01-8.94,7.22-16.19,16.16-16.2,.02,0,.03,0,.05,0h156.31Z" fill="#fff"></path>
      <path d="M263.19,529.31H106.37c-6.89,0-13.16-4.33-15.61-10.76-.73-1.91-1.1-3.91-1.09-5.95,0-4.45,1.72-8.64,4.87-11.8s7.33-4.89,11.79-4.9h156.86v33.41Zm-156.81-32.41c-4.24,0-8.17,1.64-11.13,4.61-2.96,2.97-4.58,6.91-4.58,11.09,0,1.92,.34,3.8,1.03,5.59,2.3,6.05,8.2,10.12,14.67,10.12h155.82v-31.41H106.38Z" fill="#002346"></path>
    </g>
    <g>
      <path d="M161.59,255.72c0,4.55-3.69,8.23-8.24,8.24h-50c-4.55,0-8.24-3.69-8.24-8.24s3.69-8.24,8.24-8.24h50c.78,0,1.56,.11,2.31,.33,3.51,1.03,5.93,4.25,5.93,7.91Z" fill="#002346"></path>
      <path d="M153.35,264.46h-50c-4.82,0-8.74-3.92-8.74-8.74s3.92-8.74,8.74-8.74h50c.83-.01,1.65,.11,2.45,.35,3.7,1.08,6.29,4.53,6.29,8.39h0c0,4.81-3.93,8.73-8.74,8.74Zm-50-16.48c-4.27,0-7.74,3.47-7.74,7.74s3.47,7.74,7.74,7.74h50c4.26,0,7.73-3.48,7.74-7.74,0-3.42-2.29-6.47-5.57-7.43-.71-.21-1.47-.31-2.17-.31h-50Z" fill="#002346"></path>
    </g>
    <path d="M131.64,392.54c-7.13,0-12.9-5.78-12.91-12.91v-127.21c.21-4.23,1.08-6.53,2.65-7,1.83-.6,3.62,1.51,3.82,1.75l-.85,.7c-.41-.5-1.68-1.72-2.63-1.41-.6,.2-1.65,1.25-1.89,6v127.17c.19,6.53,5.63,11.66,12.16,11.47,6.26-.18,11.29-5.21,11.47-11.47v-49.18h1.09v49.18c0,7.13-5.78,12.9-12.91,12.91Z" fill="#002346"></path>
    <g>
      <path d="M619.11,425.79v.23l-10.76,2.79s-33,7.69-114.84-14.84c-23.34-7.67-47.15-13.85-71.28-18.5l-.19-47.46s1.42-28.65,20.77-44.54l22.29-25.12s7.93-.09,19.33,.84c20.17,1.63,51.19,6.43,68.39,20.47,0,0,11.54,3.85,42.86,59.89l23.43,66.24Z" fill="#5b07b0"></path>
      <path d="M591.12,430.53c-17.57,0-49.15-2.7-97.75-16.08-23.27-7.64-47.23-13.86-71.24-18.49l-.4-.08-.19-47.87c.02-.32,1.65-29.08,20.95-44.93l22.38-25.23h.22c.08,0,8.08-.08,19.38,.84,21.97,1.78,51.7,6.78,68.6,20.53,1.24,.51,13.1,6.51,43.04,60.08l23.49,66.4v.7l-11.13,2.89c-.14,.03-5.62,1.23-17.35,1.23Zm-168.39-35.47c23.92,4.63,47.78,10.83,70.94,18.44,80.76,22.23,114.24,14.91,114.57,14.83l10.29-2.67-23.32-65.94c-30.65-54.83-42.44-59.54-42.55-59.58l-.15-.08c-16.69-13.63-46.25-18.59-68.11-20.36-10.21-.83-17.72-.86-19.06-.84l-22.14,24.95c-19.02,15.62-20.63,43.95-20.64,44.23l.19,47.02Z" fill="#002346"></path>
    </g>
    <path d="M490.73,404.63c-1.52,2.43-2.04,5.35-1.45,8.16,0,0-15.11-5-32.38-9.62,0,0,1.41-7.33,4.16-11.18,0,0-20.17-10.32-20-18.42,.06-.55,.55-.95,1.1-.89,.09,0,.17,.03,.25,.06,4.06,2,18.43,9,28.72,15.87,.63,.42,1.23,.88,1.81,1.36l17.79,14.66Z" fill="#5b07b0"></path>
    <g>
      <path d="M490.73,404.63c-1.52,2.43-2.04,5.35-1.45,8.16,0,0-15.11-5-32.38-9.62,0,0,1.41-7.33,4.16-11.18,0,0-20.17-10.32-20-18.42,.06-.55,.55-.95,1.1-.89,.09,0,.17,.03,.25,.06,4.06,2,18.43,9,28.72,15.87,.63,.42,1.23,.88,1.81,1.36l17.79,14.66Z" fill="#f2b3c1"></path>
      <path d="M489.95,413.54l-.83-.27c-.15-.05-15.3-5.05-32.35-9.61l-.45-.12,.09-.46c.06-.29,1.35-6.93,3.92-10.9-3.21-1.7-19.93-10.93-19.77-18.61,.04-.44,.24-.8,.55-1.05,.31-.25,.7-.37,1.1-.33,.13,.01,.26,.04,.38,.09l.53,.26c4.54,2.23,18.35,9.03,28.29,15.66,.64,.43,1.27,.9,1.85,1.39l18.13,14.94-.23,.37c-1.46,2.33-1.95,5.1-1.38,7.79l.18,.85Zm-32.46-10.73c14.68,3.94,27.86,8.17,31.16,9.25-.35-2.53,.15-5.09,1.43-7.31l-17.46-14.39c-.56-.47-1.16-.92-1.77-1.33-9.88-6.6-23.65-13.37-28.17-15.6l-.49-.24s-.04,0-.08-.01c-.13-.01-.27,.02-.37,.11s-.17,.2-.18,.34c-.16,7.66,19.53,17.82,19.73,17.92l.52,.26-.34,.47c-2.27,3.17-3.62,8.88-3.98,10.53Z" fill="#002346"></path>
    </g>
    <g>
      <path d="M352.81,379.9c1.11,2.86,1.43,5.97,.91,9,0,0,34.13-.93,68.54,6.59v-13.81s-41.43-7.82-69.45-1.78Z" fill="#5b07b0"></path>
      <path d="M422.76,396.11l-.61-.13c-33.95-7.42-68.08-6.59-68.42-6.58l-.61,.02,.1-.6c.5-2.94,.19-5.96-.88-8.74l-.21-.55,.57-.12c27.8-5.99,69.23,1.7,69.65,1.78l.41,.08v14.85Zm-65.52-7.74c9.55,0,37.02,.57,64.52,6.5v-12.77c-4.34-.78-42.17-7.24-68.28-1.83,.91,2.6,1.19,5.39,.82,8.12,.58,0,1.58-.02,2.93-.02Z" fill="#002346"></path>
    </g>
    <path d="M298.85,400.72s-1.54-13.12,33.08-16.42c0,0-10.07-3.64-13.14-8-.77-1.12-.49-2.65,.63-3.42,.45-.31,.98-.46,1.53-.43,4.68,.21,15.48,1.42,31.86,7.41,0,0,1.82,3.12,.91,9,0,.02-32.89,1.97-54.87,11.86Z" fill="#5b07b0"></path>
    <g>
      <path d="M298.85,400.72s-1.54-13.12,33.08-16.42c0,0-10.07-3.64-13.14-8-.77-1.12-.49-2.65,.63-3.42,.45-.31,.98-.46,1.53-.43,4.68,.21,15.48,1.42,31.86,7.41,0,0,1.82,3.12,.91,9,0,.02-32.89,1.97-54.87,11.86Z" fill="#f2b3c1"></path>
      <path d="M298.43,401.46l-.08-.68c-.01-.11-.28-2.69,2.28-5.86,3.13-3.88,10.75-8.85,29.21-10.9-3.12-1.3-9.14-4.13-11.46-7.42-.45-.66-.62-1.44-.47-2.22s.58-1.45,1.23-1.9c.53-.37,1.19-.55,1.84-.52,4.96,.22,15.72,1.49,32,7.44l.17,.06,.09,.16c.08,.13,1.9,3.34,.97,9.33,0,.39-.45,.42-.67,.44-5.61,.4-34.62,2.86-54.49,11.8l-.62,.28Zm22.39-28.51c-.4,0-.79,.12-1.11,.34-.43,.3-.72,.74-.82,1.26-.1,.51,.02,1.04,.31,1.47,2.94,4.18,12.8,7.78,12.9,7.81l2.09,.76-2.22,.21c-19.53,1.86-27.38,6.84-30.52,10.69-1.55,1.89-1.97,3.55-2.08,4.45,19.78-8.65,47.9-11.11,53.91-11.55,.62-4.69-.52-7.47-.83-8.13-16.05-5.85-26.64-7.09-31.53-7.31-.04,0-.07,0-.11,0Z" fill="#002346"></path>
    </g>
    <g>
      <path d="M484.43,279.21l-12,18.17c-2.53,3.88-5.57,7.39-9.05,10.45-11.69,10.21-14.82,3.1-14.82,3.1l16.52-32.56s7.95-.09,19.35,.84Z" fill="#fff"></path>
      <path d="M452.83,313.84c-.47,0-.92-.05-1.35-.14-2.46-.55-3.34-2.48-3.38-2.57l-.1-.22,.11-.21,16.66-32.83h.3c.08,0,8.11-.08,19.4,.84l.84,.07-12.47,18.88c-2.55,3.91-5.63,7.46-9.14,10.55-4.29,3.75-7.94,5.64-10.88,5.64Zm-3.71-2.92c.26,.43,1.03,1.46,2.6,1.8,1.93,.42,5.47-.15,11.33-5.27,3.44-3.03,6.46-6.51,8.96-10.35l11.54-17.47c-9.59-.75-16.64-.77-18.16-.77l-16.26,32.06Z" fill="#002346"></path>
    </g>
    <g>
      <path d="M618.23,299.68s-12.64-2.75-17.58,2.75c-4.72-.6-9.03-2.96-12.09-6.6,0,0-7.7-7.14-4.95-13.73,0,0-6-1.65-4.39-9.89-3.52-.39-6.37-3.05-7-6.54-.28-1.47-.34-2.97-.16-4.45-1.26-.88-2.22-2.12-2.76-3.55-.95-2.4-1.07-6.1,2.21-11.29,0,0,2.2-7.14,12.09-3.85,0,0,6-17.58,23.08-7.69,0,0,24.18,12.64,23.08,39-.01,.01,9.33,15.95-11.53,25.84Z" fill="#5b07b0"></path>
      <path d="M600.84,302.96l-.26-.03c-4.86-.62-9.26-3.02-12.41-6.77-.28-.25-7.53-7.08-5.21-13.76-1.45-.64-5.43-3.02-4.33-9.76-3.48-.61-6.28-3.37-6.91-6.87-.27-1.42-.34-2.86-.2-4.3-1.22-.92-2.15-2.17-2.7-3.61-.9-2.28-1.25-6.16,2.22-11.68,.15-.43,1.05-2.74,3.64-4.07,2.29-1.18,5.18-1.24,8.61-.18,.68-1.71,3.41-7.62,9.22-9.79,4.21-1.58,9.06-.81,14.41,2.29,.23,.12,24.35,13.04,23.33,39.32,.72,1.36,3.38,7.05,1.29,13.49-1.71,5.26-6.12,9.61-13.11,12.92l-.15,.07-.17-.04c-.12-.03-12.41-2.62-17.1,2.6l-.18,.2Zm-22.03-60.8c-1.37,0-2.59,.27-3.65,.81-2.43,1.24-3.17,3.53-3.18,3.55l-.05,.12c-2.6,4.11-3.35,7.86-2.17,10.84,.51,1.35,1.4,2.5,2.58,3.32l.25,.17-.04,.3c-.17,1.43-.12,2.88,.15,4.3,.58,3.26,3.28,5.78,6.56,6.14l.54,.06-.1,.53c-1.5,7.66,3.81,9.25,4.03,9.31l.54,.15-.22,.52c-2.58,6.19,4.75,13.1,4.83,13.17,2.97,3.54,7.05,5.8,11.56,6.44,4.92-5.12,16.13-3.07,17.71-2.74,6.64-3.18,10.82-7.3,12.43-12.25,2.03-6.25-.7-11.76-1.26-12.8l-.18-.34,.12-.13c.96-25.61-22.58-38.23-22.82-38.36-5.1-2.95-9.66-3.7-13.57-2.23-6.23,2.33-8.78,9.57-8.8,9.64l-.16,.47-.47-.16c-1.69-.56-3.24-.84-4.63-.84Z" fill="#002346"></path>
    </g>
    <g>
      <path d="M569.74,262.25c-1.74,4.29-3.98,8.37-6.65,12.15-2.62,3.62-4.6,7.65-5.86,11.93-3.45,11.78-4.75,31.21,25.31,29.29l8.79,13.73,18.14-8.24-6.6-15.93-13.73-.55-4.91-15.39s-2.24-2.2-.59-7.14c0,0-6-1.65-4.39-9.89-3.38-.68-6.09-3.21-7-6.54-.65-1.27-1.5-2.42-2.51-3.42Z" fill="#f2b3c1"></path>
      <path d="M591.14,329.99l-8.87-13.85c-11.42,.68-19.37-1.68-23.65-7.03-5.2-6.5-3.89-16.05-1.88-22.92,1.28-4.35,3.28-8.41,5.93-12.08,2.65-3.74,4.86-7.79,6.59-12.05l.28-.69,.53,.53c1.05,1.04,1.93,2.23,2.6,3.55l.04,.1c.86,3.17,3.4,5.54,6.62,6.18l.49,.1-.1,.49c-1.5,7.66,3.81,9.25,4.03,9.31l.5,.14-.16,.5c-1.52,4.54,.39,6.55,.47,6.63l.08,.08,.04,.12,4.8,15.06,13.7,.55,6.91,16.67-18.97,8.62Zm-8.34-14.88l8.72,13.61,17.31-7.86-6.29-15.19-13.76-.55-4.98-15.62c-.43-.49-2.06-2.74-.77-7.1-1.43-.62-5.48-3-4.35-9.81-3.35-.85-5.96-3.39-6.89-6.74-.51-.98-1.14-1.89-1.87-2.7-1.71,4.06-3.87,7.94-6.41,11.54-2.59,3.58-4.54,7.54-5.79,11.78-1.94,6.64-3.23,15.85,1.7,22.01,4.1,5.12,11.87,7.35,23.1,6.64l.29-.02Z" fill="#002346"></path>
    </g>
    <g>
      <path d="M585.48,307.28c-5.63,5.46-13.3,8.29-21.12,7.79-11.65-2.5-12-17.91-11.42-25.25,.21-3.11,1.31-6.1,3.17-8.6,.46-.63,.98-1.2,1.57-1.71,1.94-1.63,3.1-.84,3.1-.84,10.16,10.87,20.64,13.17,20.64,13.17l1.09,4.17,2.97,11.27Z" fill="#0a063e"></path>
      <path d="M566.11,315.63c-.6,0-1.19-.02-1.79-.06-12.37-2.65-12.43-18.92-11.89-25.79,.21-3.21,1.34-6.27,3.27-8.86,.48-.65,1.03-1.26,1.65-1.79,2.21-1.86,3.65-.92,3.71-.88l.08,.07c9.92,10.62,20.28,13,20.38,13.02l.3,.07,4.21,16.02-.21,.2c-5.29,5.13-12.39,7.99-19.71,7.99Zm-6.13-36.65c-.42,0-1.09,.17-1.98,.92-.55,.48-1.05,1.02-1.49,1.62-1.81,2.44-2.87,5.32-3.08,8.34-.52,6.62-.49,22.26,11.03,24.73,7.5,.47,14.96-2.24,20.46-7.46l-3.91-14.87c-1.8-.48-11.37-3.4-20.54-13.19-.06-.03-.23-.09-.48-.09Z" fill="#002346"></path>
    </g>
    <g>
      <path d="M577.84,290.86s1-7.11,3.9-9.59l1.85,.83c-.84,2.68-.51,5.58,.92,8-1.23,.17-2.34,.81-3.09,1.79l-3.58-1.03Z" fill="#002346"></path>
      <path d="M581.61,292.47l-4.32-1.24,.06-.43c.04-.3,1.06-7.33,4.07-9.9l.24-.21,2.54,1.14-.13,.42c-.8,2.54-.48,5.31,.87,7.59l.38,.65-.75,.1c-1.1,.15-2.08,.72-2.76,1.6l-.21,.27Zm-3.2-1.96l2.84,.82c.67-.76,1.54-1.3,2.5-1.57-1.15-2.27-1.42-4.9-.76-7.37l-1.15-.52c-2.17,2.13-3.17,7.15-3.43,8.64Z" fill="#002346"></path>
    </g>
    <g>
      <rect x="331.38" y="521.67" width="100.17" height="58.79" fill="#fff"></rect>
      <path d="M432.05,580.96h-101.17v-59.79h101.17v59.79Zm-100.17-1h99.17v-57.79h-99.17v57.79Z" fill="#002346"></path>
    </g>
    <g>
      <polyline points="327.69 625.9 327.69 592.22 437.04 592.22 437.04 625.9" fill="#fff"></polyline>
      <polygon points="437.54 625.9 436.53 625.9 436.53 592.73 328.19 592.73 328.19 625.9 327.18 625.9 327.18 591.72 437.54 591.72 437.54 625.9" fill="#002346"></polygon>
    </g>
    <g>
      <path d="M339.38,575.73h84.85c11.6,0,21,9.4,21,21h0v3.15h-126.88v-3.15c0-11.6,9.4-21,21-21h.03Z" fill="#0a063e"></path>
      <path d="M445.73,600.38h-127.88v-3.65c0-11.86,9.65-21.5,21.5-21.5h84.88c11.85,0,21.5,9.64,21.5,21.5v3.65Zm-126.88-1h125.88v-2.65c0-11.3-9.2-20.5-20.5-20.5h-84.88c-11.3,0-20.5,9.2-20.5,20.5v2.65Z" fill="#002346"></path>
    </g>
    <g>
      <polyline points="549.52 626.19 549.52 547.29 462.87 534.52 468.01 625.52" fill="#0a063e"></polyline>
      <polygon points="550.02 626.19 549.02 626.19 549.02 547.72 463.4 535.11 468.51 625.5 467.51 625.55 462.33 533.94 462.94 534.03 550.02 546.86 550.02 626.19" fill="#002346"></polygon>
    </g>
    <g>
      <path d="M617.66,625.19l5.49-83.18-91.76,4.36s14.67,51.24,27.2,79.82" fill="#0a063e"></path>
      <path d="M558.13,626.39c-12.4-28.28-27.08-79.37-27.22-79.88l-.17-.61,.63-.03,92.32-4.39-5.53,83.74-1-.07,5.45-82.62-90.57,4.3c1.7,5.87,15.36,52.6,27,79.15l-.92,.4Z" fill="#002346"></path>
    </g>
    <g>
      <path d="M440.45,301.01l6.32,8.6s1.73,2.77,8.2,.35c5.18-1.93,9.49-5.66,12.14-10.51,1.71-3.16,2.82-6.61,3.29-10.17,.6-2.25,.2-4.66-1.1-6.59l-4.95-5.5-23.9,23.82Z" fill="#f2b3c1"></path>
      <path d="M450.3,311.45c-2.92,0-3.9-1.49-3.95-1.58l-6.55-8.92,24.58-24.49,5.3,5.89c1.43,2.11,1.85,4.66,1.21,7.05-.46,3.57-1.59,7.05-3.33,10.28-2.71,4.96-7.11,8.77-12.41,10.74-2.02,.75-3.61,1.02-4.85,1.02Zm-9.19-10.39l6.06,8.25s1.69,2.4,7.62,.18c5.07-1.88,9.29-5.53,11.88-10.28,1.68-3.12,2.77-6.48,3.23-10,.58-2.18,.2-4.43-1.02-6.25l-4.56-5.05-23.22,23.14Z" fill="#002346"></path>
    </g>
    <g>
      <rect x="412.59" y="236.19" width="51.8" height="66.72" rx="25.9" ry="25.9" transform="translate(-66.02 167.54) rotate(-20.15)" fill="#f2b3c1"></rect>
      <path d="M441.04,302.97c-3.78,0-7.55-.82-11.08-2.46-6.4-2.96-11.26-8.24-13.69-14.86l-5.14-14.01c-5.01-13.67,2.02-28.86,15.69-33.88,13.67-5.01,28.86,2.03,33.88,15.69l5.14,14.01c2.43,6.62,2.13,13.79-.83,20.19s-8.24,11.26-14.86,13.69h0c-2.97,1.09-6.04,1.63-9.11,1.63Zm-5.15-65.82c-2.9,0-5.85,.5-8.72,1.56-13.15,4.82-19.92,19.45-15.1,32.6l5.14,14.01c2.34,6.37,7.01,11.45,13.17,14.3,6.16,2.85,13.05,3.13,19.42,.8h0c6.37-2.34,11.45-7.01,14.3-13.17,2.85-6.16,3.13-13.05,.8-19.42l-5.14-14.01c-3.77-10.27-13.52-16.65-23.87-16.65Z" fill="#002346"></path>
    </g>
    <path d="M452.81,272.16c-.13,0-.26-.05-.36-.15-.19-.2-.18-.52,.02-.71l13.19-12.64c.2-.19,.52-.18,.71,.02,.19,.2,.18,.52-.02,.71l-13.19,12.64c-.1,.09-.22,.14-.35,.14Z" fill="#002346"></path>
    <path d="M455.4,292.9c-.11,0-.22-.04-.31-.11-.22-.17-.25-.49-.08-.7l13.9-17.45c.17-.22,.49-.25,.7-.08,.22,.17,.25,.49,.08,.7l-13.9,17.45c-.1,.12-.24,.19-.39,.19Z" fill="#002346"></path>
    <g>
      <ellipse cx="468.2" cy="265.34" rx="8.24" ry="10.71" fill="#f2b3c1"></ellipse>
      <path d="M468.2,276.55c-4.82,0-8.74-5.03-8.74-11.21s3.92-11.21,8.74-11.21,8.74,5.03,8.74,11.21-3.92,11.21-8.74,11.21Zm0-21.42c-4.27,0-7.74,4.58-7.74,10.21s3.47,10.21,7.74,10.21,7.74-4.58,7.74-10.21-3.47-10.21-7.74-10.21Z" fill="#002346"></path>
    </g>
    <g>
      <path d="M472.9,256.38s-10.28-4.71-9.14,7.2c1.6,6.22-1.06,6.43-1.06,6.43-4.94,1.65-5.49-8.24-5.49-8.24-12.09,1.09-19.23-13.76-19.23-13.76l-7.15-.55s-2,8.14-15.56,10.12c0,0-9.71,9.66-16.85-1.88l2.74-1.1s-3.6-2.16-2.05-7.34c.46-1.5,1.15-2.91,2.05-4.2,0,0,12.64-15.38,41.21-15.93,0,.02,34.68-4.12,30.53,29.25Z" fill="#002346"></path>
      <path d="M461.63,270.7c-.63,0-1.22-.18-1.76-.55-2.34-1.59-2.97-6.28-3.12-7.84-11.08,.6-18.06-11.84-19.09-13.82l-6.47-.5c-.61,1.73-3.67,8.25-15.69,10.06-.76,.72-4.87,4.32-9.64,3.76-3.04-.36-5.68-2.32-7.86-5.84l-.31-.5,2.51-1.01c-1.05-1.01-2.75-3.36-1.56-7.33,.48-1.55,1.19-3.01,2.12-4.34,.15-.19,13.14-15.59,41.6-16.14,2.82-.27,16.96-1.13,25.34,7.48,4.99,5.14,6.92,12.65,5.71,22.33l-.08,.68-.62-.28s-4.17-1.87-6.62-.12c-1.53,1.09-2.14,3.38-1.81,6.82,.74,2.84,.69,4.92-.15,6.1-.48,.68-1.08,.83-1.29,.87-.41,.13-.8,.2-1.18,.2Zm-3.95-9.47l.03,.52c0,.06,.36,5.98,2.72,7.58,.61,.42,1.3,.49,2.11,.21l.12-.02s.35-.05,.65-.5c.36-.53,.83-1.93-.04-5.31-.38-3.9,.37-6.5,2.21-7.81,2.31-1.65,5.62-.72,6.99-.22,1-9.05-.85-16.07-5.51-20.86-8.24-8.47-22.85-7.34-24.49-7.19l-.22,.02h-.02c-27.89,.57-40.57,15.58-40.69,15.73-.84,1.21-1.51,2.58-1.96,4.03-1.41,4.72,1.7,6.68,1.83,6.76l.85,.52-3.1,1.25c1.94,2.93,4.23,4.57,6.8,4.88,4.72,.56,8.91-3.55,8.95-3.59l.12-.12,.16-.02c13.03-1.9,15.13-9.67,15.15-9.75l.1-.41,7.86,.6,.12,.26c.07,.15,7.12,14.53,18.73,13.48l.52-.05Z" fill="#002346"></path>
    </g>
    <g opacity=".2">
      <path d="M430.83,247.48s-2,8.14-15.56,10.12c0,0-9.71,9.66-16.85-1.88l2.74-1.1s-3.6-2.16-2.05-7.34c2.65,4,7,8.41,12.49,6.79,0,0,.45-3.11,.13-3.73,1.09,.45,7.58,1.94,19.1-2.86Z"></path>
    </g>
    <g>
      <path d="M473.17,244.24s-31.61-16.39-66.77-4.84l.81-2.71,2.2-12.29s2.74-10.44,15.93-12.09c0,0,13.59-3.53,27.39-.27,6.17,1.33,11.89,4.27,16.57,8.51,0,0,3.85,3.85,3.85,15.94l.02,7.75Z" fill="#0a063e"></path>
      <path d="M473.67,245.07l-.73-.38c-.31-.16-31.84-16.16-66.38-4.81l-.91,.3,1.08-3.62,2.19-12.23c.04-.15,2.99-10.83,16.36-12.5,.07-.02,13.81-3.51,27.57-.26,6.24,1.35,12.05,4.33,16.79,8.63,.18,.18,4.01,4.15,4.01,16.31l.02,8.57Zm-41.15-10.25c20.55,0,36.6,6.96,40.15,8.63l-.02-6.95c0-11.68-3.67-15.55-3.71-15.59-4.59-4.16-10.24-7.06-16.32-8.37-13.52-3.19-27.02,.23-27.16,.27-12.77,1.6-15.54,11.63-15.57,11.73l-2.19,12.25-.55,1.85c8.82-2.78,17.43-3.82,25.37-3.82Z" fill="#002346"></path>
    </g>
    <g>
      <path d="M452.81,271.66s-30.33-5.83-37.41,9.74c0,0,3,21,26.89,21.84,9.9,.35,16.11-10.98,13.09-20.41-.96-2.99-1.86-6.68-2.57-11.17Z" fill="#0a063e"></path>
      <path d="M442.74,303.75c-.16,0-.31,0-.47,0-24.03-.85-27.33-22.06-27.36-22.27l-.02-.14,.06-.13c7.16-15.75,36.7-10.26,37.96-10.02l.35,.07,.05,.35c.64,4.06,1.49,7.8,2.55,11.1,1.68,5.25,.66,11.25-2.67,15.64-2.66,3.51-6.35,5.43-10.44,5.43Zm-26.82-22.28c.33,1.98,3.97,20.48,26.39,21.27,3.94,.17,7.52-1.64,10.08-5.02,3.14-4.14,4.1-9.79,2.52-14.74-1.04-3.25-1.89-6.92-2.53-10.89-3.34-.57-29.91-4.61-36.45,9.38Z" fill="#002346"></path>
    </g>
    <g>
      <rect x="134.9" y="414.9" width="78" height="52" rx="26" ry="26" fill="#f2b3c1"></rect>
      <path d="M186.9,467.4h-26c-14.61,0-26.5-11.89-26.5-26.5s11.89-26.5,26.5-26.5h26c14.61,0,26.5,11.89,26.5,26.5s-11.89,26.5-26.5,26.5Zm-26-52c-14.06,0-25.5,11.44-25.5,25.5s11.44,25.5,25.5,25.5h26c14.06,0,25.5-11.44,25.5-25.5s-11.44-25.5-25.5-25.5h-26Z" fill="#002346"></path>
    </g>
    <g>
      <path d="M152.65,407.67s12.78-8,20.75,6.85c-4.85,.15-9.67,.81-14.38,1.95,0,0,.08-5.21-6.37-8.8Z" fill="#002346"></path>
      <path d="M158.51,417.11v-.64c0-.2-.02-4.97-6.11-8.36l-.74-.41,.72-.45c.22-.14,5.51-3.39,11.53-1.79,4.02,1.07,7.36,4.04,9.93,8.83l.38,.71-.81,.03c-4.8,.15-9.61,.8-14.28,1.94l-.62,.15Zm-4.85-9.42c4.7,2.94,5.63,6.68,5.81,8.16,4.29-1,8.69-1.6,13.09-1.79-2.37-4.12-5.37-6.69-8.9-7.63-4.33-1.15-8.37,.46-10,1.27Z" fill="#002346"></path>
    </g>
    <g>
      <path d="M181.16,414.65l1.24,21.3,30.31,.53c.99-2.76,1.36-5.7,1.08-8.62-.74-7.35-6.64-13.12-14-13.71-6.21-.4-12.45-.24-18.63,.5Z" fill="#5b07b0"></path>
      <path d="M213.06,436.99l-31.13-.54-1.3-22.23,.47-.06c6.19-.74,12.49-.91,18.72-.5,7.62,.61,13.7,6.56,14.46,14.16,.28,2.97-.1,6.03-1.11,8.84l-.12,.34Zm-30.19-1.53l29.48,.52c.87-2.58,1.19-5.36,.94-8.07-.72-7.11-6.42-12.69-13.54-13.26-6-.39-12.08-.24-18.06,.44l1.19,20.37Z" fill="#002346"></path>
    </g>
    <g>
      <ellipse cx="167.36" cy="472.22" rx="11.26" ry="8.24" fill="#f2b3c1"></ellipse>
      <path d="M167.36,480.96c-6.48,0-11.76-3.92-11.76-8.74s5.28-8.74,11.76-8.74,11.76,3.92,11.76,8.74-5.28,8.74-11.76,8.74Zm0-16.48c-5.93,0-10.76,3.47-10.76,7.74s4.83,7.74,10.76,7.74,10.76-3.47,10.76-7.74-4.83-7.74-10.76-7.74Z" fill="#002346"></path>
    </g>
    <g>
      <path d="M174.23,465.6c-4.09-1.95-8.8-2.17-13.05-.61-.44,4.87-2.85,6.68-2.85,6.68,6.05,15.93-10.44,15.38-10.44,15.38-1.78,.11-3.57-.15-5.25-.74-7.94-3-7.94-13.54-7.94-13.54-23.07-1.65-14.28-20.88-14.28-20.88-8.79-15.39,2.74-24.73,2.74-24.73,5-23.08,18.14-22.53,18.14-22.53,3.28-.61,6.66-.06,9.58,1.55,1.71,.93,3.28,2.09,4.67,3.46,3.96,3.9,5.14,9.81,3,14.93-1.79,4.06-4.08,7.88-6.81,11.38,10.44,4.4,3.29,12.09,3.29,12.09,7.7-1.1,9.35,2.2,9.35,2.2,2.19,4.94-1.1,10.44-1.1,10.44,10.95-1.67,10.95,4.92,10.95,4.92Z" fill="#002346"></path>
      <path d="M147.06,487.58c-1.54,0-3.09-.27-4.58-.79-7.2-2.72-8.14-11.43-8.26-13.55-7.09-.59-11.89-2.92-14.27-6.92-3.42-5.76-.69-12.97-.09-14.39-8.14-14.52,1.55-23.88,2.85-25.03,4.94-22.52,17.47-22.8,18.55-22.76,3.37-.61,6.86-.04,9.86,1.61,1.75,.95,3.36,2.14,4.78,3.54,4.12,4.06,5.35,10.14,3.11,15.48-1.72,3.91-3.9,7.6-6.48,10.99,3.01,1.39,4.78,3.23,5.26,5.46,.55,2.54-.73,4.91-1.62,6.19,6.94-.64,8.59,2.47,8.66,2.61,1.77,4,.2,8.24-.66,10.04,3.88-.45,6.78,.12,8.63,1.71,1.91,1.64,1.93,3.75,1.93,3.83v.79l-.72-.34c-3.85-1.84-8.34-2.09-12.37-.7-.43,3.87-2.06,5.81-2.73,6.46,1.76,4.8,1.66,8.62-.3,11.36-3.27,4.57-10.44,4.39-10.74,4.38-.27,.02-.54,.02-.82,.02Zm-5.81-82.45c-.74,0-12.88,.36-17.6,22.14l-.04,.17-.14,.11c-.46,.37-11.09,9.27-2.62,24.09l.13,.22-.11,.23c-.04,.08-3.52,7.88-.06,13.71,2.25,3.79,6.94,5.97,13.92,6.47l.46,.03v.47c0,.1,.1,10.23,7.62,13.07,1.62,.57,3.32,.81,5.04,.71,.11,0,6.99,.17,9.95-3.96,1.79-2.51,1.81-6.12,.06-10.74l-.13-.35,.3-.23s2.24-1.77,2.65-6.33l.03-.32,.3-.11c4.06-1.49,8.6-1.39,12.58,.25-.17-.62-.57-1.5-1.46-2.26-1.74-1.48-4.78-1.95-8.78-1.34l-1.05,.16,.54-.91c.03-.05,3.13-5.34,1.07-9.98,0,0-1.65-2.93-8.82-1.91l-1.4,.2,.96-1.03s2.83-3.11,2.15-6.29c-.44-2.03-2.21-3.72-5.26-5l-.6-.25,.4-.51c2.71-3.46,4.98-7.25,6.75-11.27,2.07-4.95,.94-10.6-2.89-14.37-1.35-1.34-2.89-2.47-4.56-3.38-2.81-1.55-6.1-2.08-9.25-1.5h-.05s-.06,0-.06,0c0,0-.02,0-.03,0Z" fill="#002346"></path>
    </g>
    <g>
      <path d="M640.23,420.57l-1,23.54-4,102.84c-65.39,29.12-162.09-7.15-162.09-7.15l-42.31-9.89c-40.11-10.44-95.06,19.78-95.06,19.78-41.21,17.59-94.51,1.1-94.51,1.1-.55-13.18,6.05-29.12,6.05-29.12,5.49-22-6.6-46.16-6.6-46.16-1.47-3.89-2.57-7.91-3.28-12-1.4-8.19-1.95-16.51-1.66-24.81-2.2-19.78,15.93-23.63,15.93-23.63,9.95-2.58,16.44-2.69,19.64-2.48,1.6,.11,3.2-.3,4.55-1.17,34.26-22.15,64.28-21.62,64.28-21.62,25.24-2.91,55.31,.54,82.09,5.67,24.11,4.67,47.9,10.86,71.22,18.54,81.87,22.53,114.84,14.84,114.84,14.84l10.76-2.84,21.15-5.44Z" fill="#5b07b0"></path>
      <path d="M574.18,558.73c-16.14,0-31.6-1.75-44.6-3.93-32.03-5.37-56.37-14.43-56.62-14.52l-42.25-9.87c-39.48-10.28-94.16,19.43-94.71,19.73-40.95,17.48-94.36,1.3-94.9,1.14l-.34-.1v-.35c-.56-13.14,6.01-29.17,6.07-29.33,5.36-21.49-6.47-45.5-6.59-45.75-1.5-3.95-2.61-8.02-3.33-12.14-1.4-8.21-1.96-16.59-1.67-24.91-2.22-19.93,16.14-24.06,16.33-24.1,10.14-2.63,16.75-2.69,19.78-2.49,1.49,.11,3-.28,4.25-1.09,33.99-21.98,64.26-21.7,64.56-21.7,21.73-2.51,49.4-.6,82.18,5.68,24.04,4.66,48.02,10.9,71.28,18.56,80.73,22.22,114.24,14.91,114.57,14.83l10.75-2.84,21.81-5.61-1.03,24.21-4.01,103.15-.28,.13c-19,8.46-40.67,11.32-61.25,11.32Zm-161.65-31.48c6.33,0,12.54,.65,18.43,2.18l42.3,9.89c1.03,.38,97.04,35.78,161.49,7.31l3.99-102.53,.97-22.87-20.5,5.27-10.76,2.84c-.34,.08-34.05,7.46-115.1-14.84-23.24-7.65-47.18-13.88-71.18-18.53-32.68-6.26-60.24-8.17-81.94-5.66-.36,0-30.34-.26-64.07,21.54-1.43,.93-3.15,1.37-4.86,1.25-2.97-.19-9.45-.13-19.48,2.47-.74,.16-17.68,4-15.56,23.09-.29,8.33,.27,16.64,1.66,24.78,.7,4.05,1.8,8.06,3.25,11.91,.1,.2,12.09,24.53,6.62,46.46-.09,.23-6.46,15.77-6.05,28.62,4.62,1.35,54.96,15.41,93.83-1.18,.43-.24,40.47-21.99,76.96-21.99Z" fill="#002346"></path>
    </g>
    <g>
      <path d="M665.46,326.06s61,47.8,54.4,66.48c0,0-2.66,8.53-7.92,14.16,0,0-35.49-68.56-46.48-80.64Z" fill="#0a063e"></path>
      <path d="M711.82,407.56l-.33-.63c-.35-.68-35.58-68.64-46.41-80.53l.68-.73c2.5,1.96,61.21,48.24,54.56,67.04-.1,.33-2.75,8.69-8.03,14.33l-.48,.52Zm-43.17-78.29c12.46,17.18,39.86,69.74,43.41,76.56,4.81-5.47,7.3-13.36,7.33-13.44,5.5-15.57-37.91-52.61-50.73-63.12Z" fill="#002346"></path>
    </g>
    <g>
      <path d="M497.86,423.27h-6s-12.64-7.14-22.53-7.14l-12.1-1.61s-3.85,4.4,9.89,7.15c0,0,5.5,1.09,3.85,3.84,0,0-6.05,4.4-12.64,3.85,0,0-9.38-2.53-14.1-2.32-.72,.04-1.28,.66-1.24,1.38,.02,.32,.15,.62,.38,.85,4,3.94,15,14.11,23.72,15.35,.95,.13,1.92,.08,2.85-.13,3.45-.74,13.88-3.08,22.46-5.79,0,0,4.51-1.78,6.93-1.44l-1.47-13.99Z" fill="#f2b3c1"></path>
      <path d="M468.16,445.2c-.38,0-.76-.03-1.14-.08-8.73-1.24-19.7-11.25-24-15.49-.32-.32-.5-.74-.53-1.18-.05-1,.71-1.85,1.71-1.9,4.75-.21,13.87,2.23,14.26,2.34,5.82,.47,11.38-3.2,12.13-3.71,.21-.39,.24-.73,.1-1.05-.49-1.1-2.81-1.79-3.67-1.96-6.29-1.26-9.87-3.05-10.64-5.32-.51-1.51,.43-2.61,.47-2.65l.18-.2,12.37,1.64h0c9.45,0,21.21,6.37,22.58,7.14h6.32l1.58,15.07-.63-.09c-2.27-.32-6.63,1.39-6.68,1.41-9.18,2.9-20.39,5.35-22.54,5.81-.62,.14-1.25,.21-1.88,.21Zm-23.34-17.67c-.19,0-.38,0-.56,.01-.44,.02-.78,.41-.76,.85,.01,.2,.09,.39,.23,.53,4.23,4.17,15,14.01,23.43,15.21,.89,.12,1.79,.08,2.67-.12,2.15-.46,13.32-2.9,22.42-5.78,.14-.06,3.95-1.53,6.52-1.51l-1.36-12.95h-5.68l-.11-.06c-.12-.07-12.64-7.08-22.28-7.08l-11.86-1.57c-.16,.28-.36,.82-.13,1.48,.37,1.07,2.15,3.1,9.88,4.64,.37,.07,3.6,.76,4.39,2.53,.2,.45,.32,1.17-.21,2.05l-.13,.15c-.25,.18-6.28,4.51-12.98,3.94-.17-.04-8.73-2.33-13.47-2.33Z" fill="#002346"></path>
    </g>
    <g>
      <path d="M737.45,459.01c-45.6-2.24-90.47,23.89-105.61,33.72-3.48,2.25-5.39,3.65-5.39,3.65-11.54-25.83-18.13-67.59-18.13-67.59l-14.84-13.19c-18.68,30.22-57.14,31.87-57.14,31.87-35.72,3.3-36.82-8.24-36.82-8.24l-.21-2-1.44-13.4c1.65-15.93,19.78-15.93,19.78-15.93,18.69-3.24,29.86-6.71,35.35-8.72,2.63-.96,4.69-3.06,5.6-5.71l12.35-35.57c6.6-28.58,32.42-37.37,32.42-37.37,29.67-19.78,62.09,5.5,62.09,5.5,23.08,29.7,71.99,132.98,71.99,132.98Z" fill="#0a063e"></path>
      <path d="M626.24,497.15l-.25-.57c-11.05-24.74-17.65-64.54-18.14-67.54l-14.26-12.68c-18.72,29.62-56.84,31.59-57.23,31.6-35.78,3.31-37.29-8.2-37.34-8.69l-1.66-15.45v-.05c1.68-16.19,20.1-16.38,20.28-16.38,18.94-3.29,30.17-6.86,35.18-8.69,2.5-.92,4.43-2.89,5.3-5.4l12.35-35.57c6.41-27.77,31.21-37.13,32.67-37.66,29.61-19.69,62.3,5.3,62.62,5.56l.09,.09c22.85,29.4,71.56,132.04,72.05,133.07l.36,.75-.83-.04c-44.9-2.19-88.6,22.79-105.31,33.64-3.43,2.22-5.35,3.62-5.37,3.63l-.5,.37Zm-32.88-82.32l15.42,13.7,.03,.18c.07,.41,6.62,41.39,17.84,66.9,.79-.56,2.47-1.73,4.91-3.3,16.69-10.83,60.17-35.7,105.07-33.84-4.49-9.43-49.77-104.04-71.54-132.08-1.43-1.08-32.96-24.44-61.46-5.44l-.12,.06c-.26,.09-25.64,9.04-32.09,37.01l-12.36,35.62c-.97,2.8-3.12,4.99-5.9,6.02-5.04,1.84-16.33,5.43-35.44,8.74-.81,0-17.75,.2-19.36,15.44l1.64,15.35c.01,.11,1.65,11,36.28,7.79,.41-.02,38.44-2,56.76-31.63l.31-.51Z" fill="#002346"></path>
    </g>
    <g>
      <path d="M759.43,625.01c-1.65-113.23-25.51-166.13-25.51-166.11-6.35-1.01-17.41,.61-25.83,2.21,0-.05-.02-.11-.03-.16,0,0-34.35,4.67-81.61,35.45l-19.34,130.06" fill="#fff"></path>
      <path d="M607.6,626.54l-.99-.15,19.37-130.28,.19-.12c46.81-30.49,81.47-35.48,81.82-35.53l.47-.06,.02,.13c8.25-1.55,19.18-3.12,25.51-2.12,.11,0,.66-.01,4.15,10.37,2.07,6.15,5.2,16.45,8.4,30.62,5.63,25,12.53,67.08,13.38,125.61h-1c-1.57-107.94-23.64-161.65-25.36-165.65-6.36-.92-17.29,.71-25.39,2.25l-.49,.09-.03-.17c-4.29,.71-37.19,6.86-80.74,35.18l-19.31,129.84Z" fill="#002346"></path>
    </g>
    <g>
      <ellipse cx="584.79" cy="297.24" rx="9.96" ry="6.35" transform="translate(-14.7 563.6) rotate(-50.9)" fill="#f2b3c1"></ellipse>
      <path d="M581.45,306.44c-1.23,0-2.36-.35-3.26-1.08-1.45-1.18-2.1-3.15-1.83-5.54,.27-2.31,1.37-4.76,3.11-6.9,1.74-2.14,3.91-3.72,6.12-4.45,2.28-.76,4.34-.53,5.8,.66,2.93,2.38,2.36,7.96-1.28,12.44-2.52,3.1-5.87,4.87-8.65,4.87Zm6.66-17.4c-.69,0-1.43,.13-2.2,.39-2.03,.67-4.04,2.14-5.65,4.13h0c-1.62,1.99-2.65,4.26-2.89,6.38-.24,2.04,.28,3.69,1.46,4.65,2.5,2.03,7.22,.4,10.51-3.65s3.93-9,1.43-11.03c-.71-.58-1.62-.87-2.65-.87Z" fill="#002346"></path>
    </g>
    <g>
      <path d="M600.63,302.43c6-5.5,17.58-2.75,17.58-2.75,8.79,5.5,5.49,13.74,5.49,13.74-7.8-.07-20.33,7.14-20.33,7.14-8.24-1.1-8.79-9.34-8.79-9.34-9.89,2.2-10-6.66-10-6.66,0,0,4-.19,6.59-6,1.56,1.29,3.32,2.3,5.22,3,1.36,.5,2.79,.79,4.24,.87Z" fill="#002346"></path>
      <path d="M603.47,321.08l-.17-.02c-7.26-.97-8.84-7.3-9.15-9.24-3.05,.58-5.49,.16-7.26-1.24-2.73-2.17-2.81-5.86-2.81-6.02v-.48s.48-.02,.48-.02c.15,0,3.74-.28,6.16-5.7l.27-.6,.51,.42c1.52,1.26,3.23,2.24,5.07,2.92,1.25,.46,2.56,.74,3.89,.83,6.16-5.43,17.4-2.84,17.87-2.72l.15,.06c9.04,5.66,5.72,14.26,5.69,14.35l-.13,.32h-.34c-7.57-.06-19.95,7-20.08,7.07l-.15,.08Zm-8.43-10.47l.04,.58c.02,.32,.62,7.74,8.19,8.86,1.49-.84,12.6-6.99,20.08-7.12,.49-1.52,2.06-8.1-5.33-12.77-1.01-.22-11.57-2.37-17.05,2.65l-.15,.14h-.21c-1.5-.09-2.97-.39-4.39-.91-1.75-.64-3.39-1.54-4.86-2.68-2.15,4.37-5.07,5.4-6.24,5.64,.11,.97,.55,3.35,2.41,4.82,1.62,1.28,3.96,1.6,6.95,.93l.57-.13Z" fill="#002346"></path>
    </g>
    <g>
      <path d="M572.23,265.67h-.05c-4.84-2.14-2.93-8-2.93-8h.06c.54,1.43,1.5,2.67,2.76,3.55-.18,1.48-.12,2.98,.16,4.45Z" fill="#002346"></path>
      <path d="M572.83,266.17l-.86-.04c-5.19-2.3-3.22-8.55-3.2-8.61l.11-.34h.71l.18,.32c.51,1.35,1.4,2.49,2.58,3.32l.25,.17-.04,.3c-.17,1.43-.12,2.88,.15,4.3l.12,.59Zm-3.39-7.06c-.22,1.57-.16,4.18,2.13,5.67-.14-1.1-.15-2.22-.04-3.33-.85-.64-1.56-1.44-2.09-2.34Z" fill="#002346"></path>
    </g>
    <g>
      <path d="M148.68,269.67v3.64h-9.35v-3.68c.02-2.23,1.84-4.02,4.07-4.02h1.22c2.24,0,4.06,1.82,4.06,4.06Z" fill="#fff"></path>
      <path d="M149.18,273.81h-10.35v-4.18c.02-2.49,2.07-4.52,4.57-4.52h1.22c2.51,0,4.56,2.05,4.56,4.56v4.14Zm-9.35-1h8.35v-3.14c0-1.96-1.6-3.56-3.56-3.56h-1.22c-1.95,0-3.55,1.58-3.57,3.52v3.18Z" fill="#002346"></path>
    </g>
    <path d="M497.87,397.99c-.24,0-.45-.17-.49-.42-.04-.27,.14-.53,.41-.57l56.53-9.09c.27-.05,.53,.14,.57,.41,.04,.27-.14,.53-.41,.57l-56.53,9.09s-.05,0-.08,0Z" fill="#002346"></path>
    <path d="M545.9,384.4c-.28,0-.5-.22-.5-.5v-68.77c0-.28,.22-.5,.5-.5s.5,.22,.5,.5v68.77c0,.28-.22,.5-.5,.5Z" fill="#002346"></path>
  </g>
  <rect x="32.07" y="625.96" width="801.62" height="1" fill="#002346"></rect>
</svg>
