<?xml version="1.0" encoding="UTF-8"?>
<svg xmlns="http://www.w3.org/2000/svg" id="a" width="865.76" height="682.89" viewBox="0 0 865.76 682.89">
  <g>
    <g>
      <rect x="499.7" y="423.48" width="9.51" height="232.44" fill="#fff"></rect>
      <path d="M509.71,656.42h-10.51v-233.44h10.51v233.44Zm-9.51-1h8.51v-231.44h-8.51v231.44Z" fill="#002346"></path>
    </g>
    <g>
      <rect x="253.67" y="423.48" width="9.51" height="232.44" fill="#fff"></rect>
      <path d="M263.68,656.42h-10.51v-233.44h10.51v233.44Zm-9.51-1h8.51v-231.44h-8.51v231.44Z" fill="#002346"></path>
    </g>
    <g>
      <rect x="294.44" y="476.5" width="14.95" height="126.41" fill="#fff"></rect>
      <path d="M309.89,603.41h-15.95v-127.41h15.95v127.41Zm-14.95-1h13.95v-125.41h-13.95v125.41Z" fill="#002346"></path>
    </g>
    <g>
      <polygon points="290.37 597.47 313.22 597.71 313.22 612.62 385.78 650.71 385.78 655.37 365.73 655.37 365.73 650.71 313.22 628.56 306.68 628.56 306.68 655.37 313.22 655.37 313.22 658.51 289.43 658.51 289.43 654.89 295.8 654.89 295.8 627.43 290.85 627.43 238.18 650.71 238.18 654.41 216.97 654.41 216.97 650.71 290.37 612.42 290.37 597.47" fill="#e6e7e8"></polygon>
      <path d="M313.72,659.01h-24.79v-4.62h6.37v-26.46h-4.34l-52.28,23.11v3.88h-22.21v-4.5l.27-.14,73.13-38.15v-15.15l23.85,.25v15.1l72.56,38.09v5.46h-21.05v-4.83l-52.11-21.98h-5.94v25.81h6.54v4.14Zm-23.79-1h22.79v-2.14h-6.54v-27.81l7.23,.04,52.82,22.28v4.49h19.05v-3.86l-72.56-38.09v-14.72l-21.85-.23v14.75l-.27,.14-73.13,38.15v2.9h20.21v-3.53l53.17-23.46h5.45v28.46h-6.37v2.62Z" fill="#002346"></path>
    </g>
    <g>
      <rect x="634.26" y="626.02" width="8.16" height="23.11" fill="#fff"></rect>
      <path d="M642.92,649.63h-9.16v-24.11h9.16v24.11Zm-8.16-1h7.16v-22.11h-7.16v22.11Z" fill="#002346"></path>
    </g>
    <g>
      <circle cx="638.34" cy="651.84" r="9.51" fill="#e6e7e8"></circle>
      <path d="M638.34,661.85c-5.52,0-10.01-4.49-10.01-10.01s4.49-10.01,10.01-10.01,10.01,4.49,10.01,10.01-4.49,10.01-10.01,10.01Zm0-19.02c-4.97,0-9.01,4.04-9.01,9.01s4.04,9.01,9.01,9.01,9.01-4.04,9.01-9.01-4.04-9.01-9.01-9.01Z" fill="#002346"></path>
    </g>
    <path d="M663.31,517c-2.89,0-5.91-.19-9.06-.57-.27-.03-.47-.28-.44-.56,.03-.27,.28-.48,.56-.44,17.55,2.1,30.97-1.75,39.89-11.45,19.69-21.41,11.09-64.6,11-65.04-.06-.27,.12-.54,.39-.59,.27-.06,.53,.12,.59,.39,.09,.44,8.8,44.13-11.24,65.92-7.54,8.2-18.18,12.33-31.69,12.33Z" fill="#002346"></path>
    <g>
      <path d="M619.31,397.64s-25.82,13.59-51.65,8.15c0,0-6.8,10-19,11.11l-22-2.19v-7.56s7.72-6.15,39.33-11.22c10.13-2.58,19.85-6.55,28.89-11.8,0,0,1.87-1.25,4.55-3,5.35-3.44,14-8.74,17.43-9.53l-.2,20.13c-.02,2.03,.77,3.99,2.19,5.44l.46,.47Z" fill="#f2b3c1"></path>
      <path d="M548.71,417.4l-22.55-2.24v-8.25l.19-.15c.32-.25,8.18-6.29,39.56-11.32,10.04-2.56,19.72-6.51,28.72-11.74,0,0,1.86-1.25,4.53-2.99,5.02-3.23,13.98-8.77,17.59-9.6l.62-.14-.2,20.76c-.02,1.91,.71,3.72,2.05,5.09l.93,.95-.59,.31c-.26,.14-26.06,13.5-51.67,8.26-1.22,1.63-8.02,10.04-19.17,11.05Zm-21.55-3.14l21.55,2.15c11.72-1.08,18.47-10.8,18.54-10.89l.19-.28,.33,.07c23.19,4.89,46.68-5.83,50.71-7.8-1.51-1.56-2.33-3.61-2.31-5.78l.19-19.46c-3.98,1.29-12.87,6.86-16.65,9.29-2.67,1.75-4.54,2.99-4.54,3-9.11,5.29-18.87,9.27-29.04,11.87-28.5,4.57-37.59,10.07-38.95,10.99v6.85Z" fill="#002346"></path>
    </g>
    <path d="M89.99,652.99c-4.01-.02-7.87-1.51-10.85-4.2-19-16.27-19.37-73.9-19.38-76.35-1.67-40.65,5.17-56.67,11.19-62.95,3.5-3.65,6.47-3.69,6.6-3.69v1s-2.73,.07-5.94,3.45c-5.86,6.18-12.5,22-10.85,62.17,0,.61,.42,59.64,19,75.61,3.43,3.12,8.1,4.51,12.68,3.77l.15,1c-.86,.13-1.73,.19-2.6,.19Z" fill="#002346"></path>
    <path d="M91.54,652.8c-22.21,0-26.27-42.51-26.43-44.31-2.59-38.3,2.81-52.69,7.79-58,2.47-2.63,4.55-2.66,4.64-2.66v1s-1.81,.06-4,2.43c-3.93,4.3-10.13,17.43-7.44,57.18,0,.42,4.13,43.39,25.43,43.39v.97Z" fill="#002346"></path>
    <path d="M91.76,650.81c-5.23,0-9.38-1.89-12.36-5.62-11.66-14.63-1.77-52.42-1.35-54l1,.26c-.1,.38-10.18,38.9,1.17,53.14,2.91,3.66,7.07,5.43,12.33,5.23v1h-.79Z" fill="#002346"></path>
    <g>
      <rect x="91.25" y="497.44" width="130" height="158" fill="#fff"></rect>
      <path d="M221.75,655.94H90.75v-159H221.75v159Zm-130-1H220.75v-157H91.75v157Z" fill="#002346"></path>
    </g>
    <g>
      <g>
        <rect x="80.25" y="491.44" width="152" height="35" rx="5.93" ry="5.93" fill="#0a063e"></rect>
        <path d="M226.32,526.94H86.18c-3.55,0-6.43-2.88-6.43-6.43v-23.14c0-3.54,2.88-6.43,6.43-6.43H226.32c3.55,0,6.43,2.88,6.43,6.43v23.14c0,3.55-2.88,6.43-6.43,6.43Zm-140.14-35c-2.99,0-5.43,2.44-5.43,5.43v23.14c0,2.99,2.44,5.43,5.43,5.43H226.32c2.99,0,5.43-2.44,5.43-5.43v-23.14c0-2.99-2.44-5.43-5.43-5.43H86.18Z" fill="#002346"></path>
      </g>
      <g>
        <g>
          <rect x="75.25" y="501.44" width="162" height="14" fill="#fff"></rect>
          <path d="M237.75,515.94H74.75v-15H237.75v15Zm-162-1H236.75v-13H75.75v13Z" fill="#002346"></path>
        </g>
        <g>
          <g>
            <path d="M139.75,504.94h86c1.93,0,3.5,1.57,3.5,3.5h0c0,1.93-1.57,3.5-3.5,3.5h-86c-1.93,0-3.5-1.57-3.5-3.5h0c0-1.93,1.57-3.5,3.5-3.5Z" fill="#e6e7e8"></path>
            <path d="M225.75,512.44h-86c-2.21,0-4-1.79-4-4s1.79-4,4-4h86c2.21,0,4,1.79,4,4s-1.79,4-4,4Zm-86-7c-1.65,0-3,1.35-3,3s1.35,3,3,3h86c1.65,0,3-1.35,3-3s-1.35-3-3-3h-86Z" fill="#002346"></path>
          </g>
          <g>
            <circle cx="87.75" cy="508.44" r="4.5" fill="#e6e7e8"></circle>
            <path d="M87.75,513.44c-2.76,0-5-2.24-5-5s2.24-5,5-5,5,2.24,5,5-2.24,5-5,5Zm0-9c-2.21,0-4,1.79-4,4s1.79,4,4,4,4-1.79,4-4-1.79-4-4-4Z" fill="#002346"></path>
          </g>
          <g>
            <circle cx="107.75" cy="508.44" r="4.5" fill="#e6e7e8"></circle>
            <path d="M107.75,513.44c-2.76,0-5-2.24-5-5s2.24-5,5-5,5,2.24,5,5-2.24,5-5,5Zm0-9c-2.21,0-4,1.79-4,4s1.79,4,4,4,4-1.79,4-4-1.79-4-4-4Z" fill="#002346"></path>
          </g>
          <g>
            <circle cx="125.75" cy="508.44" r="4.5" fill="#e6e7e8"></circle>
            <path d="M125.75,513.44c-2.76,0-5-2.24-5-5s2.24-5,5-5,5,2.24,5,5-2.24,5-5,5Zm0-9c-2.21,0-4,1.79-4,4s1.79,4,4,4,4-1.79,4-4-1.79-4-4-4Z" fill="#002346"></path>
          </g>
        </g>
      </g>
    </g>
    <g>
      <g>
        <rect x="80.25" y="532.11" width="152" height="35" rx="5.93" ry="5.93" fill="#0a063e"></rect>
        <path d="M226.32,567.61H86.18c-3.55,0-6.43-2.88-6.43-6.43v-23.14c0-3.55,2.88-6.43,6.43-6.43H226.32c3.55,0,6.43,2.88,6.43,6.43v23.14c0,3.54-2.88,6.43-6.43,6.43Zm-140.14-35c-2.99,0-5.43,2.44-5.43,5.43v23.14c0,2.99,2.44,5.43,5.43,5.43H226.32c2.99,0,5.43-2.44,5.43-5.43v-23.14c0-2.99-2.44-5.43-5.43-5.43H86.18Z" fill="#002346"></path>
      </g>
      <g>
        <g>
          <rect x="75.25" y="542.11" width="162" height="14" fill="#fff"></rect>
          <path d="M237.75,556.61H74.75v-15H237.75v15Zm-162-1H236.75v-13H75.75v13Z" fill="#002346"></path>
        </g>
        <g>
          <g>
            <path d="M139.75,545.61h86c1.93,0,3.5,1.57,3.5,3.5h0c0,1.93-1.57,3.5-3.5,3.5h-86c-1.93,0-3.5-1.57-3.5-3.5h0c0-1.93,1.57-3.5,3.5-3.5Z" fill="#e6e7e8"></path>
            <path d="M225.75,553.11h-86c-2.21,0-4-1.79-4-4s1.79-4,4-4h86c2.21,0,4,1.79,4,4s-1.79,4-4,4Zm-86-7c-1.65,0-3,1.35-3,3s1.35,3,3,3h86c1.65,0,3-1.35,3-3s-1.35-3-3-3h-86Z" fill="#002346"></path>
          </g>
          <g>
            <circle cx="87.75" cy="549.11" r="4.5" fill="#e6e7e8"></circle>
            <path d="M87.75,554.11c-2.76,0-5-2.24-5-5s2.24-5,5-5,5,2.24,5,5-2.24,5-5,5Zm0-9c-2.21,0-4,1.79-4,4s1.79,4,4,4,4-1.79,4-4-1.79-4-4-4Z" fill="#002346"></path>
          </g>
          <g>
            <circle cx="107.75" cy="549.11" r="4.5" fill="#e6e7e8"></circle>
            <path d="M107.75,554.11c-2.76,0-5-2.24-5-5s2.24-5,5-5,5,2.24,5,5-2.24,5-5,5Zm0-9c-2.21,0-4,1.79-4,4s1.79,4,4,4,4-1.79,4-4-1.79-4-4-4Z" fill="#002346"></path>
          </g>
          <g>
            <circle cx="125.75" cy="549.11" r="4.5" fill="#e6e7e8"></circle>
            <path d="M125.75,554.11c-2.76,0-5-2.24-5-5s2.24-5,5-5,5,2.24,5,5-2.24,5-5,5Zm0-9c-2.21,0-4,1.79-4,4s1.79,4,4,4,4-1.79,4-4-1.79-4-4-4Z" fill="#002346"></path>
          </g>
        </g>
      </g>
    </g>
    <g>
      <g>
        <rect x="80.25" y="572.78" width="152" height="35" rx="5.93" ry="5.93" fill="#0a063e"></rect>
        <path d="M226.32,608.28H86.18c-3.55,0-6.43-2.88-6.43-6.43v-23.14c0-3.54,2.88-6.43,6.43-6.43H226.32c3.55,0,6.43,2.88,6.43,6.43v23.14c0,3.54-2.88,6.43-6.43,6.43Zm-140.14-35c-2.99,0-5.43,2.44-5.43,5.43v23.14c0,2.99,2.44,5.43,5.43,5.43H226.32c2.99,0,5.43-2.44,5.43-5.43v-23.14c0-2.99-2.44-5.43-5.43-5.43H86.18Z" fill="#002346"></path>
      </g>
      <g>
        <g>
          <rect x="75.25" y="582.78" width="162" height="14" fill="#fff"></rect>
          <path d="M237.75,597.28H74.75v-15H237.75v15Zm-162-1H236.75v-13H75.75v13Z" fill="#002346"></path>
        </g>
        <g>
          <g>
            <path d="M139.75,586.28h86c1.93,0,3.5,1.57,3.5,3.5h0c0,1.93-1.57,3.5-3.5,3.5h-86c-1.93,0-3.5-1.57-3.5-3.5h0c0-1.93,1.57-3.5,3.5-3.5Z" fill="#e6e7e8"></path>
            <path d="M225.75,593.78h-86c-2.21,0-4-1.79-4-4s1.79-4,4-4h86c2.21,0,4,1.79,4,4s-1.79,4-4,4Zm-86-7c-1.65,0-3,1.35-3,3s1.35,3,3,3h86c1.65,0,3-1.35,3-3s-1.35-3-3-3h-86Z" fill="#002346"></path>
          </g>
          <g>
            <circle cx="87.75" cy="589.78" r="4.5" fill="#e6e7e8"></circle>
            <path d="M87.75,594.78c-2.76,0-5-2.24-5-5s2.24-5,5-5,5,2.24,5,5-2.24,5-5,5Zm0-9c-2.21,0-4,1.79-4,4s1.79,4,4,4,4-1.79,4-4-1.79-4-4-4Z" fill="#002346"></path>
          </g>
          <g>
            <circle cx="107.75" cy="589.78" r="4.5" fill="#e6e7e8"></circle>
            <path d="M107.75,594.78c-2.76,0-5-2.24-5-5s2.24-5,5-5,5,2.24,5,5-2.24,5-5,5Zm0-9c-2.21,0-4,1.79-4,4s1.79,4,4,4,4-1.79,4-4-1.79-4-4-4Z" fill="#002346"></path>
          </g>
          <g>
            <circle cx="125.75" cy="589.78" r="4.5" fill="#e6e7e8"></circle>
            <path d="M125.75,594.78c-2.76,0-5-2.24-5-5s2.24-5,5-5,5,2.24,5,5-2.24,5-5,5Zm0-9c-2.21,0-4,1.79-4,4s1.79,4,4,4,4-1.79,4-4-1.79-4-4-4Z" fill="#002346"></path>
          </g>
        </g>
      </g>
    </g>
    <g>
      <g>
        <rect x="80.25" y="613.44" width="152" height="35" rx="5.93" ry="5.93" fill="#0a063e"></rect>
        <path d="M226.32,648.94H86.18c-3.55,0-6.43-2.88-6.43-6.43v-23.14c0-3.54,2.88-6.43,6.43-6.43H226.32c3.55,0,6.43,2.88,6.43,6.43v23.14c0,3.55-2.88,6.43-6.43,6.43Zm-140.14-35c-2.99,0-5.43,2.44-5.43,5.43v23.14c0,2.99,2.44,5.43,5.43,5.43H226.32c2.99,0,5.43-2.44,5.43-5.43v-23.14c0-2.99-2.44-5.43-5.43-5.43H86.18Z" fill="#002346"></path>
      </g>
      <g>
        <g>
          <rect x="75.25" y="623.44" width="162" height="14" fill="#fff"></rect>
          <path d="M237.75,637.94H74.75v-15H237.75v15Zm-162-1H236.75v-13H75.75v13Z" fill="#002346"></path>
        </g>
        <g>
          <g>
            <path d="M139.75,626.94h86c1.93,0,3.5,1.57,3.5,3.5h0c0,1.93-1.57,3.5-3.5,3.5h-86c-1.93,0-3.5-1.57-3.5-3.5h0c0-1.93,1.57-3.5,3.5-3.5Z" fill="#e6e7e8"></path>
            <path d="M225.75,634.44h-86c-2.21,0-4-1.79-4-4s1.79-4,4-4h86c2.21,0,4,1.79,4,4s-1.79,4-4,4Zm-86-7c-1.65,0-3,1.35-3,3s1.35,3,3,3h86c1.65,0,3-1.35,3-3s-1.35-3-3-3h-86Z" fill="#002346"></path>
          </g>
          <g>
            <circle cx="87.75" cy="630.44" r="4.5" fill="#e6e7e8"></circle>
            <path d="M87.75,635.44c-2.76,0-5-2.24-5-5s2.24-5,5-5,5,2.24,5,5-2.24,5-5,5Zm0-9c-2.21,0-4,1.79-4,4s1.79,4,4,4,4-1.79,4-4-1.79-4-4-4Z" fill="#002346"></path>
          </g>
          <g>
            <circle cx="107.75" cy="630.44" r="4.5" fill="#e6e7e8"></circle>
            <path d="M107.75,635.44c-2.76,0-5-2.24-5-5s2.24-5,5-5,5,2.24,5,5-2.24,5-5,5Zm0-9c-2.21,0-4,1.79-4,4s1.79,4,4,4,4-1.79,4-4-1.79-4-4-4Z" fill="#002346"></path>
          </g>
          <g>
            <circle cx="125.75" cy="630.44" r="4.5" fill="#e6e7e8"></circle>
            <path d="M125.75,635.44c-2.76,0-5-2.24-5-5s2.24-5,5-5,5,2.24,5,5-2.24,5-5,5Zm0-9c-2.21,0-4,1.79-4,4s1.79,4,4,4,4-1.79,4-4-1.79-4-4-4Z" fill="#002346"></path>
          </g>
        </g>
      </g>
    </g>
    <g>
      <rect x="263.25" y="20.94" width="442.5" height="295" rx="27.62" ry="27.62" fill="#fff"></rect>
      <path d="M678.13,316.44H290.87c-15.51,0-28.12-12.61-28.12-28.12V48.56c0-15.5,12.61-28.12,28.12-28.12h387.26c15.51,0,28.12,12.61,28.12,28.12v239.76c0,15.51-12.61,28.12-28.12,28.12ZM290.87,21.44c-14.95,0-27.12,12.17-27.12,27.12v239.76c0,14.95,12.17,27.12,27.12,27.12h387.26c14.95,0,27.12-12.17,27.12-27.12V48.56c0-14.95-12.17-27.12-27.12-27.12H290.87Z" fill="#002346"></path>
    </g>
    <g>
      <rect x="271.25" y="27.94" width="428" height="278.5" rx="27.62" ry="27.62" fill="#e6e7e8"></rect>
      <path d="M671.63,306.94H298.87c-15.51,0-28.12-12.61-28.12-28.12V55.56c0-15.5,12.61-28.12,28.12-28.12h372.76c15.51,0,28.12,12.61,28.12,28.12v223.26c0,15.51-12.61,28.12-28.12,28.12ZM298.87,28.44c-14.95,0-27.12,12.17-27.12,27.12v223.26c0,14.95,12.17,27.12,27.12,27.12h372.76c14.95,0,27.12-12.17,27.12-27.12V55.56c0-14.95-12.17-27.12-27.12-27.12H298.87Z" fill="#002346"></path>
    </g>
    <path d="M377.23,159.11c-22.2-.32-40.06-8.1-53.09-23.12-32.94-38-24.08-110.59-24-111.32l2,.25c-.09,.72-8.83,72.46,23.53,109.76,12.63,14.57,30,22.12,51.6,22.43l-.04,2Z" fill="#002346"></path>
    <path d="M595.88,159.81l-1-1.74c41.1-22.92,32-129,31.92-130l2-.18c1.41,18.94,1.28,37.96-.41,56.87-3.78,39.88-14.72,65.14-32.51,75.05Z" fill="#002346"></path>
    <path d="M607.74,191.99c-3.26,.03-6.52-.11-9.76-.41l.23-2c.66,.08,66.69,7,106-42.42l1.57,1.25c-20.94,26.3-49.15,36.63-69.12,40.67-9.52,1.91-19.21,2.89-28.92,2.91Z" fill="#002346"></path>
    <g>
      <path d="M599.25,206.44s-2,20-26,23c0,0-9.85,29.55-47.14,26.08h0l-.84-.08s-24.84-2.46-40.75-20.82c-1.41-1.62-2.72-3.34-3.91-5.13h-25.34s-10.67,0-20-11.39c-1.92-2.36-3.59-4.91-5-7.61h-45.97c-4.19,.05-8.32-.99-12-3-5.83-3.29-12.14-10.08-11-24,1.89-8.58,7.87-15.68,16-19,0,0-11.13-26.33,18.44-33.66,0,0-6.44-24.34,14.56-32.34,0,0,12-6,25,6,0,0,1-21,19-24,0,0,19-4,26,15,0,0,10-21,31-14,0,0,13,2,15,22,0,0,17-16,34,1,0,0,12,12,3,29,0,0,26-8,32,16,2.05,10.11-2.32,20.43-11,26,4.26,2.55,7.96,5.93,10.88,9.95h0c4.47,6.02,5.97,13.75,4.07,21Z" fill="#f2b3c1"></path>
      <path d="M532,256.3c-1.9,0-3.88-.09-5.94-.28l-.84-.08c-.25-.03-25.22-2.69-41.08-20.99-1.36-1.57-2.64-3.23-3.8-4.96h-25.07c-.45,0-11.01-.13-20.39-11.57-1.87-2.3-3.53-4.8-4.92-7.43h-45.67c-4.26,.04-8.5-1.01-12.24-3.06-5.79-3.27-12.43-10.16-11.26-24.48,1.9-8.64,7.81-15.77,15.85-19.23-.85-2.26-4.08-12.08,.38-20.98,3.08-6.16,9.18-10.46,18.11-12.77-.77-3.53-4.53-25.01,14.98-32.44,.08-.04,11.95-5.77,24.77,5.43,.5-4.29,3.44-20.81,19.32-23.46,.17-.04,18.79-3.73,26.16,14.3,2.35-4.1,12.57-19.46,31.08-13.28,.05,0,12.91,2.2,15.24,21.48,3.49-2.81,18.82-13.51,33.96,1.64,.12,.12,11.69,11.98,3.6,28.58,3.27-.8,13.08-2.6,21.21,1.99,5.14,2.9,8.62,7.83,10.32,14.66,2.05,10.15-2.08,20.3-10.55,26.1,4.06,2.54,7.54,5.79,10.35,9.67,4.58,6.16,6.09,13.96,4.16,21.39-.13,1.05-2.83,20.29-26.13,23.36-1.12,2.94-11.06,26.4-41.61,26.4Zm-101.73-46.31h.3l.14,.27c1.39,2.66,3.05,5.2,4.94,7.52,9.05,11.05,19.51,11.21,19.61,11.21h25.61l.15,.22c1.17,1.77,2.48,3.47,3.87,5.08,15.6,18,40.18,20.63,40.42,20.65l.84,.08c2.02,.19,3.97,.28,5.83,.28,31.71,0,40.7-25.74,40.79-26.02l.1-.3,.31-.04c23.31-2.91,25.54-22.36,25.56-22.55v-.08c1.88-7.15,.43-14.65-3.97-20.58-2.9-3.99-6.51-7.29-10.74-9.82l-.69-.41,.68-.44c8.57-5.5,12.8-15.5,10.78-25.48-1.63-6.53-4.94-11.25-9.83-14.01-9.33-5.27-21.41-1.65-21.53-1.61l-1.15,.35,.56-1.07c8.71-16.46-2.79-28.29-2.91-28.41-16.45-16.45-32.62-1.63-33.3-.99l-.74,.69-.1-1.01c-1.93-19.34-14.45-21.54-14.58-21.56-20.43-6.8-30.37,13.51-30.47,13.72l-.51,1.07-.41-1.11c-6.77-18.36-24.67-14.84-25.43-14.68-17.41,2.9-18.59,23.33-18.6,23.54l-.05,1.07-.79-.73c-12.58-11.61-24.32-5.98-24.44-5.92-20.37,7.76-14.36,31.53-14.3,31.76l.13,.49-.49,.12c-8.89,2.21-14.93,6.36-17.93,12.36-4.76,9.5-.22,20.51-.17,20.62l.2,.47-.47,.19c-7.98,3.26-13.85,10.23-15.7,18.64-1.12,13.73,5.23,20.34,10.76,23.46,3.59,1.96,7.65,2.99,11.75,2.94h45.98Z" fill="#002346"></path>
    </g>
    <path d="M408.32,172.94c-.15,0-.29-.06-.39-.19-12.6-15.71-30.24-7.89-30.41-7.81-.25,.12-.55,0-.66-.25s0-.55,.25-.66c.18-.09,18.52-8.24,31.61,8.09,.17,.21,.14,.53-.08,.7-.09,.07-.2,.11-.31,.11Z" fill="#002346"></path>
    <path d="M463.59,148.72c-.24,0-.45-.17-.49-.41-3.6-19.79-20.76-20.51-21.48-20.53-.28,0-.49-.24-.49-.51,0-.27,.24-.47,.51-.49,.19,0,18.69,.76,22.44,21.35,.05,.27-.13,.53-.4,.58-.03,0-.06,0-.09,0Z" fill="#002346"></path>
    <path d="M484.5,172.94c-.09,0-.18-.02-.26-.07-16.93-10.11-9.53-27.46-9.45-27.63,.11-.25,.41-.37,.66-.25,.25,.11,.37,.41,.26,.66-.3,.68-7.12,16.72,9.05,26.37,.24,.14,.31,.45,.17,.69-.09,.16-.26,.24-.43,.24Z" fill="#002346"></path>
    <g>
      <rect x="659.25" y="55.44" width="147" height="103" rx="11.57" ry="11.57" fill="#fff"></rect>
      <path d="M794.68,158.94h-123.86c-6.66,0-12.07-5.42-12.07-12.07V67.01c0-6.66,5.41-12.07,12.07-12.07h123.86c6.66,0,12.07,5.41,12.07,12.07v79.86c0,6.66-5.41,12.07-12.07,12.07Zm-123.86-103c-6.1,0-11.07,4.97-11.07,11.07v79.86c0,6.1,4.97,11.07,11.07,11.07h123.86c6.1,0,11.07-4.97,11.07-11.07V67.01c0-6.1-4.97-11.07-11.07-11.07h-123.86Z" fill="#002346"></path>
    </g>
    <g>
      <path d="M806.25,67.01v5.43h-147v-5.43c0-6.39,5.18-11.57,11.57-11.57h123.86c6.39,0,11.57,5.18,11.57,11.57h0Z" fill="#e6e7e8"></path>
      <path d="M806.75,72.94h-148v-5.93c0-6.66,5.41-12.07,12.07-12.07h123.86c6.66,0,12.07,5.41,12.07,12.07v5.93Zm-147-1h146v-4.93c0-6.1-4.97-11.07-11.07-11.07h-123.86c-6.1,0-11.07,4.97-11.07,11.07v4.93Z" fill="#002346"></path>
    </g>
    <g>
      <circle cx="760.12" cy="64.44" r="3.93" fill="#fff"></circle>
      <path d="M760.12,68.87c-2.44,0-4.43-1.99-4.43-4.43s1.99-4.43,4.43-4.43,4.43,1.99,4.43,4.43-1.99,4.43-4.43,4.43Zm0-7.85c-1.89,0-3.43,1.54-3.43,3.43s1.54,3.43,3.43,3.43,3.43-1.54,3.43-3.43-1.54-3.43-3.43-3.43Z" fill="#002346"></path>
    </g>
    <g>
      <circle cx="774.25" cy="64.44" r="3.93" fill="#fff"></circle>
      <path d="M774.25,68.87c-2.44,0-4.43-1.99-4.43-4.43s1.99-4.43,4.43-4.43,4.43,1.99,4.43,4.43-1.99,4.43-4.43,4.43Zm0-7.85c-1.89,0-3.43,1.54-3.43,3.43s1.54,3.43,3.43,3.43,3.43-1.54,3.43-3.43-1.54-3.43-3.43-3.43Z" fill="#002346"></path>
    </g>
    <g>
      <circle cx="788.39" cy="64.44" r="3.93" fill="#fff"></circle>
      <path d="M788.39,68.87c-2.44,0-4.43-1.99-4.43-4.43s1.99-4.43,4.43-4.43,4.43,1.99,4.43,4.43-1.99,4.43-4.43,4.43Zm0-7.85c-1.89,0-3.43,1.54-3.43,3.43s1.54,3.43,3.43,3.43,3.43-1.54,3.43-3.43-1.54-3.43-3.43-3.43Z" fill="#002346"></path>
    </g>
    <g>
      <rect x="683.25" y="120.44" width="9" height="27" fill="#e6e7e8"></rect>
      <path d="M692.75,147.94h-10v-28h10v28Zm-9-1h8v-26h-8v26Z" fill="#002346"></path>
    </g>
    <g>
      <rect x="705.25" y="101.44" width="9" height="46" fill="#0a063e"></rect>
      <path d="M714.75,147.94h-10v-47h10v47Zm-9-1h8v-45h-8v45Z" fill="#002346"></path>
    </g>
    <g>
      <rect x="730.25" y="108.44" width="9" height="39" fill="#e6e7e8"></rect>
      <path d="M739.75,147.94h-10v-40h10v40Zm-9-1h8v-38h-8v38Z" fill="#002346"></path>
    </g>
    <g>
      <rect x="753.25" y="93.44" width="9" height="54" fill="#0a063e"></rect>
      <path d="M762.75,147.94h-10v-55h10v55Zm-9-1h8v-53h-8v53Z" fill="#002346"></path>
    </g>
    <g>
      <rect x="777.25" y="82.44" width="9" height="65" fill="#e6e7e8"></rect>
      <path d="M786.75,147.94h-10V81.94h10v66Zm-9-1h8V82.94h-8v64Z" fill="#002346"></path>
    </g>
    <path d="M479.07,214.05c-.19,0-.38-.11-.46-.3-.11-.25,0-.55,.26-.66,7.84-3.43,7.08-16.64,7.07-16.77,0-.14,.04-.27,.13-.37,.09-.1,.23-.16,.36-.16h44.24c.49,0,.92-.02,1.33-.06,.21-.02,.42-.04,.62-.07,12.87-1.55,19.61-11.56,20.58-20.79,.87-8.33-2.64-19.6-15.4-23.95-4-1.36-7.16-1.5-7.19-1.5-.2,0-.37-.13-.44-.31-.07-.18-.03-.39,.1-.53,2.22-2.33,3.89-4.97,4.95-7.85,2.76-7.52,.87-16.06-4.83-21.76-10.6-10.6-27.73-1.18-27.91-1.09-.24,.14-.55,.05-.68-.19-.14-.24-.05-.55,.19-.68,.18-.1,17.97-9.89,29.1,1.25,5.97,5.97,7.96,14.93,5.06,22.81-.99,2.7-2.5,5.2-4.47,7.44,1.29,.14,3.65,.51,6.44,1.46,10.96,3.74,17.27,13.55,16.07,25-1.01,9.63-8.03,20.07-21.45,21.68-.21,.03-.42,.05-.64,.07-.44,.05-.91,.07-1.44,.07h-43.72c.08,2.63-.06,13.88-7.69,17.22-.07,.03-.13,.04-.2,.04Z" fill="#002346"></path>
    <path d="M430.25,210.94c-.24,0-.45-.17-.49-.41-.03-.16-2.82-16.29,5.9-27.61,4.98-6.46,12.68-10.16,22.9-10.98h52.33c.28,0,.5,.22,.5,.5s-.22,.5-.5,.5h-52.29c-9.89,.79-17.35,4.36-22.15,10.58-8.45,10.97-5.74,26.67-5.71,26.83,.05,.27-.13,.53-.4,.58-.03,0-.06,0-.09,0Z" fill="#002346"></path>
    <path d="M446.15,175.77c-.23,0-.43-.16-.49-.39-6.98-30.58-35.05-26.49-35.33-26.45-.27,.04-.53-.14-.57-.42s.14-.53,.42-.57c.29-.04,29.28-4.26,36.47,27.21,.06,.27-.11,.54-.38,.6-.04,0-.07,.01-.11,.01Z" fill="#002346"></path>
    <path d="M496.01,142.68c-6.25,0-11.34-1.64-15.21-4.91-9.18-7.77-8.1-21.78-8.04-22.37,.02-.28,.27-.48,.54-.46,.28,.02,.48,.27,.46,.54-.01,.14-1.09,14.09,7.7,21.52,5.91,5,14.9,5.99,26.72,2.95,.27-.07,.54,.09,.61,.36,.07,.27-.09,.54-.36,.61-4.54,1.17-8.68,1.75-12.41,1.75Z" fill="#002346"></path>
    <path d="M421,141.07c-.9,0-1.82-.04-2.79-.13-.28-.02-.48-.27-.45-.54,.02-.27,.27-.46,.54-.45,12.14,1.09,18.55-5.26,21.78-10.78,2.06-3.52,2.96-7.4,2.6-11.22-.84-8.88-7.61-13.03-7.68-13.07-.24-.14-.31-.45-.17-.69,.14-.24,.45-.31,.68-.17,.3,.18,7.27,4.43,8.16,13.84,.38,4.03-.56,8.12-2.73,11.82-3.12,5.33-9.07,11.39-19.94,11.39Z" fill="#002346"></path>
    <g opacity=".18">
      <path d="M628.25,28.44l-197.87,278h77.87L679.87,29.19c-2.61-1.07-5.43-1.5-8.24-1.25l-43.38,.5Z" fill="#fff"></path>
    </g>
    <g opacity=".18">
      <path d="M548.15,27.85v.09l-169.95,278.5h-79.33c-15.25,0-27.61-12.37-27.62-27.62v-18.95L435.25,27.94l112.9-.09Z" fill="#fff"></path>
    </g>
    <g>
      <polygon points="670.4 80.01 670.4 150.44 794.03 150.44 794.03 146.62 674.25 146.62 674.25 80.01 670.4 80.01" fill="#e6e7e8"></polygon>
      <path d="M794.53,150.94h-124.63V79.51h4.85v66.61h119.78v4.82Zm-123.63-1h122.63v-2.82h-119.78V80.51h-2.85v69.43Z" fill="#002346"></path>
    </g>
    <g>
      <rect x="169.25" y="91.44" width="147" height="191" rx="14.37" ry="14.37" fill="#fff"></rect>
      <path d="M301.88,282.94h-118.26c-8.2,0-14.87-6.67-14.87-14.87V105.81c0-8.2,6.67-14.87,14.87-14.87h118.26c8.2,0,14.87,6.67,14.87,14.87v162.26c0,8.2-6.67,14.87-14.87,14.87ZM183.62,91.94c-7.65,0-13.87,6.22-13.87,13.87v162.26c0,7.65,6.22,13.87,13.87,13.87h118.26c7.65,0,13.87-6.22,13.87-13.87V105.81c0-7.65-6.22-13.87-13.87-13.87h-118.26Z" fill="#002346"></path>
    </g>
    <g>
      <path d="M316.25,105.81v2.63H169.25v-2.63c0-7.93,6.44-14.36,14.37-14.37h118.26c7.93,0,14.36,6.44,14.37,14.37Z" fill="#e6e7e8"></path>
      <path d="M316.75,108.94H168.75v-3.13c0-8.19,6.68-14.86,14.87-14.87h118.26c8.19,0,14.86,6.67,14.87,14.87v3.13Zm-147-1h146v-2.13c0-7.64-6.23-13.86-13.87-13.87h-118.26c-7.64,0-13.86,6.23-13.87,13.87v2.13Z" fill="#002346"></path>
    </g>
    <g>
      <circle cx="267.25" cy="99.44" r="4" fill="#fff"></circle>
      <path d="M267.25,103.94c-2.48,0-4.5-2.02-4.5-4.5s2.02-4.5,4.5-4.5,4.5,2.02,4.5,4.5-2.02,4.5-4.5,4.5Zm0-8c-1.93,0-3.5,1.57-3.5,3.5s1.57,3.5,3.5,3.5,3.5-1.57,3.5-3.5-1.57-3.5-3.5-3.5Z" fill="#002346"></path>
    </g>
    <g>
      <circle cx="284.25" cy="99.44" r="4" fill="#fff"></circle>
      <path d="M284.25,103.94c-2.48,0-4.5-2.02-4.5-4.5s2.02-4.5,4.5-4.5,4.5,2.02,4.5,4.5-2.02,4.5-4.5,4.5Zm0-8c-1.93,0-3.5,1.57-3.5,3.5s1.57,3.5,3.5,3.5,3.5-1.57,3.5-3.5-1.57-3.5-3.5-3.5Z" fill="#002346"></path>
    </g>
    <g>
      <circle cx="300.25" cy="99.44" r="4" fill="#fff"></circle>
      <path d="M300.25,103.94c-2.48,0-4.5-2.02-4.5-4.5s2.02-4.5,4.5-4.5,4.5,2.02,4.5,4.5-2.02,4.5-4.5,4.5Zm0-8c-1.93,0-3.5,1.57-3.5,3.5s1.57,3.5,3.5,3.5,3.5-1.57,3.5-3.5-1.57-3.5-3.5-3.5Z" fill="#002346"></path>
    </g>
    <g>
      <path d="M183.75,120.44h25c2.49,0,4.5,2.01,4.5,4.5h0c0,2.49-2.01,4.5-4.5,4.5h-25c-2.49,0-4.5-2.01-4.5-4.5h0c0-2.49,2.01-4.5,4.5-4.5Z" fill="#5b07b0"></path>
      <path d="M208.75,129.94h-25c-2.76,0-5-2.24-5-5s2.24-5,5-5h25c2.76,0,5,2.24,5,5s-2.24,5-5,5Zm-25-9c-2.21,0-4,1.79-4,4s1.79,4,4,4h25c2.21,0,4-1.79,4-4s-1.79-4-4-4h-25Z" fill="#002346"></path>
    </g>
    <g>
      <path d="M182.75,178.44h25c2.49,0,4.5,2.01,4.5,4.5h0c0,2.49-2.01,4.5-4.5,4.5h-25c-2.49,0-4.5-2.01-4.5-4.5h0c0-2.49,2.01-4.5,4.5-4.5Z" fill="#5b07b0"></path>
      <path d="M207.75,187.94h-25c-2.76,0-5-2.24-5-5s2.24-5,5-5h25c2.76,0,5,2.24,5,5s-2.24,5-5,5Zm-25-9c-2.21,0-4,1.79-4,4s1.79,4,4,4h25c2.21,0,4-1.79,4-4s-1.79-4-4-4h-25Z" fill="#002346"></path>
    </g>
    <g>
      <path d="M183.75,226.44h25c2.49,0,4.5,2.01,4.5,4.5h0c0,2.49-2.01,4.5-4.5,4.5h-25c-2.49,0-4.5-2.01-4.5-4.5h0c0-2.49,2.01-4.5,4.5-4.5Z" fill="#5b07b0"></path>
      <path d="M208.75,235.94h-25c-2.76,0-5-2.24-5-5s2.24-5,5-5h25c2.76,0,5,2.24,5,5s-2.24,5-5,5Zm-25-9c-2.21,0-4,1.79-4,4s1.79,4,4,4h25c2.21,0,4-1.79,4-4s-1.79-4-4-4h-25Z" fill="#002346"></path>
    </g>
    <g>
      <path d="M183.75,259.44h25c2.49,0,4.5,2.01,4.5,4.5h0c0,2.49-2.01,4.5-4.5,4.5h-25c-2.49,0-4.5-2.01-4.5-4.5h0c0-2.49,2.01-4.5,4.5-4.5Z" fill="#5b07b0"></path>
      <path d="M208.75,268.94h-25c-2.76,0-5-2.24-5-5s2.24-5,5-5h25c2.76,0,5,2.24,5,5s-2.24,5-5,5Zm-25-9c-2.21,0-4,1.79-4,4s1.79,4,4,4h25c2.21,0,4-1.79,4-4s-1.79-4-4-4h-25Z" fill="#002346"></path>
    </g>
    <g>
      <path d="M199.25,137.44h102c1.66,0,3,1.34,3,3h0c0,1.66-1.34,3-3,3h-102c-1.66,0-3-1.34-3-3h0c0-1.66,1.34-3,3-3Z" fill="#e6e7e8"></path>
      <path d="M301.25,143.94h-102c-1.93,0-3.5-1.57-3.5-3.5s1.57-3.5,3.5-3.5h102c1.93,0,3.5,1.57,3.5,3.5s-1.57,3.5-3.5,3.5Zm-102-6c-1.38,0-2.5,1.12-2.5,2.5s1.12,2.5,2.5,2.5h102c1.38,0,2.5-1.12,2.5-2.5s-1.12-2.5-2.5-2.5h-102Z" fill="#002346"></path>
    </g>
    <g>
      <path d="M199.25,196.44h74c1.66,0,3,1.34,3,3h0c0,1.66-1.34,3-3,3h-74c-1.66,0-3-1.34-3-3h0c0-1.66,1.34-3,3-3Z" fill="#e6e7e8"></path>
      <path d="M273.25,202.94h-74c-1.93,0-3.5-1.57-3.5-3.5s1.57-3.5,3.5-3.5h74c1.93,0,3.5,1.57,3.5,3.5s-1.57,3.5-3.5,3.5Zm-74-6c-1.38,0-2.5,1.12-2.5,2.5s1.12,2.5,2.5,2.5h74c1.38,0,2.5-1.12,2.5-2.5s-1.12-2.5-2.5-2.5h-74Z" fill="#002346"></path>
    </g>
    <g>
      <path d="M199.25,211.44h31c1.66,0,3,1.34,3,3h0c0,1.66-1.34,3-3,3h-31c-1.66,0-3-1.34-3-3h0c0-1.66,1.34-3,3-3Z" fill="#e6e7e8"></path>
      <path d="M230.25,217.94h-31c-1.93,0-3.5-1.57-3.5-3.5s1.57-3.5,3.5-3.5h31c1.93,0,3.5,1.57,3.5,3.5s-1.57,3.5-3.5,3.5Zm-31-6c-1.38,0-2.5,1.12-2.5,2.5s1.12,2.5,2.5,2.5h31c1.38,0,2.5-1.12,2.5-2.5s-1.12-2.5-2.5-2.5h-31Z" fill="#002346"></path>
    </g>
    <g>
      <path d="M199.25,244.44h74c1.66,0,3,1.34,3,3h0c0,1.66-1.34,3-3,3h-74c-1.66,0-3-1.34-3-3h0c0-1.66,1.34-3,3-3Z" fill="#e6e7e8"></path>
      <path d="M273.25,250.94h-74c-1.93,0-3.5-1.57-3.5-3.5s1.57-3.5,3.5-3.5h74c1.93,0,3.5,1.57,3.5,3.5s-1.57,3.5-3.5,3.5Zm-74-6c-1.38,0-2.5,1.12-2.5,2.5s1.12,2.5,2.5,2.5h74c1.38,0,2.5-1.12,2.5-2.5s-1.12-2.5-2.5-2.5h-74Z" fill="#002346"></path>
    </g>
    <g>
      <path d="M245.25,211.44h57c1.66,0,3,1.34,3,3h0c0,1.66-1.34,3-3,3h-57c-1.66,0-3-1.34-3-3h0c0-1.66,1.34-3,3-3Z" fill="#e6e7e8"></path>
      <path d="M302.25,217.94h-57c-1.93,0-3.5-1.57-3.5-3.5s1.57-3.5,3.5-3.5h57c1.93,0,3.5,1.57,3.5,3.5s-1.57,3.5-3.5,3.5Zm-57-6c-1.38,0-2.5,1.12-2.5,2.5s1.12,2.5,2.5,2.5h57c1.38,0,2.5-1.12,2.5-2.5s-1.12-2.5-2.5-2.5h-57Z" fill="#002346"></path>
    </g>
    <g>
      <path d="M199.25,153.44h55c1.66,0,3,1.34,3,3h0c0,1.66-1.34,3-3,3h-55c-1.66,0-3-1.34-3-3h0c0-1.66,1.34-3,3-3Z" fill="#e6e7e8"></path>
      <path d="M254.25,159.94h-55c-1.93,0-3.5-1.57-3.5-3.5s1.57-3.5,3.5-3.5h55c1.93,0,3.5,1.57,3.5,3.5s-1.57,3.5-3.5,3.5Zm-55-6c-1.38,0-2.5,1.12-2.5,2.5s1.12,2.5,2.5,2.5h55c1.38,0,2.5-1.12,2.5-2.5s-1.12-2.5-2.5-2.5h-55Z" fill="#002346"></path>
    </g>
    <g>
      <path d="M223.25,169.44h70c1.66,0,3,1.34,3,3h0c0,1.66-1.34,3-3,3h-70c-1.66,0-3-1.34-3-3h0c0-1.66,1.34-3,3-3Z" fill="#e6e7e8"></path>
      <path d="M293.25,175.94h-70c-1.93,0-3.5-1.57-3.5-3.5s1.57-3.5,3.5-3.5h70c1.93,0,3.5,1.57,3.5,3.5s-1.57,3.5-3.5,3.5Zm-70-6c-1.38,0-2.5,1.12-2.5,2.5s1.12,2.5,2.5,2.5h70c1.38,0,2.5-1.12,2.5-2.5s-1.12-2.5-2.5-2.5h-70Z" fill="#002346"></path>
    </g>
    <g>
      <rect x="634.26" y="521.35" width="8.16" height="69.32" fill="#fff"></rect>
      <path d="M642.92,591.17h-9.16v-70.32h9.16v70.32Zm-8.16-1h7.16v-68.32h-7.16v68.32Z" fill="#002346"></path>
    </g>
    <g>
      <rect x="627.47" y="581.16" width="21.75" height="44.86" fill="#e6e7e8"></rect>
      <path d="M649.72,626.52h-22.75v-45.86h22.75v45.86Zm-21.75-1h20.75v-43.86h-20.75v43.86Z" fill="#002346"></path>
    </g>
    <g>
      <path d="M520.08,636.89c-5.43,5.44-24.48,10.88-24.48,10.88-33.94,10.53-55.75,2.93-61.18,.61-1.08-.43-2.04-1.12-2.8-2-.36-.42-.61-.93-.73-1.47-.54-3.05,6.28-3.9,6.28-3.9l19-5.44c13.59-2.72,16.31-9.51,16.31-9.51,2.72-8.16,7.37-6,7.37-6l34.8,4.58c3.25,3.28,5.18,7.64,5.43,12.25Z" fill="#5b07b0"></path>
      <path d="M461.86,653.72c-14.54,0-24.05-3.34-27.64-4.88-1.14-.45-2.18-1.19-2.98-2.13-.41-.48-.7-1.07-.84-1.69-.12-.68,.03-1.31,.45-1.87,1.49-2.02,6.07-2.61,6.26-2.63l18.92-5.42c13.15-2.63,15.96-9.15,15.98-9.22,1.08-3.25,2.62-5.34,4.57-6.18,1.66-.72,3.05-.26,3.4-.12l34.9,4.59,.12,.12c3.34,3.37,5.32,7.84,5.57,12.57v.22s-.15,.16-.15,.16c-5.46,5.47-23.91,10.78-24.7,11.01-13.2,4.09-24.57,5.46-33.88,5.46Zm16.6-33.42c-.43,0-.94,.08-1.5,.32-1.64,.72-3.02,2.65-4,5.6-.13,.32-2.99,7.1-16.69,9.84l-18.96,5.43c-1.28,.17-4.63,.86-5.66,2.25-.25,.34-.34,.69-.27,1.08,.1,.44,.31,.87,.62,1.23,.7,.82,1.6,1.46,2.61,1.86,5.81,2.48,27.35,9.77,60.85-.62,.2-.06,18.63-5.36,24.12-10.6-.29-4.35-2.11-8.45-5.15-11.58l-34.77-4.6s-.49-.21-1.18-.21Z" fill="#002346"></path>
    </g>
    <g>
      <path d="M556.79,587.96l12.2,17.68,12.23,4.08s11.88-16.5,12.74-16.41,.85-9.42,.85-9.42l-15-13.59-23.02,17.66Z" fill="#f2b3c1"></path>
      <path d="M581.41,610.31l-12.74-4.25-12.56-18.21,23.73-18.2,15.47,14.02v.22c0,3.33-.11,9.03-.91,9.75-.1,.09-.22,.15-.34,.16-1.12,.77-8.18,10.3-12.44,16.21l-.21,.3Zm-12.1-5.09l11.72,3.91c9.77-13.55,12.02-15.87,12.7-16.25,.36-.71,.57-5,.58-8.77l-14.53-13.16-22.31,17.12,11.84,17.15Zm24.6-11.41s0,0,0,0c0,0,0,0,0,0Z" fill="#002346"></path>
    </g>
    <g>
      <path d="M484.74,602.91l-4.86,17.11s8.94,2.41,4.86,10.32c0,0,23.11,5.19,29.91-5.68v-12.44l-29.91-9.31Z" fill="#f2b3c1"></path>
      <path d="M496.73,632.11c-6.26,0-11.64-1.18-12.1-1.28l-.63-.14,.3-.58c1.1-2.14,1.3-4.04,.6-5.64-1.28-2.9-5.1-3.96-5.14-3.97l-.49-.13,5.14-18.09,30.75,9.57v12.95l-.08,.12c-3.61,5.77-11.5,7.18-18.35,7.18Zm-11.26-2.13c3.68,.71,22.67,3.86,28.68-5.46v-11.93l-29.07-9.05-4.59,16.15c1.17,.41,4.12,1.68,5.31,4.38,.77,1.74,.65,3.72-.34,5.91Z" fill="#002346"></path>
    </g>
    <g>
      <path d="M700.44,321.31c-3.13,.64-5.34,3.45-5.23,6.65l1.64,87.68,2.55,52.76s15.36,9.09,15.21-9.07c0,0,3.93-113.3-7-132.33,.05-.02-1.94-6.6-7.17-5.69Z" fill="#fff"></path>
      <path d="M707.06,471.18c-3.88,0-7.69-2.22-7.91-2.35l-.23-.14-2.56-53.03-1.64-87.69c-.12-3.45,2.24-6.46,5.63-7.15h.01c4.74-.83,7.18,4.01,7.72,5.95,0,.02,.01,.04,.01,.06,10.82,19.14,7.18,127.9,7.02,132.52,.05,5.58-1.37,9.25-4.21,10.88-1.2,.69-2.53,.95-3.85,.95Zm-7.17-3.08c1.2,.65,6.77,3.43,10.52,1.27,2.5-1.44,3.75-4.82,3.7-10.03,.04-1.15,3.8-113.39-6.93-132.08l-.29-.5,.11-.04c-.48-1.31-2.38-5.61-6.46-4.9-2.9,.6-4.93,3.18-4.82,6.14l1.64,87.69,2.54,52.47Z" fill="#002346"></path>
    </g>
    <g>
      <path d="M640.76,303.54c-.3-12.56-2.42-16-2.42-16l10.18-10.28c1.51,.75,3.12,1.28,4.77,1.6,2.72,.52,8.16,.52,13.6,12.75,4.7,10.61-26.13,11.93-26.13,11.93Z" fill="#f2b3c1"></path>
      <path d="M640.28,304.07v-.51c-.3-12.19-2.34-15.72-2.36-15.75l-.2-.33,.27-.28,10.43-10.54,.32,.16c1.47,.73,3.03,1.25,4.64,1.56,.2,.04,.41,.07,.63,.11,2.86,.47,8.18,1.35,13.33,12.93,.77,1.74,.7,3.37-.21,4.84-4.2,6.77-25.46,7.76-26.36,7.79l-.51,.02Zm-1.32-16.43c.53,1.14,2.01,5.22,2.3,15.38,3.29-.19,21.46-1.52,25.04-7.3,.74-1.19,.78-2.46,.14-3.91-4.93-11.09-9.72-11.88-12.58-12.35-.23-.04-.45-.07-.65-.11-1.58-.3-3.12-.8-4.57-1.49l-9.67,9.77Z" fill="#002346"></path>
    </g>
    <g>
      <rect x="616.32" y="226.66" width="38" height="66" rx="19" ry="19" fill="#f2b3c1"></rect>
      <path d="M635.32,293.16c-10.75,0-19.5-8.75-19.5-19.5v-28c0-10.75,8.75-19.5,19.5-19.5s19.5,8.75,19.5,19.5v28c0,10.75-8.75,19.5-19.5,19.5Zm0-66c-10.2,0-18.5,8.3-18.5,18.5v28c0,10.2,8.3,18.5,18.5,18.5s18.5-8.3,18.5-18.5v-28c0-10.2-8.3-18.5-18.5-18.5Z" fill="#002346"></path>
    </g>
    <g>
      <path d="M681.57,280.91c-1.44,.76-2.97,1.36-4.54,1.79-1.6,.49-2.81,1.82-3.14,3.46-.42,1.72-2.14,3.68-7.72,3.83,0,0-6.08-11.61-12.88-11.11,0,0-8.15-.84-8.83-7.63s-5.75-5-5.75-5c0,0-5.51,3.61-2.94-10,0,0-10.19-11.51-12.65-22.07-2.45,3.93-5.86,7.94-6.81,12.48,0,0-9.22-20.69,12.53-26.62,0,0,10.52-18.58,25.65,0,0,0,20.56-10,20.56,15.86,0,0,19,9.52,9.52,28.55-.01,0,7.76,10.7-3,16.46Z" fill="#002346"></path>
      <path d="M665.87,290.5l-.14-.28c-.06-.11-6.01-11.31-12.4-10.84-.17-.01-8.65-.97-9.36-8.08-.21-2.12-.88-3.55-1.99-4.26-1.27-.81-2.78-.42-3.06-.33-.31,.18-1.67,.9-2.84,.12-1.66-1.11-1.94-4.52-.84-10.43-1.31-1.51-9.62-11.36-12.31-20.98-.42,.65-.86,1.3-1.3,1.93-2.03,2.99-4.13,6.08-4.82,9.41l-.32,1.51-.63-1.41c-.17-.38-4.16-9.52-.37-17.53,2.2-4.65,6.58-7.92,13.02-9.71,.73-1.21,4.96-7.72,11.68-8.29,4.79-.41,9.64,2.32,14.44,8.1,1.71-.75,9-3.58,14.57-.1,4.16,2.6,6.29,8.08,6.34,16.27,2.32,1.29,18.27,11,9.6,28.81,.87,1.32,3.46,5.77,2.37,10.27-.67,2.75-2.59,5-5.71,6.67h0c-1.47,.78-3.04,1.39-4.64,1.83-1.41,.43-2.48,1.61-2.78,3.08-.45,1.85-2.24,4.07-8.2,4.23h-.31Zm-12.07-12.12c6.25,0,11.68,9.33,12.66,11.12,4.03-.16,6.43-1.35,6.94-3.44,.37-1.8,1.7-3.28,3.48-3.82,1.55-.42,3.04-1.01,4.45-1.75,2.86-1.53,4.61-3.55,5.2-6.02,1.09-4.51-2.01-9.18-2.37-9.69l-.17-.25,.13-.29c9.14-18.34-8.54-27.49-9.3-27.87l-.28-.14v-.31c0-7.99-1.98-13.28-5.87-15.72-5.75-3.6-13.89,.27-13.97,.31l-.36,.17-.25-.31c-4.65-5.71-9.3-8.41-13.82-8.04-6.74,.57-10.96,7.9-11,7.97l-.1,.18-.2,.05c-6.25,1.7-10.48,4.81-12.57,9.22-2.75,5.79-1.11,12.41-.16,15.27,.96-2.92,2.79-5.62,4.56-8.23,.67-.99,1.31-1.92,1.9-2.87l.64-1.02,.27,1.17c2.4,10.31,12.44,21.74,12.54,21.85l.16,.18-.05,.24c-1.37,7.26-.36,9.16,.37,9.65,.75,.51,1.8-.15,1.81-.16l.11-.05c.09-.03,2.15-.74,3.96,.41,1.38,.88,2.21,2.56,2.45,5.01,.63,6.31,8.31,7.17,8.38,7.18,.15-.01,.31-.02,.46-.02Z" fill="#002346"></path>
    </g>
    <g>
      <ellipse cx="644.46" cy="263.77" rx="6.12" ry="7.48" fill="#f2b3c1"></ellipse>
      <path d="M644.46,271.75c-3.65,0-6.62-3.58-6.62-7.98s2.97-7.98,6.62-7.98,6.62,3.58,6.62,7.98-2.97,7.98-6.62,7.98Zm0-14.96c-3.1,0-5.62,3.13-5.62,6.98s2.52,6.98,5.62,6.98,5.62-3.13,5.62-6.98-2.52-6.98-5.62-6.98Z" fill="#002346"></path>
    </g>
    <path d="M352.89,445.64s3.29,40.12-85.63,34.95c0,0-5.18-19,1.51-36,0,0,38.81-39.84,76.66-9.13l7.46,10.18Z" fill="#002346"></path>
    <g opacity=".2">
      <path d="M352.89,445.64s3.29,40.12-85.63,34.95c0,0-5.18-19,1.51-36,0,0,38.81-39.84,76.66-9.13l7.46,10.18Z"></path>
    </g>
    <g>
      <path d="M220.74,396.77l16.62,71.57h10.33l-13.34-74.43c-.58-3.47-3.61-5.99-7.13-5.92h-.18c-3.91,.33-6.81,3.78-6.48,7.69,.03,.37,.09,.73,.18,1.09Z" fill="#fff"></path>
      <path d="M248.29,468.84h-11.32l-16.71-71.95c-.09-.38-.16-.77-.19-1.17-.17-2.03,.45-4,1.76-5.55,1.31-1.55,3.15-2.51,5.17-2.68h.22c3.73-.1,7.01,2.65,7.62,6.34l13.44,75.01Zm-10.53-1h9.34l-13.23-73.84c-.53-3.21-3.38-5.54-6.63-5.51h-.19c-1.72,.15-3.31,.97-4.45,2.32-1.14,1.35-1.68,3.06-1.53,4.82,.03,.34,.09,.68,.17,1.02h0s16.53,71.19,16.53,71.19Z" fill="#002346"></path>
    </g>
    <g>
      <path d="M359.69,390.57l5.4,3.64c2.37,1.59,3.71,4.31,3.53,7.16l-4.16,67h-10.21l2.88-55.73,2.56-22.07Z" fill="#fff"></path>
      <path d="M364.93,468.87h-11.21l2.91-56.26,2.66-22.92,6.08,4.1c2.51,1.68,3.94,4.59,3.75,7.61l-4.19,67.47Zm-10.15-1h9.21l4.13-66.53c.17-2.66-1.1-5.23-3.31-6.71l-4.72-3.18-2.47,21.25-2.85,55.17Z" fill="#002346"></path>
    </g>
    <g>
      <rect x="348.82" y="367.75" width="10.87" height="44.86" fill="#f2b3c1"></rect>
      <path d="M360.19,413.11h-11.87v-45.86h11.87v45.86Zm-10.87-1h9.87v-43.86h-9.87v43.86Z" fill="#002346"></path>
    </g>
    <g>
      <path d="M362.56,320.47c-1,4-4.34,6.32-6.07,7.31-.35,.2-.7,.38-1.07,.54-2.27-12.1-6.24-23.83-11.79-34.82h0c-1.17-2.32-2.47-4.57-3.89-6.74-9.09-12.33-24.9-16.22-24.9-16.22l-.2-5.65v-.69c12.86-5.55,15.88-22.18,16.44-26.32,.08-.61,.11-.95,.11-.95l3.2,1.8v.75l.37,20.37c-3.2,12.41,11.36,17.49,11.36,17.49,10.87,5.43,6.8,23.11,6.8,23.11-1.39,13.57,9.64,20.02,9.64,20.02Z" fill="#002346"></path>
      <path d="M355.05,329.04l-.12-.62c-2.26-12.06-6.21-23.73-11.74-34.69-1.15-2.29-2.45-4.54-3.86-6.69-8.86-12.01-24.45-15.97-24.6-16.01l-.37-.09-.21-7.06,.3-.13c12.45-5.37,15.5-21.2,16.14-25.93,.08-.59,.11-.92,.11-.93l.07-.77,4.13,2.32v1.04l.37,20.43-.02,.07c-3.05,11.82,10.46,16.69,11.04,16.89,11.15,5.57,7.29,22.96,7.12,23.69-1.33,13.04,9.3,19.41,9.41,19.48l.32,.19-.09,.36c-1.02,4.08-4.39,6.53-6.31,7.62-.36,.21-.74,.4-1.12,.56l-.58,.25Zm-39.72-58.88c2.44,.68,16.49,5.02,24.82,16.31,1.45,2.2,2.76,4.49,3.93,6.81,5.48,10.84,9.42,22.39,11.71,34.32,.15-.08,.3-.16,.45-.25,1.72-.99,4.71-3.14,5.74-6.65-1.85-1.23-10.83-7.9-9.56-20.29,.05-.23,3.86-17.42-6.53-22.61-.09-.03-14.85-5.34-11.64-18l-.37-20.77-2.29-1.29c0,.07-.02,.14-.03,.21-.65,4.82-3.76,20.88-16.44,26.58v.36l.19,5.26Z" fill="#002346"></path>
    </g>
    <g>
      <path d="M364.69,368.2l-11.8,6.35-114.18-2.72c-16.79-2-23.54-11.14-26-16-.8-1.61-.56-3.54,.59-4.91,2.15-2.57,6.1-8.24,11.15-19.75l.64-1.49s24.47-66.6,68-65.92l21.63,6.71s27.14,5,35.46,36.11c4.38,13.74,7.56,27.84,9.51,42.13,0,0,.85,7.68,5.94,12.9,1.63,1.61,1.64,4.24,.02,5.87-.28,.29-.61,.53-.96,.72Z" fill="#5b07b0"></path>
      <path d="M353.01,375.06h-.13s-114.18-2.72-114.18-2.72c-16.85-2.01-23.79-11.06-26.43-16.27-.89-1.79-.63-3.93,.65-5.46,2.36-2.82,6.2-8.52,11.08-19.63l.64-1.49c.05-.14,6.26-16.88,17.73-33.3,15.22-21.82,32.77-33.18,50.74-32.92l.14,.02,21.63,6.71c.22,.04,27.49,5.4,35.79,36.46,4.37,13.71,7.57,27.91,9.52,42.19,0,.09,.9,7.59,5.8,12.62,.88,.87,1.36,2.03,1.37,3.28,0,1.24-.48,2.41-1.35,3.29-.32,.32-.68,.59-1.08,.81h0s-11.92,6.41-11.92,6.41Zm-60.57-110.8c-42.28,0-66.64,64.94-66.88,65.6l-.65,1.51c-4.92,11.22-8.82,17-11.23,19.87-1.03,1.22-1.23,2.94-.53,4.37,2.55,5.03,9.27,13.78,25.61,15.73l114,2.71,11.68-6.29c.31-.17,.59-.38,.84-.63,.69-.69,1.06-1.61,1.06-2.58,0-.98-.39-1.89-1.08-2.58-5.16-5.29-6.05-12.88-6.08-13.2-1.94-14.21-5.13-28.36-9.49-42.03-8.14-30.45-34.81-35.72-35.07-35.77l-21.62-6.7c-.19,0-.38,0-.57,0Z" fill="#002346"></path>
    </g>
    <path d="M304.87,319.16h-33.6l-1.18-18.9c-.07-1.14,.46-2.23,1.39-2.88l12.09-8.46,2.58,3.67,18.72,26.57Z" fill="#5b07b0"></path>
    <g>
      <path d="M304.87,319.16h-37.24l-1.31-18.9c-.08-1.14,.51-2.23,1.54-2.88l13.4-8.46,2.86,3.67,20.75,26.57Z" fill="#fff"></path>
      <path d="M305.9,319.66h-38.73l-1.34-19.37c-.09-1.31,.59-2.59,1.77-3.34l13.78-8.7,24.52,31.41Zm-37.8-1h35.75l-22.7-29.08-13.02,8.22c-.88,.56-1.37,1.46-1.31,2.42l1.28,18.43Z" fill="#002346"></path>
    </g>
    <g>
      <path d="M314.37,270.13s10,14,.46,49h28.24s1-26.84-6.57-36.18c0,.03-7.18-8.75-22.13-12.82Z" fill="#fff"></path>
      <path d="M343.55,319.63h-29.38l.17-.63c9.37-34.37-.29-48.44-.38-48.58l-.82-1.14,1.35,.37c13.16,3.58,20.41,10.81,22.14,12.71h.02s.23,.28,.23,.28c7.6,9.38,6.72,35.41,6.68,36.51l-.02,.48Zm-28.07-1h27.1c.08-3.65,.34-26.92-6.45-35.34l-.05-.06c-1.25-1.42-7.98-8.51-20.63-12.27,2.11,3.93,7.9,18.31,.03,47.67Z" fill="#002346"></path>
    </g>
    <g>
      <rect x="238.32" y="405.81" width="114.58" height="6.8" fill="#fff"></rect>
      <path d="M353.39,413.11h-115.58v-7.8h115.58v7.8Zm-114.58-1h113.58v-5.8h-113.58v5.8Z" fill="#002346"></path>
    </g>
    <g>
      <path d="M226.42,368.54l-1.94,44.1h14.23v-40.81s-8.28-1.19-12.29-3.29Z" fill="#f2b3c1"></path>
      <path d="M239.21,413.14h-15.25l2-45.41,.7,.36c3.89,2.04,12.05,3.23,12.13,3.24l.43,.06v41.74Zm-14.21-1h13.21v-39.88c-1.66-.26-7.65-1.27-11.32-2.94l-1.88,42.82Z" fill="#002346"></path>
    </g>
    <path d="M267.26,480.57s-34-34-16.31-53h103.3s1.36,11.66-1.36,18.06c0,0-40.77-30.29-69.32-7.18,0-.01-14.95,9.5-16.31,42.12Z" fill="#002346"></path>
    <g>
      <path d="M237.36,468.34h130.15c4.69,0,8.49,3.8,8.49,8.49v5.1H237.36v-13.59h0Z" fill="#e6e7e8"></path>
      <path d="M376.5,482.43H236.86v-14.59h130.65c4.96,0,8.99,4.03,8.99,8.99v5.6Zm-138.64-1h137.64v-4.6c0-4.41-3.58-7.99-7.99-7.99H237.86v12.59Z" fill="#002346"></path>
    </g>
    <g>
      <polygon points="456.59 322.9 460.59 322.9 480.67 407.17 475.62 407.17 456.59 322.9" fill="#fff"></polygon>
      <path d="M481.31,407.67h-6.08l-19.26-85.27h5.02l20.32,85.27Zm-5.28-1h4.02l-19.84-83.27h-2.98l18.8,83.27Z" fill="#002346"></path>
    </g>
    <g>
      <path d="M675.04,502.32h-131.85l-1.36,12.24c7.85,13.45,34.18,39.84,43.17,48.69,1.63,1.57,1.67,4.17,.1,5.8-.05,.05-.1,.1-.16,.15-8.08,7.2-16.57,13.92-25.44,20.12-13.59,6.79-24.46-9.52-24.46-9.52l-5.44,38.06c-40.78-4.08-47.57-15-47.57-15l14.96-99.22c-3.46-9.35-5-15.68-5.58-19.94-1-7.5,1-8.6,1-8.6,27.4-32.94,102.43-55.73,102.43-55.73l48.94,5.43,38.06,1.36,14.95,32.63c1.36,43.53-21.75,43.53-21.75,43.53Z" fill="#0a063e"></path>
      <path d="M530.03,618.41l-.48-.05c-40.56-4.06-47.66-14.78-47.94-15.23l-.1-.16,14.97-99.28c-2.99-8.11-4.87-14.81-5.56-19.92-.93-6.96,.69-8.69,1.16-9.04,27.22-32.65,101.87-55.61,102.62-55.83l.1-.03h.1s48.94,5.44,48.94,5.44l38.33,1.37,15.12,33.1c.55,17.76-2.81,30.53-10.01,37.95-5.84,6.02-11.98,6.09-12.24,6.09h-131.4l-1.29,11.63c7.74,13.13,32.63,38.23,43.01,48.44,1.82,1.76,1.87,4.68,.1,6.5-.06,.06-.11,.12-.17,.17-8.07,7.19-16.65,13.97-25.49,20.16-2.42,1.21-4.76,1.71-6.97,1.71-8.61,0-15.3-7.58-17.45-10.36l-5.34,37.33Zm-47.47-15.67c.98,1.26,9.58,10.8,46.62,14.58l5.56-38.88,.73,1.09c.11,.16,10.79,15.86,23.82,9.35,8.75-6.13,17.3-12.89,25.33-20.05l.13-.13c1.38-1.42,1.34-3.71-.09-5.09-10.44-10.28-35.55-35.61-43.25-48.8l-.08-.14,1.43-12.85h132.3c.06,0,6.02-.09,11.55-5.82,6.87-7.11,10.22-19.94,9.7-37.1l-14.78-32.26-37.75-1.35-48.87-5.42c-3.11,.96-75.55,23.63-102.09,55.54l-.14,.12s-1.66,1.22-.75,8.1c.69,5.07,2.56,11.74,5.55,19.83l.04,.12-14.95,99.15Z" fill="#002346"></path>
    </g>
    <g>
      <path d="M699.4,468.38c.06,1.87-1.4,3.43-3.27,3.49-.21,0-.42,0-.62-.04-6.51-.95-14.65-2.18-19.35-2.9-2.12-.33-3.58-2.3-3.29-4.42,1.34-9.65,3.21-23.48,3.31-24.33h0l-14.93,18.35c-1.24,1.5-3.16,2.25-5.09,2-51-5.89-61.34-41.13-61.34-41.13,21.77-10.87,24.49-21.76,24.49-21.76h0c-1.74-1.74-2.71-4.11-2.68-6.57l.26-26.05c1.67-29.91,11.94-40.78,11.94-40.78v-8c0-.95,.35-1.87,1-2.57,21.14-22,34.31-22,34.31-22,13.59-1.35,12.23,13.6,12.23,13.6,4.87,7.8,8.74,21.43,11.8,37.68h0c8.44,44.6,10.82,108.83,11.23,125.43Z" fill="#5b07b0"></path>
      <path d="M696.02,472.37c-.2,0-.39-.02-.59-.04-6.25-.91-14.22-2.11-19.35-2.9-2.37-.37-4.04-2.6-3.71-4.98,1.06-7.63,2.52-18.37,3.08-22.58l-13.82,16.98c-1.36,1.64-3.43,2.45-5.54,2.18-50.73-5.86-61.65-41.13-61.76-41.49l-.12-.4,.37-.19c19.42-9.7,23.56-19.49,24.15-21.18-1.69-1.8-2.64-4.23-2.61-6.71l.26-26.05c1.58-28.26,10.66-39.51,11.94-40.97v-7.81c-.01-1.08,.39-2.12,1.13-2.91,21.05-21.91,34.13-22.16,34.68-22.16,3.89-.39,7.01,.52,9.21,2.7,3.83,3.8,3.6,10.13,3.53,11.27,4.47,7.24,8.43,19.92,11.78,37.71,9.1,48.07,11.05,117.71,11.24,125.51,.07,2.14-1.61,3.93-3.75,4-.04,0-.08,0-.13,0Zm-19.14-33.84l-.2,1.71c-.1,.89-2.01,14.96-3.31,24.34-.25,1.84,1.03,3.57,2.87,3.86,5.13,.79,13.1,1.99,19.35,2.9,.18,.03,.36,.04,.53,.03,1.59-.05,2.84-1.38,2.79-2.97h0c-.19-7.78-2.14-77.36-11.22-125.35-3.35-17.78-7.3-30.4-11.73-37.51l-.09-.14,.02-.17c0-.07,.57-6.88-3.23-10.64-1.98-1.96-4.83-2.77-8.46-2.41-.18,0-13.3,.31-34,21.85-.56,.6-.87,1.39-.86,2.22v8.2l-.14,.14c-.1,.11-10.17,11.13-11.8,40.47l-.26,26.03c-.02,2.31,.9,4.57,2.53,6.21l.2,.2-.07,.27c-.11,.45-2.99,11.11-24.36,21.89,1.35,3.88,13.63,34.93,60.79,40.38,1.78,.24,3.51-.45,4.65-1.82l16.01-19.68Z" fill="#002346"></path>
    </g>
    <g>
      <path d="M647.86,413.97c-4.08,13.59-13.6,17.67-13.6,17.67-25.82,16.31-81.55,25.83-81.55,25.83-12.24,13.59-34,12.23-34,12.23-2.87,1.05-5.6,2.41-8.16,4.08-9.52,0-4.06-11.24-4.06-11.24,.86-1.01,1.84-1.9,2.93-2.65,11.31-8.06,39.19-11.94,39.19-11.94,9.51-8.15,36.7-23.11,36.7-23.11,20.17-9.65,28.45-18.16,31.79-23,.97-1.26,1.71-2.68,2.19-4.2,9.54,8.17,28.57,16.33,28.57,16.33Z" fill="#f2b3c1"></path>
      <path d="M510.7,474.28h-.15c-2.56,0-4.34-.78-5.31-2.33-2.16-3.45,.68-9.38,.8-9.63l.07-.11c.88-1.04,1.9-1.96,3.03-2.74,10.98-7.82,36.84-11.66,39.26-12,9.54-8.11,36.4-22.92,36.67-23.07,20.6-9.85,28.65-18.54,31.62-22.85,.95-1.24,1.66-2.6,2.12-4.07l.23-.72,.57,.49c9.37,8.03,28.25,16.17,28.44,16.25l.41,.18-.13,.43c-4.1,13.66-13.48,17.82-13.88,17.99-24.83,15.69-78.05,25.23-81.49,25.83-11.84,12.99-32.5,12.34-34.18,12.27-2.79,1.03-5.47,2.37-7.96,3.99l-.12,.08Zm-3.78-11.47c-.28,.6-2.59,5.79-.83,8.61,.76,1.21,2.21,1.83,4.32,1.86,2.55-1.65,5.28-3.01,8.14-4.05l.1-.04h.1c.22,.02,21.66,1.19,33.6-12.06l.12-.13,.17-.03c.56-.09,55.93-9.69,81.37-25.76,.16-.08,9.23-4.12,13.26-16.97-2.78-1.22-18.88-8.46-27.73-15.76-.49,1.31-1.17,2.54-2.03,3.65-3.68,5.34-12.23,13.7-31.97,23.15-.25,.14-27.23,15.02-36.59,23.04l-.11,.09-.15,.02c-.28,.04-27.89,3.96-38.97,11.85-1.04,.72-1.98,1.57-2.8,2.52Z" fill="#002346"></path>
    </g>
    <g>
      <path d="M676.4,305.23c-20.39-14.95-47.57,19-47.57,19v-8c0-.95,.35-1.87,1-2.57,21.14-22,34.31-22,34.31-22,13.62-1.38,12.26,13.57,12.26,13.57Z" fill="#0a063e"></path>
      <path d="M628.33,325.66v-9.42c-.01-1.08,.39-2.12,1.13-2.91,21.05-21.91,34.13-22.16,34.68-22.16,3.91-.4,7.03,.51,9.24,2.69,4.13,4.09,3.54,11.13,3.52,11.42l-.08,.88-.71-.52c-19.77-14.49-46.62,18.57-46.88,18.91l-.89,1.11Zm37.52-33.58c-.53,0-1.09,.03-1.66,.09-.18,0-13.3,.31-34,21.85-.56,.6-.87,1.39-.86,2.22v6.64c4.83-5.58,28.26-30.85,46.6-18.57,.01-1.98-.28-6.79-3.26-9.73-1.67-1.65-3.97-2.49-6.83-2.49Z" fill="#002346"></path>
    </g>
    <g>
      <path d="M602.58,588.12c-5.3,27.61-22.57,51.44-47.15,65.08-.63,.14-1.28,.1-1.88-.13-1.06-.51-1.77-2.08,.52-6.66,0,0,16.31-27.19,12.23-34,0,0-6.43-5.35,.87-9.47,0,0,5.93-4.68,8.65,2.39l11.92-10.61c2.12-1.88,3.41-4.53,3.58-7.36,.07-.95,.1-1.9,.07-2.85-.06-2.04,1.54-3.74,3.58-3.8,.34-.01,.67,.03,1,.11,1.56,.39,3.04,1.04,4.38,1.92h0c1.74,1.19,2.62,3.3,2.23,5.38Z" fill="#5b07b0"></path>
      <path d="M554.7,653.79c-.45,0-.9-.08-1.33-.25-.58-.28-.96-.71-1.16-1.29-.44-1.29,.02-3.28,1.41-6.06,.18-.3,16.02-26.86,12.29-33.45-.47-.41-2.96-2.74-2.71-5.55,.16-1.8,1.42-3.38,3.72-4.68,.05-.05,2.8-2.19,5.57-1.42,1.48,.41,2.67,1.55,3.52,3.41l11.4-10.14c2.04-1.81,3.25-4.3,3.41-7.02,.07-.94,.1-1.88,.07-2.81-.03-1.12,.37-2.18,1.14-3s1.81-1.28,2.93-1.31c.38,0,.77,.03,1.14,.12,1.62,.4,3.14,1.07,4.53,1.99,1.91,1.31,2.87,3.62,2.45,5.89h0c-5.34,27.83-22.62,51.68-47.4,65.43l-.13,.05c-.28,.06-.56,.1-.84,.1Zm16.55-51.86c-1.95,0-3.76,1.39-3.78,1.41-2.07,1.17-3.15,2.48-3.28,3.94-.23,2.5,2.4,4.73,2.42,4.75l.11,.13c4.19,6.99-11.56,33.39-12.23,34.51-1.54,3.07-1.58,4.56-1.34,5.25,.11,.33,.31,.55,.61,.7,.45,.17,.98,.21,1.48,.11,24.48-13.61,41.55-37.19,46.84-64.7,.35-1.88-.44-3.79-2.02-4.88-1.29-.85-2.71-1.47-4.22-1.85-.28-.07-.57-.1-.86-.09-.85,.02-1.64,.38-2.23,1-.58,.62-.89,1.43-.87,2.28,.03,.96,0,1.94-.07,2.9-.18,2.97-1.51,5.71-3.75,7.69l-12.46,11.09-.26-.67c-.74-1.93-1.79-3.09-3.12-3.46-.32-.09-.65-.13-.98-.13Z" fill="#002346"></path>
    </g>
    <g>
      <path d="M616.43,603.4l-9.66,11.66c-.88,1.01-2.27,1.4-3.54,1-1.75-.52-4.42-.49-6.78,2.82-.92,1.38-1.55,2.94-1.84,4.58-.87,4.53-4.86,17.74-22.68,29.81,0,0-12.1,9.17-18.38-.21,.6,.23,1.25,.27,1.88,.13,24.58-13.64,41.85-37.47,47.15-65.08,.38-2.07-.49-4.17-2.22-5.37,.33,0,4.33,.22,12.16,10.64l4.1,6.16c.79,1.19,.72,2.76-.19,3.86Z" fill="#fff"></path>
      <path d="M561.25,657.79c-.58,0-1.16-.04-1.75-.14-2.6-.44-4.74-1.88-6.36-4.31l-.88-1.31,1.47,.56c.49,.19,1.01,.23,1.52,.12,24.49-13.61,41.56-37.19,46.84-64.7,.35-1.87-.44-3.78-2.01-4.86l-1.32-.91h1.61c.74,0,4.81,.52,12.56,10.84l4.12,6.18c.92,1.38,.84,3.17-.22,4.46h0s-9.66,11.66-9.66,11.66c-1.01,1.17-2.61,1.62-4.08,1.16-1.63-.48-4.04-.42-6.22,2.63-.88,1.32-1.48,2.8-1.75,4.38-.97,5.06-5.15,18.12-22.89,30.14-.22,.17-5.48,4.1-10.97,4.1Zm-6.53-4.01c1.35,1.59,3.01,2.56,4.95,2.88,5.63,.95,11.9-3.74,11.97-3.79,17.46-11.83,21.54-24.57,22.49-29.51,.3-1.71,.95-3.31,1.92-4.76,2.66-3.74,5.74-3.49,7.34-3.02,1.09,.35,2.28,.01,3.02-.85l9.65-11.65c.77-.94,.84-2.25,.16-3.26l-4.1-6.16c-4.8-6.38-8.1-8.85-9.95-9.81,.85,1.25,1.21,2.81,.92,4.36-5.34,27.83-22.62,51.68-47.4,65.43l-.13,.05c-.27,.06-.55,.09-.83,.1Z" fill="#002346"></path>
    </g>
    <g>
      <path d="M517.37,661.36h-23.11c-1.36-9.52-12.27-2.72-12.27-2.72-23.11,8.15-48-1.35-48-1.35-7.18-1.34-3.17-12.42-3.17-12.42,.12,.54,.37,1.05,.73,1.47,.76,.88,1.72,1.57,2.8,2,5.43,2.32,27.24,9.92,61.18-.61,0,0,19-5.44,24.48-10.88,2.79,9.56-2.64,24.51-2.64,24.51Z" fill="#fff"></path>
      <path d="M461.51,662.42c-15.23,0-27.52-4.59-27.69-4.66-1.62-.29-2.89-1.15-3.67-2.53-2.18-3.81,.11-10.25,.21-10.53l.59-1.63,.37,1.7c.1,.46,.31,.89,.62,1.25,.7,.82,1.6,1.46,2.61,1.86,5.81,2.49,27.35,9.77,60.85-.62,.2-.06,18.95-5.47,24.28-10.76l.6-.59,.24,.81c2.8,9.61-2.43,24.2-2.65,24.82l-.12,.33h-23.89l-.06-.43c-.31-2.17-1.16-3.59-2.54-4.23-3.38-1.57-8.92,1.83-8.97,1.86l-.1,.05c-6.94,2.45-14.07,3.31-20.65,3.31Zm-30.6-16.1c-.54,2.01-1.31,5.95,.1,8.42,.64,1.12,1.65,1.8,3.08,2.07,.33,.12,25.04,9.35,47.69,1.39,.61-.37,6.15-3.63,9.88-1.89,1.6,.75,2.62,2.28,3.04,4.57h22.33c.74-2.17,4.75-14.57,2.72-23.08-6.15,5.26-23.32,10.22-24.07,10.43-33.81,10.49-55.63,3.1-61.51,.59-1.14-.45-2.18-1.19-2.98-2.13-.1-.11-.18-.23-.27-.35Z" fill="#002346"></path>
    </g>
    <g>
      <path d="M564.99,645.05s38.06-23.82,73.4-22.78c0,0,44.86,2.39,73.4,21.42l-4.08,4.08s-34-19-69.32-18.32c0,0-35.74-1.49-70.2,20l-3.2-4.4Z" fill="#fff"></path>
      <path d="M568.06,650.12l-3.79-5.21,.45-.28c.38-.24,38.6-23.86,73.68-22.86,.46,.02,45.34,2.62,73.66,21.5l.51,.34-4.78,4.78-.33-.18c-.34-.19-34.29-18.94-69.07-18.26-.39-.02-36.02-1.23-69.95,19.92l-.4,.25Zm-2.35-4.93l2.61,3.59c34.08-21.07,69.73-19.84,70.09-19.83,33.17-.61,65.59,16.25,69.21,18.2l3.38-3.38c-28.12-18.43-72.2-20.98-72.64-21-32.7-.98-68.22,19.76-72.65,22.43Z" fill="#002346"></path>
    </g>
    <g>
      <circle cx="714.46" cy="651.84" r="9.51" fill="#e6e7e8"></circle>
      <path d="M714.46,661.85c-5.52,0-10.01-4.49-10.01-10.01s4.49-10.01,10.01-10.01,10.01,4.49,10.01,10.01-4.49,10.01-10.01,10.01Zm0-19.02c-4.97,0-9.01,4.04-9.01,9.01s4.04,9.01,9.01,9.01,9.01-4.04,9.01-9.01-4.04-9.01-9.01-9.01Z" fill="#002346"></path>
    </g>
    <g>
      <circle cx="563.58" cy="651.84" r="9.51" fill="#e6e7e8"></circle>
      <path d="M563.58,661.85c-5.52,0-10.01-4.49-10.01-10.01s4.49-10.01,10.01-10.01,10.01,4.49,10.01,10.01-4.49,10.01-10.01,10.01Zm0-19.02c-4.97,0-9.01,4.04-9.01,9.01s4.04,9.01,9.01,9.01,9.01-4.04,9.01-9.01-4.04-9.01-9.01-9.01Z" fill="#002346"></path>
    </g>
    <g>
      <rect x="415.5" y="423.48" width="9.51" height="232.44" fill="#fff"></rect>
      <path d="M425.51,656.42h-10.51v-233.44h10.51v233.44Zm-9.51-1h8.51v-231.44h-8.51v231.44Z" fill="#002346"></path>
    </g>
    <g>
      <rect x="197.94" y="423.48" width="9.51" height="232.44" fill="#fff"></rect>
      <path d="M207.95,656.42h-10.51v-233.44h10.51v233.44Zm-9.51-1h8.51v-231.44h-8.51v231.44Z" fill="#002346"></path>
    </g>
    <g opacity=".2">
      <path d="M327.07,199.2h-9.52c-4.1-3.28-8.74-5.84-13.71-7.56,17.55-4.81,23.23,7.56,23.23,7.56Z"></path>
    </g>
    <g>
      <path d="M316.79,279.86c-.87,5.85-7.39,6.83-7.39,6.83-12.24,.47-17.67-11.37-17.67-11.37-2.72-8.15,1.36-11.55,1.36-11.55v-8.55c1.17,1.95,2.6,3.75,4.24,5.33h0c.12,.13,.25,.25,.39,.36,.19,.17,.37,.35,.56,.51,3.06,2.75,7.01,4.31,11.12,4.38,1.7,0,3.39-.28,5-.83,.07-.03,.14-.06,.21-.08l.23,6.35c1.83,3.66,2.28,6.48,1.95,8.62Z" fill="#f2b3c1"></path>
      <path d="M308.75,287.2c-11.98,0-17.42-11.55-17.47-11.67-2.51-7.52,.51-11.17,1.31-11.97v-10.14l.93,1.55c1.15,1.92,2.55,3.67,4.16,5.23,.12,.13,.24,.23,.36,.33l.25,.23c.11,.1,.21,.2,.32,.29,2.98,2.68,6.81,4.19,10.81,4.26,1.64,0,3.27-.27,4.83-.8,.04-.02,.13-.06,.23-.09l.62-.18,.25,6.89c1.67,3.38,2.33,6.35,1.95,8.82-.91,6.14-7.74,7.24-7.81,7.25-.25,0-.49,.01-.73,.01Zm-15.16-30.28v7.09l-.18,.15c-.15,.13-3.77,3.32-1.21,11.01,.03,.06,5.42,11.47,17.18,11.03,.2-.03,6.11-1,6.91-6.4h0c.35-2.29-.29-5.09-1.9-8.32l-.05-.21-.21-5.68c-1.56,.48-3.14,.72-4.73,.72-4.24-.08-8.31-1.68-11.46-4.51-.11-.09-.23-.2-.34-.31l-.22-.2c-.14-.11-.28-.25-.42-.39-1.25-1.21-2.38-2.54-3.38-3.98Z" fill="#002346"></path>
    </g>
    <g>
      <path d="M339.3,488.73l-51.65,111.46s-5.57,25.61-10.66,36.52c-.9,1.97-2.67,3.42-4.78,3.91-4.6,1.07-12.68,1.4-14.57-8.72-.64-3.49-.32-7.08,.93-10.4,.78-2.1,1.89-4.06,3.28-5.81,4.12-5.21,10-13.5,10.85-19.58l4.92-21h0l13.59-57.93,24.44-63.1s15.5-22.44,30.45-7.44c0,0,1.76,.89,2.72,4.32h0c1.41,5.11,1.03,15.87-9.52,37.77Z" fill="#f2b3c1"></path>
      <path d="M268.01,641.64c-2.08,0-4.26-.42-6.16-1.66-2.42-1.58-4-4.27-4.7-7.99-.66-3.58-.33-7.27,.95-10.67,.8-2.15,1.93-4.15,3.36-5.95,4.46-5.63,9.94-13.57,10.75-19.34l18.52-78.98,24.52-63.27c.33-.48,8.29-11.85,18.5-12.76,4.54-.42,8.8,1.34,12.67,5.21,.38,.23,1.99,1.36,2.9,4.59,1.46,5.31,1,16.23-9.55,38.12l-51.63,111.41c-.29,1.33-5.74,25.98-10.68,36.57-.96,2.1-2.87,3.66-5.12,4.19-1.26,.29-2.76,.53-4.31,.53Zm48.09-187.32l-24.42,63.04-18.49,78.86c-.83,5.95-6.41,14.04-10.94,19.78-1.36,1.71-2.44,3.62-3.2,5.67-1.22,3.23-1.53,6.74-.91,10.14,.64,3.44,2.08,5.9,4.26,7.33,3.03,1.98,6.95,1.63,9.7,.99,1.95-.45,3.61-1.81,4.44-3.63,5.01-10.74,10.57-36.16,10.63-36.42l.03-.1,51.65-111.47c10.41-21.61,10.91-32.28,9.49-37.42-.88-3.13-2.45-4-2.47-4.01l-.12-.09c-3.66-3.67-7.67-5.34-11.92-4.96-9.42,.84-17.16,11.49-17.73,12.29Z" fill="#002346"></path>
    </g>
    <g>
      <path d="M299.88,499.64l-48.89,99.19c0,12.23-6.8,28.55-6.8,28.55-2.72,2.71-10.25,6.79-10.25,6.79-4.8,2.72-6.06,0-6.06,0l-5.48-9.53c-.73-1-.68-2.63-.08-4.68h0c2.7-9.26,16.37-26.58,16.37-26.58l25.83-100.58c9.54-65.24,39.47-54.36,39.47-54.36,28.51,8.2-4.11,61.2-4.11,61.2Z" fill="#f2b3c1"></path>
      <path d="M230.24,635.88c-.42,0-.8-.06-1.17-.17-1.2-.38-1.63-1.29-1.65-1.33l-5.46-9.49c-.76-1.04-.82-2.71-.13-5.07,2.63-9.01,15.24-25.2,16.39-26.67l25.8-100.48c5.01-34.31,15.81-47.34,23.99-52.22,8.59-5.13,15.83-2.59,16.14-2.48,5.24,1.5,8.82,4.64,10.63,9.3,6.81,17.58-13.44,50.92-14.47,52.61l-48.83,99.07c-.04,12.18-6.77,28.46-6.84,28.62l-.11,.16c-2.74,2.73-10.05,6.71-10.36,6.88-1.49,.85-2.81,1.27-3.94,1.27Zm68.92-197.61c-2.8,0-6.59,.62-10.65,3.05-7.98,4.78-18.53,17.6-23.49,51.55l-25.87,100.73-.07,.08c-.14,.17-13.64,17.35-16.28,26.41-.59,2.01-.59,3.44,0,4.25l5.51,9.58c.03,.06,.31,.6,1.1,.84,.73,.22,2.07,.23,4.28-1.03,.08-.04,7.38-4.01,10.07-6.64,.55-1.34,6.72-16.75,6.72-28.27v-.12l48.96-99.34c.21-.34,21.06-34.55,14.41-51.74-1.69-4.36-5.06-7.29-10.01-8.71-.05-.02-1.86-.65-4.69-.65Z" fill="#002346"></path>
    </g>
    <g>
      <path d="M276.99,636.71c-1.14,9.33-11.09,19.21-11.09,19.21-6.8,5.44-10.87-6.8-10.87-6.8-6.8-17.67,3.54-27.62,3.54-27.62-1.25,3.32-1.57,6.91-.93,10.4,1.89,10.12,10,9.79,14.57,8.72,2.11-.49,3.88-1.94,4.78-3.91Z" fill="#5b07b0"></path>
      <path d="M262.47,657.82c-.44,0-.88-.06-1.31-.19-4.19-1.24-6.5-8.05-6.6-8.34-6.83-17.75,3.56-28.04,3.67-28.14l1.59-1.53-.78,2.07c-1.21,3.23-1.53,6.74-.91,10.13,.64,3.43,2.08,5.9,4.27,7.33,3.04,1.99,6.95,1.64,9.7,.99,1.95-.45,3.61-1.81,4.44-3.63l1.34-2.94-.39,3.21c-1.15,9.39-10.82,19.1-11.23,19.5-1.28,1.03-2.55,1.54-3.79,1.54Zm-5.12-33.99c-2.53,3.67-6.75,12.39-1.85,25.12,.03,.09,2.25,6.63,5.94,7.72,1.32,.39,2.72,.01,4.15-1.13,.05-.06,8.2-8.22,10.44-16.54-1,1.04-2.28,1.78-3.7,2.11-2.93,.69-7.13,1.05-10.47-1.13-2.43-1.58-4.01-4.27-4.7-7.99-.5-2.72-.43-5.5,.2-8.17Z" fill="#002346"></path>
    </g>
    <g>
      <path d="M244.15,627.38c0,6.79-10.87,20.39-10.87,20.39-6.8,8.15-11.42-3.21-11.42-3.21-8.47-17.7,0-24.27,.46-24.58-.6,2-.65,3.7,.08,4.68l5.44,9.51s1.26,2.72,6.06,0c0,0,7.53-4.08,10.25-6.79Z" fill="#5b07b0"></path>
      <path d="M228.4,651.22c-.23,0-.46-.02-.69-.05-3.91-.61-6.21-6.18-6.31-6.41-8.86-18.51,.55-25.12,.64-25.18l1.16-.78-.4,1.34c-.58,1.95-.58,3.45,0,4.24l5.47,9.56c.03,.06,.31,.6,1.1,.84,.73,.22,2.07,.23,4.28-1.03,.08-.05,7.51-4.08,10.14-6.71l.85-.85v1.2c0,6.89-10.53,20.14-10.98,20.7-1.74,2.08-3.51,3.13-5.27,3.13Zm-6.94-29.71c-2.07,2.45-5.66,9.23,.85,22.84,.03,.08,2.2,5.31,5.55,5.83,1.62,.25,3.32-.66,5.03-2.72,.1-.12,9.54-12.01,10.65-18.86-3.19,2.63-9.13,5.87-9.41,6.02-2.04,1.16-3.76,1.53-5.1,1.1-1.2-.38-1.63-1.29-1.65-1.33l-5.42-9.47c-.56-.75-.74-1.92-.51-3.41Z" fill="#002346"></path>
    </g>
    <g>
      <rect x="193.86" y="412.61" width="354.77" height="16.31" fill="#e6e7e8"></rect>
      <path d="M549.13,429.42H193.36v-17.31h355.77v17.31Zm-354.77-1h353.77v-15.31H194.36v15.31Z" fill="#002346"></path>
    </g>
    <g>
      <rect x="575.82" y="502.32" width="112.82" height="23.11" rx="4.93" ry="4.93" fill="#fff"></rect>
      <path d="M683.71,525.93h-102.96c-2.99,0-5.43-2.44-5.43-5.43v-13.25c0-2.99,2.44-5.43,5.43-5.43h102.96c2.99,0,5.43,2.44,5.43,5.43v13.25c0,2.99-2.44,5.43-5.43,5.43Zm-102.96-23.11c-2.44,0-4.43,1.99-4.43,4.43v13.25c0,2.44,1.99,4.43,4.43,4.43h102.96c2.44,0,4.43-1.99,4.43-4.43v-13.25c0-2.44-1.99-4.43-4.43-4.43h-102.96Z" fill="#002346"></path>
    </g>
    <g>
      <path d="M647.86,413.97s15.58,10.15,19.52-4.08c0,0,9.06-36.63,0-64.43" fill="#5b07b0"></path>
      <path d="M658.47,417.99c-5.29,0-10.6-3.42-10.88-3.59l.55-.84c.08,.05,7.85,5.04,13.52,2.89,2.52-.95,4.28-3.2,5.24-6.68,.09-.35,8.92-36.8,0-64.15l.95-.31c9,27.62,.1,64.34,.01,64.71-1.06,3.82-3.03,6.29-5.86,7.37-1.14,.43-2.34,.61-3.54,.61Z" fill="#002346"></path>
    </g>
    <path d="M535.04,580.3s-.03,0-.04,0c-.28-.02-.48-.27-.45-.54l5.02-57.14c.02-.28,.27-.48,.54-.45,.28,.02,.48,.27,.45,.54l-5.02,57.14c-.02,.26-.24,.46-.5,.46Z" fill="#002346"></path>
    <g>
      <rect x="422.32" y="407.17" width="111.36" height="5.44" fill="#fff"></rect>
      <path d="M534.17,413.11h-112.36v-6.44h112.36v6.44Zm-111.36-1h110.36v-4.44h-110.36v4.44Z" fill="#002346"></path>
    </g>
    <g>
      <polygon points="401.83 322.9 422.22 406.89 475.82 407.16 456.59 322.9 401.83 322.9" fill="#5b07b0"></polygon>
      <path d="M476.44,407.66l-54.61-.27-20.63-84.99h55.79l19.45,85.26Zm-53.83-1.27l52.57,.26-18.99-83.25h-53.73l20.15,82.99Z" fill="#002346"></path>
    </g>
    <g>
      <rect x="286.32" y="203.66" width="45" height="62" rx="22.5" ry="22.5" fill="#f2b3c1"></rect>
      <path d="M308.82,266.16c-12.68,0-23-10.32-23-23v-17c0-12.68,10.32-23,23-23s23,10.32,23,23v17c0,12.68-10.32,23-23,23Zm0-62c-12.13,0-22,9.87-22,22v17c0,12.13,9.87,22,22,22s22-9.87,22-22v-17c0-12.13-9.87-22-22-22Z" fill="#002346"></path>
    </g>
    <g>
      <path d="M346.1,278.04c-28.87,2.31-13.32-15.78-8-21.27,1.63-1.63,2.65-3.77,2.91-6.06,.65-7.17-7-10.24-9.27-11-.45-.14-.88-.36-1.27-.63-8.6-6.25-3.38-22.68-3.38-22.68-5.19-9.93-12.28-12.15-12.28-12.15-3.07-.78-6.15,1.45-8.59,4.13-2.74,3.11-4.73,6.8-5.83,10.79-3.61,12.22-12.76,9.93-12.76,9.93-6.32,22.56,5.68,30.56,5.68,30.56l-.24,4.1c-19,7.48-12.24,19.71-12.24,19.71,4.08,8.15-1.36,10.87-1.36,10.87l-7.17,4.52c-2.08,1.24-3.41,3.42-3.58,5.83-.3,6.49,8,8.68,8,8.68-9.46,14.97-25.73-2.73-25.73-2.73,2.72,13.6-9.52,16.32-9.52,16.32-6.79,0-5.8-8.16-5.8-8.16,13.22-9.51,3.08-21.73,3.08-21.73-10.87-12.24-4.07-20.83-4.07-20.83,4.07-7.23,12.72-6.06,12.72-6.06,16.79-1,11.43-21.86,11.43-21.86-8.48-27,9.83-32.82,9.83-32.82,4.73-2.29,8.55-6.12,10.83-10.86,4.27-9.31,14.23-14.63,24.35-13,17.55-4.83,23.23,7.54,23.23,7.54,14.92,8.18,10.92,20.46,10.92,20.46-5.44,13.6,2.72,19,2.72,19,12.23,10.88,2.42,25.15,2.42,25.15-7.14,8.85,2.97,14.25,2.97,14.25Z" fill="#002346"></path>
      <path d="M241.53,327.46h-.05c-1.93,0-3.46-.62-4.55-1.85-2.24-2.53-1.76-6.69-1.74-6.87l.03-.22,.18-.13c3.84-2.76,6.02-6.01,6.49-9.67,.78-6.07-3.46-11.28-3.5-11.33-11.01-12.4-4.15-21.37-4.08-21.46,4.14-7.38,13.09-6.26,13.18-6.25,4-.25,7.07-1.74,9.04-4.44,4.5-6.16,1.86-16.7,1.84-16.8-8.52-27.14,9.98-33.36,10.16-33.42,4.55-2.21,8.31-5.98,10.53-10.6,4.33-9.45,14.51-14.9,24.77-13.29,16.6-4.51,22.88,6.25,23.63,7.69,14.95,8.29,11.06,20.85,11.02,20.98-5.24,13.1,2.44,18.38,2.52,18.43,12.47,11.09,2.66,25.7,2.56,25.85-2.02,2.51-2.8,4.92-2.33,7.21,.81,3.97,5.08,6.29,5.13,6.31l1.5,.8-1.7,.14c-9.58,.77-15.29-.66-16.98-4.25-2.49-5.28,4.31-13.46,8.58-17.87,1.54-1.55,2.53-3.6,2.77-5.77,.61-6.74-6.68-9.72-8.93-10.47-.49-.16-.97-.39-1.4-.7-8.38-6.09-4.23-21.03-3.63-23.04-5.01-9.45-11.82-11.7-11.89-11.72-2.97-.76-6.03,1.75-8.07,3.99-2.67,3.03-4.65,6.69-5.72,10.59-3.22,10.91-10.88,10.63-12.88,10.37-5.86,21.58,5.48,29.49,5.6,29.57l.24,.16-.28,4.71-.3,.12c-6.71,2.64-10.9,6.15-12.44,10.42-1.67,4.61,.44,8.54,.46,8.58,2.21,4.41,1.69,7.3,.86,8.96-.91,1.83-2.37,2.57-2.43,2.6l-7.13,4.5c-1.95,1.16-3.19,3.19-3.35,5.44-.28,5.99,7.55,8.14,7.63,8.16l.66,.17-.36,.58c-2.39,3.79-5.44,5.88-9.05,6.2-6.84,.6-13.72-5.21-16.36-7.74,1.58,12.59-10.03,15.32-10.16,15.35h-.05Zm-5.38-8.38c-.06,.84-.16,3.98,1.52,5.88,.88,.99,2.14,1.5,3.75,1.51,.96-.23,11.61-3.08,9.09-15.72l-.35-1.75,1.21,1.31c.09,.09,8.62,9.27,16.65,8.54,3.11-.28,5.77-2.03,7.93-5.2-2.01-.7-7.98-3.28-7.72-8.98,.18-2.59,1.61-4.91,3.82-6.24l7.16-4.51c.24-.13,4.97-2.65,1.18-10.22-.09-.16-2.34-4.32-.52-9.37,1.62-4.5,5.9-8.17,12.73-10.91l.21-3.52c-1.68-1.32-11.49-10.07-5.65-30.93l.13-.47,.47,.12c.35,.08,8.74,2,12.16-9.59,1.11-4.03,3.16-7.83,5.93-10.98,3.24-3.55,6.29-5,9.09-4.28,.32,.1,7.37,2.4,12.6,12.4l.1,.18-.06,.2c-.05,.16-5.01,16.16,3.2,22.12,.34,.24,.72,.43,1.13,.56,2.43,.81,10.3,4.04,9.62,11.52-.27,2.4-1.36,4.66-3.05,6.37-3.29,3.4-10.71,11.83-8.39,16.74,1.41,2.99,6.29,4.26,14.51,3.78-1.47-1.08-3.74-3.18-4.34-6.16-.53-2.59,.32-5.29,2.51-8.01,.37-.54,9.39-14.01-2.36-24.46-.03-.01-8.38-5.74-2.85-19.56,.15-.46,3.66-11.96-10.7-19.84l-.14-.08-.07-.15c-.23-.49-5.73-11.92-22.64-7.27l-.1,.03-.11-.02c-9.86-1.59-19.65,3.64-23.82,12.71-2.32,4.83-6.25,8.77-11.07,11.1-.79,.26-17.79,6.04-9.57,32.22,.12,.47,2.78,11.12-1.99,17.66-2.15,2.95-5.48,4.58-9.89,4.84-.18-.01-8.46-1.03-12.31,5.81-.31,.4-6.43,8.5,4.01,20.25,.2,.24,4.57,5.59,3.74,12.1-.5,3.89-2.76,7.33-6.71,10.23Z" fill="#002346"></path>
    </g>
    <g>
      <ellipse cx="287.65" cy="235.9" rx="5.44" ry="6.8" fill="#f2b3c1"></ellipse>
      <path d="M287.65,243.2c-3.28,0-5.94-3.27-5.94-7.3s2.66-7.3,5.94-7.3,5.94,3.28,5.94,7.3-2.66,7.3-5.94,7.3Zm0-13.6c-2.72,0-4.94,2.83-4.94,6.3s2.22,6.3,4.94,6.3,4.94-2.83,4.94-6.3-2.22-6.3-4.94-6.3Z" fill="#002346"></path>
    </g>
    <g>
      <rect x="238.71" y="318.82" width="114.18" height="86.99" fill="#0a063e"></rect>
      <path d="M353.39,406.31h-115.18v-87.99h115.18v87.99Zm-114.18-1h113.18v-85.99h-113.18v85.99Z" fill="#002346"></path>
    </g>
    <g>
      <path d="M236.7,318.82h2v87h-2c-1.14,0-2.06-.92-2.06-2.06v-82.88c0-1.14,.92-2.06,2.06-2.06Z" fill="#fff"></path>
      <path d="M239.2,406.32h-2.5c-1.41,0-2.56-1.15-2.56-2.56v-82.88c0-1.41,1.15-2.56,2.56-2.56h2.5v88Zm-2.5-87c-.86,0-1.56,.7-1.56,1.56v82.88c0,.86,.7,1.56,1.56,1.56h1.5v-86h-1.5Z" fill="#002346"></path>
    </g>
    <g>
      <circle cx="294.44" cy="362.32" r="8.16" fill="#fff"></circle>
      <path d="M294.44,370.98c-4.78,0-8.66-3.88-8.66-8.66s3.88-8.66,8.66-8.66,8.66,3.88,8.66,8.66-3.88,8.66-8.66,8.66Zm0-16.32c-4.22,0-7.66,3.44-7.66,7.66s3.44,7.66,7.66,7.66,7.66-3.44,7.66-7.66-3.44-7.66-7.66-7.66Z" fill="#002346"></path>
    </g>
  </g>
  <g>
    <ellipse cx="309.5" cy="214.49" rx="16" ry="12" fill="#002346"></ellipse>
    <path d="M309.5,226.99c-9.1,0-16.5-5.61-16.5-12.5s7.4-12.5,16.5-12.5,16.5,5.61,16.5,12.5-7.4,12.5-16.5,12.5Zm0-24c-8.55,0-15.5,5.16-15.5,11.5s6.95,11.5,15.5,11.5,15.5-5.16,15.5-11.5-6.95-11.5-15.5-11.5Z" fill="#002346"></path>
  </g>
</svg>
